<svg xmlns="http://www.w3.org/2000/svg" width="29.161" height="29.756" viewBox="0 0 29.161 29.756"><defs><style>.a{fill:#fff;}</style></defs><path class="a" d="M144.833,109.8a12.752,12.752,0,0,0-.314-3.042H130.55v5.521h8.2a7.27,7.27,0,0,1-3.042,4.827l-.028.185,4.417,3.422.306.031a14.547,14.547,0,0,0,4.43-10.944" transform="translate(-115.672 -94.594)"/><path class="a" d="M27.216,168.305a14.181,14.181,0,0,0,9.852-3.6l-4.695-3.637a8.805,8.805,0,0,1-5.158,1.488,8.957,8.957,0,0,1-8.464-6.183l-.174.015-4.592,3.554-.06.167a14.867,14.867,0,0,0,13.291,8.2" transform="translate(-12.338 -138.55)"/><path class="a" d="M6.414,81.005a9.159,9.159,0,0,1-.5-2.943A9.625,9.625,0,0,1,6.4,75.12l-.008-.2-4.65-3.611-.152.072a14.847,14.847,0,0,0,0,13.357l4.827-3.736" transform="translate(0 -63.185)"/><path class="a" d="M27.216,5.753a8.246,8.246,0,0,1,5.753,2.215l4.2-4.1A14.294,14.294,0,0,0,27.216,0,14.867,14.867,0,0,0,13.925,8.2l4.81,3.736a8.993,8.993,0,0,1,8.48-6.183" transform="translate(-12.338)"/></svg>