<svg xmlns="http://www.w3.org/2000/svg" width="29.535" height="29.535" viewBox="0 0 29.535 29.535"><defs><style>.a{fill:#f0f0f0;}</style></defs><path class="a" d="M14.768,0A14.768,14.768,0,1,0,29.535,14.768,14.767,14.767,0,0,0,14.768,0ZM21.54,21.3a.92.92,0,0,1-1.266.306c-3.467-2.119-7.833-2.6-12.973-1.424a.92.92,0,0,1-.41-1.795c5.625-1.285,10.451-.732,14.343,1.647A.921.921,0,0,1,21.54,21.3Zm1.807-4.02a1.152,1.152,0,0,1-1.584.379A19.384,19.384,0,0,0,7.048,15.936a1.151,1.151,0,1,1-.669-2.2A21.542,21.542,0,0,1,22.967,15.7a1.15,1.15,0,0,1,.38,1.583Zm.155-4.188C18.742,10.264,10.89,10,6.345,11.383a1.381,1.381,0,1,1-.8-2.643c5.217-1.583,13.888-1.278,19.368,1.975a1.381,1.381,0,0,1-1.41,2.376Z"/></svg>