<svg xmlns="http://www.w3.org/2000/svg" xmlns:xlink="http://www.w3.org/1999/xlink" width="201.2" height="120.72" viewBox="0 0 201.2 120.72"><defs><style>.a,.k{fill:#ed7e83;}.a,.i,.l,.q{opacity:0.1;}.b{fill:url(#a);}.c{fill:#3a3768;}.d{fill:#3f3d56;}.e{fill:#f86d70;}.f{fill:#a1616a;}.g{fill:#ee8e9e;}.h,.u{opacity:0.05;}.j,.q{fill:#fff;}.m{fill:#efb7b9;}.n{fill:#4c4981;}.o{fill:#444053;}.p{fill:#925978;}.r{fill:none;stroke:#444053;stroke-miterlimit:10;}.s{fill:url(#b);}.t{fill:#2d293d;}.v{fill:#ffcdd3;}.w{fill:#dce6f2;}</style><linearGradient id="a" x1="-0.232" y1="0.5" x2="0.769" y2="0.5" gradientUnits="objectBoundingBox"><stop offset="0" stop-color="gray" stop-opacity="0.251"/><stop offset="0.54" stop-color="gray" stop-opacity="0.122"/><stop offset="1" stop-color="gray" stop-opacity="0.102"/></linearGradient><linearGradient id="b" x1="-3.46" y1="0.929" x2="-3.46" y2="-0.082" xlink:href="#a"/></defs><circle class="a" cx="3.959" cy="3.959" r="3.959" transform="translate(176.444 62.84)"/><circle class="a" cx="6.635" cy="6.635" r="6.635" transform="translate(187.93 42.512)"/><circle class="a" cx="3.959" cy="3.959" r="3.959" transform="translate(79.384)"/><circle class="a" cx="3.959" cy="3.959" r="3.959" transform="translate(124.798 4.55)"/><circle class="a" cx="6.635" cy="6.635" r="6.635" transform="translate(0 51.951)"/><path class="b" d="M872.34,434.467a1.081,1.081,0,0,0,.243.633,3.6,3.6,0,0,0,.974.827v.992a30.649,30.649,0,0,1,3.531,3.372,10.027,10.027,0,0,0,2,2.438,1.8,1.8,0,0,0,.745.4h.049a.776.776,0,0,1-.286.183.677.677,0,0,0,.8.573,1.335,1.335,0,0,0,.4-.2l1.161-.75a3.319,3.319,0,0,0,.54-.4c.216-.218.366-.491.578-.714.366-.381.886-.608,1.14-1.065a5.146,5.146,0,0,0,.286-.937c.064-.205.157-.4.22-.6a2.19,2.19,0,0,0,.075-.377c.04.035.082.07.126.1.09-.059.262.1.222.194s-.137.17-.17.273c-.073.234.216.408.337.622a1.655,1.655,0,0,1,.071.732c.013.243.125.536.159.809.084.637-.231,1.309,0,1.911a.6.6,0,0,0-.595.463,1.754,1.754,0,0,0,.024.815,1.12,1.12,0,0,0-.549,1.023.251.251,0,0,1-.026.183.26.26,0,0,1-.1.06,1.032,1.032,0,0,0-.637.959.475.475,0,0,1-.018.2.482.482,0,0,1-.15.154,1.193,1.193,0,0,0-.445.933.677.677,0,0,0,.315.611h.013a3.3,3.3,0,0,0-1.1,2.085,8.565,8.565,0,0,0,.143,2.158h.066v.053a.962.962,0,0,0,.1.311,4.457,4.457,0,0,1,.394,1.6,1.421,1.421,0,0,0,.055.4,2.039,2.039,0,0,0,.207.355,3.777,3.777,0,0,1,.383,1.336,10.57,10.57,0,0,0,.467,1.752,4.957,4.957,0,0,1,.529,2.38,2.385,2.385,0,0,0-.073.588,1.718,1.718,0,0,0,.231.617,5.707,5.707,0,0,1,.256.571.461.461,0,0,0,.114.309c.022.06.04.123.059.183s.031.1.046.146a1.908,1.908,0,0,1,.057.249l-.011.192v.183a.455.455,0,0,1-.088.163.63.63,0,0,1-.047.053l-.044.049a.333.333,0,0,0-.049.071h0a.342.342,0,0,0-.015.211.333.333,0,0,0,.018.082c.046.2.1.4.145.591.015.06.031.119.046.183.04.154.081.309.123.463v.02l.027.1.1.377c.022.075.044.148.064.223l.081.273q.093.319.192.637a66.664,66.664,0,0,1,1.786,6.511.7.7,0,0,0,.262.392,1.507,1.507,0,0,0,.456.245c.042.324.146.719.159.915a4.443,4.443,0,0,1-.163,1.9.154.154,0,0,0-.139.044,5.681,5.681,0,0,0-.419.445l-.858.915a1.418,1.418,0,0,0-.194.236.825.825,0,0,0-.082.675.915.915,0,0,0,.441.523.737.737,0,0,1,.139.079.825.825,0,0,0,.086.073.334.334,0,0,0,.183.035,6.534,6.534,0,0,0,1.441-.245,1.155,1.155,0,0,0,.595-.28,1.115,1.115,0,0,0,.2-.4l.172-.476a5.416,5.416,0,0,0,.262-.888,1.83,1.83,0,0,0-.046-.915.184.184,0,0,0-.044.075c.042-.265.082-.533.124-.8.013-.079.024-.159.035-.242.055.712-.049,1.43-.016,2.143a2.492,2.492,0,0,0-.071.4,2.423,2.423,0,0,0,.849,1.761.869.869,0,0,0,.291.152,1.026,1.026,0,0,0,.3,0,3.824,3.824,0,0,0,1.142-.216,1.4,1.4,0,0,0,.822-.78,1.831,1.831,0,0,0,.082-.564,2.166,2.166,0,0,0-.053-.595,4.549,4.549,0,0,0-.3-.694,6.614,6.614,0,0,1-.34-1.021l-.159-.58c-.044-.165-.09-.329-.146-.491a.822.822,0,0,0-.2-.386c-.066-.051-.11-.055-.139-.026v-.062a6.544,6.544,0,0,0,.042-.679,2.879,2.879,0,0,0-.523-.99,1.936,1.936,0,0,1-.209-.523c-.011-.04-.018-.079-.026-.121a.427.427,0,0,1,.1-.068l.326.183c-.287-2.16-.135-4.424-.974-6.434-.366-.875-1.071-1.786-.992-2.729a.769.769,0,0,1,.086-1.226c.141-.077.315-.113.412-.243a.663.663,0,0,0,.093-.236,37.452,37.452,0,0,1,1.808-5.427c.163-.386.331-.769.5-1.151l.567-1.29.692-1.57a2.178,2.178,0,0,0,.249-1.666,1.41,1.41,0,0,1-.221-.635,3.978,3.978,0,0,1,.135-.419,1.045,1.045,0,0,0-.035-.456c-.046-.2-.1-.4-.15-.591a3.285,3.285,0,0,1,.441.084c.088-.148-.053-.32-.139-.47a1.59,1.59,0,0,1-.159-.653l-.183-1.847a3.279,3.279,0,0,1-.015-.769c.037-.271.141-.529.194-.8a12.285,12.285,0,0,0,.033-1.581,7.087,7.087,0,0,1,.242-1.376c.016-.068.031-.134.047-.2a1.1,1.1,0,0,0,.266.046h.227a.733.733,0,0,0,.1-.026h.022a1.091,1.091,0,0,0,.108-.042c-.044-.093-.084-.183-.123-.282-.016-.038-.031-.077-.046-.115s-.042-.108-.06-.163-.037-.1-.053-.15-.027-.084-.04-.126-.035-.115-.051-.183-.033-.121-.049-.183l.027-.057a1.6,1.6,0,0,0,.3.207c.366.632.7,1.281,1,1.937a.615.615,0,0,0,.093-.236,1.132,1.132,0,0,0,.13.167,1.94,1.94,0,0,0,.426.313,1.1,1.1,0,0,0,.505.183.943.943,0,0,0,.646-.28,4.311,4.311,0,0,0,1.045-1.83,13.784,13.784,0,0,0,.787-2.7,22.87,22.87,0,0,1,.366-2.991c-.254-.505-.416-1.063-.7-1.552a6.949,6.949,0,0,1-.483-.906,3.13,3.13,0,0,1-.086-2.094.288.288,0,0,0-.335.018.7.7,0,0,0-.2.293,2.6,2.6,0,0,0-.2,1.23.49.49,0,0,1-.035.3.377.377,0,0,1-.326.137,2.806,2.806,0,0,1-.754-.137,7.007,7.007,0,0,0-2.1-.205,1.667,1.667,0,0,0-.183-.183l-.079-.064-.081-.062-.04-.033A.93.93,0,0,1,894.6,432a.506.506,0,0,1-.183-.32.387.387,0,0,1,0-.048.352.352,0,0,1,0-.044.616.616,0,0,1,.042-.128.834.834,0,0,1,.04-.082l.02-.042c0-.013.013-.027.02-.04a1.2,1.2,0,0,0,.059-.154,1.133,1.133,0,0,0,.038-.159,1.216,1.216,0,0,0,.016-.163v-.247a1.658,1.658,0,0,0-.068-.326,1.8,1.8,0,0,0-.088-.234,2.574,2.574,0,0,0-.156-.289,4.438,4.438,0,0,0-.392-.533l-.108-.126-.11-.124a4.33,4.33,0,0,1-.318-.39,1.518,1.518,0,0,1-.183-.326c-.015-.038-.027-.077-.038-.117a1.187,1.187,0,0,1-.033-.227V427.8a2.839,2.839,0,0,1,.015-.306c.015-.143.035-.287.055-.434.013-.1.027-.194.04-.291a.977.977,0,0,1,.018-.145c.011-.1.022-.194.029-.291a2.794,2.794,0,0,0-.048-.847,1.609,1.609,0,0,0-.086-.271,1.711,1.711,0,0,0-.183-.329,2.379,2.379,0,0,0-1.018-.793,4.685,4.685,0,0,0-.932-.3c-.128-.027-.254-.051-.381-.071a5.331,5.331,0,0,0-5.125,1.83,7.1,7.1,0,0,0-1.386,2.715,3.876,3.876,0,0,0,.438,2.96c.236.366.549.674.756,1.051.172.308.275.653.459.954a2.252,2.252,0,0,0,1.016.855l-.081.073a2.466,2.466,0,0,0-.569.011c-.194.033-.383.108-.578.132-.242.031-.489-.016-.732.015a2.311,2.311,0,0,0-1.162.668,2.043,2.043,0,0,0-.862,1.281v.015l-.269.366a1.447,1.447,0,0,0-.168.265,4.455,4.455,0,0,0-.106.82,1.757,1.757,0,0,1-.212.489,11,11,0,0,1-.915,1.365,2.315,2.315,0,0,1-.569.564,1.025,1.025,0,0,1-.593.168,3.8,3.8,0,0,1-.868-.58,5.589,5.589,0,0,1-.767-.954c-.436-.628.915,1.25.48.621l-3.906-6.509a5.3,5.3,0,0,1-.154-.926c0-.119-.049-.276-.17-.28a.207.207,0,0,0-.137.066.794.794,0,0,0-.254.677.939.939,0,0,0-.6.106.342.342,0,0,0-.075.487v.049a.26.26,0,0,0-.137.275.93.93,0,0,0-.643.031c-.192.108-.265.425-.079.549A.562.562,0,0,0,872.34,434.467Zm24.469.934a3.013,3.013,0,0,0,.342.088,5.462,5.462,0,0,1,1.062.366.583.583,0,0,1,.276.207.615.615,0,0,1-.033.52l-.483,1.305c-.077.205-.152.41-.247.606-.037.079-.079.157-.121.234q-.022-.066-.044-.126a10.686,10.686,0,0,1-.348-1.215c-.081-.355-.148-.714-.205-1.073a5.235,5.235,0,0,0-.2-.912Zm-.505-1.023.037.026a.413.413,0,0,1,.126.088.2.2,0,0,1,0,.183Zm-.873-1.258.578.084a.761.761,0,0,1,.39.134.262.262,0,0,1,.053.366.877.877,0,0,1-.128.086.366.366,0,0,0-.137.379,4.082,4.082,0,0,0-.331-.514,2.541,2.541,0,0,0-.386-.4C895.456,433.214,895.445,433.166,895.431,433.12Zm-5.559,41.611a.276.276,0,1,1,.179.52Z" transform="translate(-721.89 -363.174)"/><path class="c" d="M942.71,425.868a3.051,3.051,0,0,1,2.506,1.49,4.931,4.931,0,0,1,0,2.277,1.729,1.729,0,0,0,.022.606,2.125,2.125,0,0,0,.531.833,4.436,4.436,0,0,1,.765,1.071,1.559,1.559,0,0,1,.051,1.281.933.933,0,0,0-.126.337c-.013.262.26.427.461.593.754.624.721,1.761.732,2.746a13.86,13.86,0,0,0,1.311,5.791,1.77,1.77,0,0,1-1.98-.258,6.663,6.663,0,0,0,.45,1.3,1.423,1.423,0,0,1-1.726-.831,14.22,14.22,0,0,1-.586-2.039c-.22-.67-.639-1.261-.822-1.937a1.863,1.863,0,0,0-.229-.648,1.647,1.647,0,0,0-.4-.342,3.917,3.917,0,0,1-1.419-1.926,7.545,7.545,0,0,1-2.38.275,2.619,2.619,0,0,1-2.028-1.115c-.183-.3-.287-.646-.459-.954-.211-.377-.522-.686-.758-1.049a3.873,3.873,0,0,1-.436-2.956,7.049,7.049,0,0,1,1.386-2.711A5.362,5.362,0,0,1,942.71,425.868Z" transform="translate(-773.959 -364.923)"/><path class="d" d="M942.71,425.868a3.051,3.051,0,0,1,2.506,1.49,4.931,4.931,0,0,1,0,2.277,1.729,1.729,0,0,0,.022.606,2.125,2.125,0,0,0,.531.833,4.436,4.436,0,0,1,.765,1.071,1.559,1.559,0,0,1,.051,1.281.933.933,0,0,0-.126.337c-.013.262.26.427.461.593.754.624.721,1.761.732,2.746a13.86,13.86,0,0,0,1.311,5.791,1.77,1.77,0,0,1-1.98-.258,6.663,6.663,0,0,0,.45,1.3,1.423,1.423,0,0,1-1.726-.831,14.22,14.22,0,0,1-.586-2.039c-.22-.67-.639-1.261-.822-1.937a1.863,1.863,0,0,0-.229-.648,1.647,1.647,0,0,0-.4-.342,3.917,3.917,0,0,1-1.419-1.926,7.545,7.545,0,0,1-2.38.275,2.619,2.619,0,0,1-2.028-1.115c-.183-.3-.287-.646-.459-.954-.211-.377-.522-.686-.758-1.049a3.873,3.873,0,0,1-.436-2.956,7.049,7.049,0,0,1,1.386-2.711A5.362,5.362,0,0,1,942.71,425.868Z" transform="translate(-773.959 -364.923)"/><path class="e" d="M993.517,487.4c.057.366.124.718.207,1.074a10.279,10.279,0,0,0,.346,1.212,1.165,1.165,0,0,1,.108.549,1.025,1.025,0,0,1-.134.333,6.2,6.2,0,0,0-1.131,2.535,1.363,1.363,0,0,1-.124.675q-.533-1.142-1.173-2.229a6.864,6.864,0,0,1-1.071-2.394,4.541,4.541,0,0,1,.015-1.23,2.678,2.678,0,0,1,.443-1.294c.3-.4,1.135-.994,1.673-.871C993.307,485.911,993.437,486.887,993.517,487.4Z" transform="translate(-818.43 -413.901)"/><path class="f" d="M880.678,478.627a5.452,5.452,0,0,1-1.69-.945,5.509,5.509,0,0,1-.767-.952l-1.411-2.039a3.68,3.68,0,0,1-.75-1.578,5.193,5.193,0,0,1-1.411-3.2c0-.121-.048-.276-.168-.28a.212.212,0,0,0-.139.066.8.8,0,0,0-.253.677.939.939,0,0,0-.6.1c-.168.121-.212.419-.031.52a.258.258,0,0,0-.183.291.915.915,0,0,0-.643.031c-.183.108-.265.423-.079.549a.549.549,0,0,0-.366.536,1.076,1.076,0,0,0,.243.631c.549.732,1.5,1.021,2.129,1.677a4.863,4.863,0,0,1,.549.732l1.821,2.771a9.959,9.959,0,0,0,2,2.433,1.809,1.809,0,0,0,.743.4.822.822,0,0,0,.782-.216,1.275,1.275,0,0,0,.229-.78C880.728,479.582,880.647,479.1,880.678,478.627Z" transform="translate(-721.766 -400.738)"/><path class="d" d="M950.478,721.974a1.593,1.593,0,0,0-.194.236.825.825,0,0,0-.082.675.915.915,0,0,0,.441.522.858.858,0,0,1,.139.081.819.819,0,0,0,.086.073.332.332,0,0,0,.183.035,6.665,6.665,0,0,0,1.441-.245,1.155,1.155,0,0,0,.595-.28,1.186,1.186,0,0,0,.2-.394l.17-.476a5.578,5.578,0,0,0,.264-.886,1.845,1.845,0,0,0-.048-.915.3.3,0,0,0-.064.183,2.027,2.027,0,0,1-.366.888.9.9,0,0,1-.143.183.932.932,0,0,1-.428.183,5.27,5.27,0,0,1-.915.117.287.287,0,0,1-.124-.015.218.218,0,0,1-.1-.13.549.549,0,0,1,0-.366c.082-.231.309-.383.419-.6.081-.163-.031-.342-.2-.205a5.081,5.081,0,0,0-.419.445Z" transform="translate(-785.469 -605.607)"/><path class="g" d="M955.827,703.259a3.628,3.628,0,0,1-.337,2.237c-.15.232-.353.427-.525.644a.756.756,0,0,0-.183.388.594.594,0,0,0,.516.573,1.707,1.707,0,0,0,.829-.119,2,2,0,0,0,.7-.331,2.03,2.03,0,0,0,.534-1.3l.17-1.1a3.458,3.458,0,0,0,.062-.8,3.559,3.559,0,0,0-.214-.862l-.282-.824a.389.389,0,0,0-.124-.205.367.367,0,0,0-.214-.038c-.269.013-.948.112-1.078.4C955.568,702.179,955.809,702.97,955.827,703.259Z" transform="translate(-789.241 -590.186)"/><path class="h" d="M955.827,703.259a3.628,3.628,0,0,1-.337,2.237c-.15.232-.353.427-.525.644a.756.756,0,0,0-.183.388.594.594,0,0,0,.516.573,1.707,1.707,0,0,0,.829-.119,2,2,0,0,0,.7-.331,2.03,2.03,0,0,0,.534-1.3l.17-1.1a3.458,3.458,0,0,0,.062-.8,3.559,3.559,0,0,0-.214-.862l-.282-.824a.389.389,0,0,0-.124-.205.367.367,0,0,0-.214-.038c-.269.013-.948.112-1.078.4C955.568,702.179,955.809,702.97,955.827,703.259Z" transform="translate(-789.241 -590.186)"/><path class="d" d="M927.547,578.283a.062.062,0,0,0,0,.02.913.913,0,0,0,.1.311,4.5,4.5,0,0,1,.4,1.6,1.354,1.354,0,0,0,.053.4,2.16,2.16,0,0,0,.207.355,3.763,3.763,0,0,1,.383,1.334,10.56,10.56,0,0,0,.467,1.75,4.948,4.948,0,0,1,.529,2.38,2.381,2.381,0,0,0-.073.586,1.691,1.691,0,0,0,.229.617,5.739,5.739,0,0,1,.258.571c.075.194.156.423.218.637a.866.866,0,0,1-.048.785.9.9,0,0,0-.141.172.457.457,0,0,0,0,.3q.148.626.318,1.25c.088.326.183.65.276.974.706,2.369,1.5,4.713,1.979,7.139.068.35.514.6.862.675a1.124,1.124,0,0,0,.99-.265.612.612,0,0,0,.069-.068,2.081,2.081,0,0,0,.39-1.534c-.123-2.5-1.38-4.781-1.979-7.208a13.881,13.881,0,0,1-.388-2.674,27.944,27.944,0,0,1,.655-9.094,2.332,2.332,0,0,0,.068-1.83,1.785,1.785,0,0,0-.941-.688,6.059,6.059,0,0,0-4.7.121,1.477,1.477,0,0,0,0,.183,1.854,1.854,0,0,1-.1.831A1.019,1.019,0,0,0,927.547,578.283Z" transform="translate(-766.991 -487.936)"/><path class="d" d="M972.164,711.2l.159.58a6.488,6.488,0,0,0,.339,1.021,4.451,4.451,0,0,1,.3.692,2.239,2.239,0,0,1,.051.595,1.819,1.819,0,0,1-.082.562,1.4,1.4,0,0,1-.822.78,3.881,3.881,0,0,1-1.14.214.914.914,0,0,1-.3,0,.838.838,0,0,1-.291-.152,2.407,2.407,0,0,1-.849-1.759,2.16,2.16,0,0,1,.09-.448c.04-.055.441.17.269.366-.253.28.489.135.866.112a3.475,3.475,0,0,0,.491-.081l.609-.13c.2-.044.43-.112.5-.3s-.084-.419-.2-.6a3.952,3.952,0,0,1-.476-1.679c-.015-.115-.157-.857.137-.626a.823.823,0,0,1,.205.386C972.074,710.875,972.118,711.038,972.164,711.2Z" transform="translate(-801.29 -597.354)"/><path class="h" d="M941.692,640.465a.836.836,0,0,0,.048-.783c-.029-.1-.059-.2-.092-.293l2.4-.809c0,.214.018.428.027.642a13.924,13.924,0,0,0,.388,2.676c.6,2.425,1.856,4.71,1.979,7.2a2,2,0,0,1-.458,1.605,1.133,1.133,0,0,1-.992.264c-.346-.075-.794-.326-.862-.675-.474-2.425-1.281-4.77-1.979-7.139q-.33-1.1-.595-2.226a.465.465,0,0,1,0-.295A.9.9,0,0,1,941.692,640.465Z" transform="translate(-778.415 -538.763)"/><path class="g" d="M970.689,696.4a2.894,2.894,0,0,1,.522.988,5.663,5.663,0,0,1-.042.679,2.135,2.135,0,0,0,.1.549q.348,1.263.805,2.493a.682.682,0,0,1,.064.339.6.6,0,0,1-.4.4,4.2,4.2,0,0,1-1.83.2.957.957,0,0,1-.516-.121.9.9,0,0,1-.291-.719c-.042-.778.09-1.56,0-2.334-.029-.282-.09-.56-.134-.838a2.459,2.459,0,0,1,.037-1.171,2.682,2.682,0,0,1,.438-.732,2.291,2.291,0,0,1,.61-.608c.073-.044.28-.183.353-.093.038.042.022.156.027.209a2.048,2.048,0,0,0,.042.242A1.982,1.982,0,0,0,970.689,696.4Z" transform="translate(-800.789 -585.182)"/><path class="h" d="M932.009,579.239a.663.663,0,0,1,.046.549c-.081.331-.212.648-.32.972a13.52,13.52,0,0,0-.414,1.766,5.168,5.168,0,0,0-.225,1.684,12,12,0,0,0-1.281,3.992c-.049.357.745.82.732,1.181-.029.718-.6.774-.183,1.347.02.029-.159.67-.135.7.172.207.39.366.575.566a4.326,4.326,0,0,1,.606.888c1.1,1.973,2.671,4.21,2.184,6.406a.392.392,0,0,0,.209.4,1.077,1.077,0,0,0,.461.106h.077a2.081,2.081,0,0,0,.39-1.534c-.123-2.5-1.38-4.781-1.979-7.208a13.891,13.891,0,0,1-.388-2.674,27.943,27.943,0,0,1,.655-9.094,2.332,2.332,0,0,0,.068-1.83,1.786,1.786,0,0,0-.941-.688,6.059,6.059,0,0,0-4.7.121,1.476,1.476,0,0,0,0,.183,1.853,1.853,0,0,1-.1.831,1.021,1.021,0,0,0-.093.366s-.044-.485-.044-.478c.979.141,2,.78,2.98.915a6.805,6.805,0,0,1,1.494.329A.648.648,0,0,1,932.009,579.239Z" transform="translate(-766.717 -487.919)"/><path class="d" d="M938.005,559c.132.419.249.842.348,1.268a1.035,1.035,0,0,1,.035.454,3.964,3.964,0,0,0-.135.419,1.4,1.4,0,0,0,.221.633,2.184,2.184,0,0,1-.247,1.666l-.694,1.569-.568,1.281c-.168.383-.337.765-.5,1.151a37.437,37.437,0,0,0-1.808,5.42.663.663,0,0,1-.093.236c-.1.128-.271.165-.412.244a.767.767,0,0,0-.084,1.225c-.08.943.626,1.852.99,2.725.836,2.013.685,4.269.974,6.425l-.326-.183c-.313.143-.3.586-.469.884-.253.45-.869.514-1.384.48a1.081,1.081,0,0,1-.463-.106.39.39,0,0,1-.207-.4c.485-2.2-1.1-4.439-2.186-6.406a4.268,4.268,0,0,0-.606-.886c-.183-.2-.4-.366-.575-.567a3.075,3.075,0,0,1-.511-2.147,12.03,12.03,0,0,1,1.367-5.07,5.2,5.2,0,0,1,.227-1.684,13.23,13.23,0,0,1,.412-1.766c.108-.324.24-.641.32-.972a.663.663,0,0,0-.044-.549.645.645,0,0,0-.309-.2,6.887,6.887,0,0,0-1.494-.329l-3.364-.483a8.554,8.554,0,0,1-.143-2.156,3.315,3.315,0,0,1,2.38-2.775.5.5,0,0,1,.437.027A17.54,17.54,0,0,1,938.005,559Z" transform="translate(-765.936 -473.016)"/><path class="f" d="M952.264,456.332a1.647,1.647,0,0,0,.146.963,1.5,1.5,0,0,0,.383.423,2.837,2.837,0,0,0,1.109.549,1.181,1.181,0,0,1,.663.291c.236.286.079.716-.123,1.027a2.626,2.626,0,0,1-1.453,1.2c-.5.135-1.027.053-1.534.141-.366.064-.714.216-1.076.3a3.176,3.176,0,0,1-2.929-.815,4.182,4.182,0,0,0,1.378-1.475,2.1,2.1,0,0,0,.1-1.409,3.131,3.131,0,0,1-.329-1.376,1.442,1.442,0,0,1,1.009-.95,6.47,6.47,0,0,1,1.269-.256c.236-.033,1.743-.366,1.83-.2.053.093-.26.643-.3.763A2.944,2.944,0,0,0,952.264,456.332Z" transform="translate(-783.252 -388.542)"/><path class="h" d="M952.264,456.332a1.647,1.647,0,0,0,.146.963,1.5,1.5,0,0,0,.383.423,2.837,2.837,0,0,0,1.109.549,1.181,1.181,0,0,1,.663.291c.236.286.079.716-.123,1.027a2.626,2.626,0,0,1-1.453,1.2c-.5.135-1.027.053-1.534.141-.366.064-.714.216-1.076.3a3.176,3.176,0,0,1-2.929-.815,4.182,4.182,0,0,0,1.378-1.475,2.1,2.1,0,0,0,.1-1.409,3.131,3.131,0,0,1-.329-1.376,1.442,1.442,0,0,1,1.009-.95,6.47,6.47,0,0,1,1.269-.256c.236-.033,1.743-.366,1.83-.2.053.093-.26.643-.3.763A2.944,2.944,0,0,0,952.264,456.332Z" transform="translate(-783.252 -388.542)"/><circle class="f" cx="3.055" cy="3.055" r="3.055" transform="translate(164.063 62.778)"/><path class="e" d="M937.354,475.9l-2.07.348a7.758,7.758,0,0,1-1.549.156,4.425,4.425,0,0,0-.853,0c-.2.033-.383.108-.58.132-.242.031-.487-.015-.732.016a2.307,2.307,0,0,0-1.162.666,2.024,2.024,0,0,0-.86,1.281.366.366,0,0,0,.024.183.537.537,0,0,0,.154.161,4.9,4.9,0,0,1,.866,1.19,4.6,4.6,0,0,0,1.029,1.109c.091-.059.264.1.223.194s-.137.17-.17.273c-.073.234.216.406.335.622a1.682,1.682,0,0,1,.073.732c.013.245.123.536.159.811.082.635-.231,1.305,0,1.907a.6.6,0,0,0-.595.463,1.747,1.747,0,0,0,.024.813,1.118,1.118,0,0,0-.549,1.021.183.183,0,0,1-.132.243,1.031,1.031,0,0,0-.635.957.471.471,0,0,1-.018.2.448.448,0,0,1-.15.154,1.193,1.193,0,0,0-.445.934.685.685,0,0,0,.315.611,5.7,5.7,0,0,0,1.391.414,12.513,12.513,0,0,0,1.347.238,12.079,12.079,0,0,0,1.261.038l2.771-.011c.778,0,1.558,0,2.336-.059a6.62,6.62,0,0,1,2.169.051c.088-.148-.053-.32-.139-.47a1.577,1.577,0,0,1-.159-.652l-.174-1.847a3.245,3.245,0,0,1-.015-.765c.038-.273.141-.531.194-.8a12.263,12.263,0,0,0,.033-1.58,7.046,7.046,0,0,1,.242-1.375l.549-2.261a8.728,8.728,0,0,1,.271-1.133q.631-1.629,1.327-3.229a.333.333,0,0,0-.024-.286l-.458-.822a5.246,5.246,0,0,0-.419-.668,2.644,2.644,0,0,0-1.547-.95,2.735,2.735,0,0,0-1.8.267c-.214.113-.412.254-.63.366A2.575,2.575,0,0,1,937.354,475.9Z" transform="translate(-768.624 -405.018)"/><path class="e" d="M915.6,491.5l-.721.963a1.225,1.225,0,0,0-.168.265,4.3,4.3,0,0,0-.108.816,1.7,1.7,0,0,1-.211.489,11.269,11.269,0,0,1-.915,1.365,2.448,2.448,0,0,1-.569.564.945.945,0,0,1-.769.135.481.481,0,0,1,.253.229,2.793,2.793,0,0,1,.183,1.786,1.83,1.83,0,0,1-.2.586.879.879,0,0,1-.459.4.677.677,0,0,0,.8.573,1.333,1.333,0,0,0,.4-.2l1.159-.75a3.076,3.076,0,0,0,.54-.4c.216-.216.366-.489.578-.712.366-.379.886-.606,1.14-1.063a5,5,0,0,0,.284-.937c.064-.2.159-.4.22-.6a2.691,2.691,0,0,0-.238-1.929A8.241,8.241,0,0,0,915.6,491.5Z" transform="translate(-754.217 -418.605)"/><path class="c" d="M945.435,429.328a4.005,4.005,0,0,1,1.074-1.118,3.667,3.667,0,0,1,1.938-.82,2.06,2.06,0,0,1,.871.143c.015-.864.229-1.437.767-1.351a3.052,3.052,0,0,1,2.506,1.49,4.932,4.932,0,0,1,0,2.277,1.727,1.727,0,0,0,.022.606,2.125,2.125,0,0,0,.531.833,4.435,4.435,0,0,1,.765,1.071,1.56,1.56,0,0,1,.051,1.281.931.931,0,0,0-.126.337c-.013.262.26.427.461.593.754.624.721,1.761.732,2.746a13.86,13.86,0,0,0,1.311,5.791,1.77,1.77,0,0,1-1.981-.258,6.668,6.668,0,0,0,.45,1.3,1.423,1.423,0,0,1-1.726-.831,14.227,14.227,0,0,1-.586-2.039c-.22-.67-.639-1.261-.822-1.937a1.861,1.861,0,0,0-.229-.648,1.648,1.648,0,0,0-.4-.342c-.657-.472.311-4.049.055-4.816-.383.082-1.085-1.763-1.486-3.639a1.9,1.9,0,0,1-.869.088,1.045,1.045,0,0,0-.311-.022.828.828,0,0,0-.271.11,6.683,6.683,0,0,1-.924.476,5.314,5.314,0,0,1-2.1.183A2.079,2.079,0,0,1,945.435,429.328Z" transform="translate(-781.336 -365.236)"/><path class="d" d="M945.435,429.328a4.005,4.005,0,0,1,1.074-1.118,3.667,3.667,0,0,1,1.938-.82,2.06,2.06,0,0,1,.871.143c.015-.864.229-1.437.767-1.351a3.052,3.052,0,0,1,2.506,1.49,4.932,4.932,0,0,1,0,2.277,1.727,1.727,0,0,0,.022.606,2.125,2.125,0,0,0,.531.833,4.435,4.435,0,0,1,.765,1.071,1.56,1.56,0,0,1,.051,1.281.931.931,0,0,0-.126.337c-.013.262.26.427.461.593.754.624.721,1.761.732,2.746a13.86,13.86,0,0,0,1.311,5.791,1.77,1.77,0,0,1-1.981-.258,6.668,6.668,0,0,0,.45,1.3,1.423,1.423,0,0,1-1.726-.831,14.227,14.227,0,0,1-.586-2.039c-.22-.67-.639-1.261-.822-1.937a1.861,1.861,0,0,0-.229-.648,1.648,1.648,0,0,0-.4-.342c-.657-.472.311-4.049.055-4.816-.383.082-1.085-1.763-1.486-3.639a1.9,1.9,0,0,1-.869.088,1.045,1.045,0,0,0-.311-.022.828.828,0,0,0-.271.11,6.683,6.683,0,0,1-.924.476,5.314,5.314,0,0,1-2.1.183A2.079,2.079,0,0,1,945.435,429.328Z" transform="translate(-781.336 -365.236)"/><g class="i" transform="translate(164.355 60.931)"><path d="M976.958,443.175a13.89,13.89,0,0,1-1.311-5.791c0-.979.027-2.116-.732-2.746-.2-.167-.474-.331-.463-.593a.935.935,0,0,1,.128-.337,1.567,1.567,0,0,0-.051-1.281,4.435,4.435,0,0,0-.765-1.071,2.129,2.129,0,0,1-.533-.833,1.818,1.818,0,0,1-.022-.606,4.676,4.676,0,0,0,0-2.277,2.958,2.958,0,0,0-2.409-1.474.549.549,0,0,1,.264-.016,3.052,3.052,0,0,1,2.506,1.49,4.931,4.931,0,0,1,0,2.277,1.728,1.728,0,0,0,.022.606,2.125,2.125,0,0,0,.531.833,4.437,4.437,0,0,1,.765,1.071,1.56,1.56,0,0,1,.051,1.281.933.933,0,0,0-.126.337c-.013.262.26.426.461.593.754.624.721,1.761.732,2.746a13.861,13.861,0,0,0,1.311,5.791,1.712,1.712,0,0,1-.97.183A1.656,1.656,0,0,0,976.958,443.175Z" transform="translate(-966.683 -426.141)"/><path d="M994.08,519.086a6.545,6.545,0,0,1-.45-1.3,1.673,1.673,0,0,0,.434.287,6.808,6.808,0,0,0,.366,1.009.96.96,0,0,1-.591.075A.932.932,0,0,0,994.08,519.086Z" transform="translate(-985.335 -501.014)"/><path d="M963.572,432.975a2.109,2.109,0,0,0-.582-.137h.07a2.046,2.046,0,0,1,.516.038C963.574,432.905,963.572,432.938,963.572,432.975Z" transform="translate(-960.303 -431.609)"/><path d="M949.5,447.969a6.7,6.7,0,0,0,.926-.476.813.813,0,0,1,.271-.11,1,1,0,0,1,.286.016,1.15,1.15,0,0,0-.2.093,6.683,6.683,0,0,1-.924.476,4.169,4.169,0,0,1-1.55.2A3.674,3.674,0,0,0,949.5,447.969Z" transform="translate(-948.31 -443.492)"/><path d="M965.847,447l.016.082a1.791,1.791,0,0,1-.454.013A2.012,2.012,0,0,0,965.847,447Z" transform="translate(-962.28 -443.182)"/></g><path class="f" d="M993.374,475.392a1.116,1.116,0,0,0,.3.893,1.987,1.987,0,0,0,.425.313,1.153,1.153,0,0,0,.505.183.954.954,0,0,0,.646-.282,4.3,4.3,0,0,0,1.043-1.821,13.67,13.67,0,0,0,.789-2.693,22.8,22.8,0,0,1,.366-2.989c-.253-.505-.414-1.062-.7-1.549a7.307,7.307,0,0,1-.483-.906,3.13,3.13,0,0,1-.086-2.09.282.282,0,0,0-.333.016.7.7,0,0,0-.2.293,2.6,2.6,0,0,0-.2,1.228.488.488,0,0,1-.035.3.377.377,0,0,1-.326.137,2.894,2.894,0,0,1-.754-.135,6.991,6.991,0,0,0-2.323-.192,1.1,1.1,0,0,0-.454.11.421.421,0,0,0-.232.379l1.856.273a.768.768,0,0,1,.392.134.265.265,0,0,1,.053.366.734.734,0,0,1-.128.084.383.383,0,0,0,.015.611.392.392,0,0,1,.126.088c.077.1-.024.236-.057.366a.454.454,0,0,0,.223.463,1.632,1.632,0,0,0,.518.174,5.46,5.46,0,0,1,1.062.366.582.582,0,0,1,.276.207.621.621,0,0,1-.033.52l-.483,1.3c-.077.2-.152.408-.247.606-.123.254-.275.494-.4.749a7.473,7.473,0,0,0-.3.732C993.943,474.29,993.458,474.687,993.374,475.392Z" transform="translate(-819.092 -396.47)"/><path class="j" d="M463.71,249.17v61.394a20.336,20.336,0,0,0-6.339-.977c-9.128,0-16.542,6.46-16.542,15.588s7.413,15.517,16.542,15.517,16.587-6.721,16.587-16.474V281.583H522.1v28.981a20.328,20.328,0,0,0-6.339-.977c-9.128,0-16.542,6.46-16.542,15.588s7.413,15.517,16.542,15.517,16.587-6.721,16.587-16.474V249.17ZM522.1,272.05h-48.14V259.42H522.1Z" transform="translate(-369.365 -220.632)"/><path class="j" d="M195.5,212.17v41.2a15.586,15.586,0,1,0,7.8,13.472V227.784h15.632V212.17Z" transform="translate(-149.847 -190.404)"/><path class="k" d="M221.225,719.323a9.946,9.946,0,0,0-2.865-1.014,13.1,13.1,0,0,0,2.143-.481c1.862-.589,2.8-1.38,2.1-1.766s-2.786-.223-4.647.366a7.17,7.17,0,0,0-1.785.793,3.576,3.576,0,0,0-1.532-1.331c-1.647-.915-3.877-1.367-4.964-1.023s-.628,1.358,1.027,2.268a9.9,9.9,0,0,0,2.563.954,15.074,15.074,0,0,0-1.766.313c-2.026.487-3.2,1.221-2.618,1.647s2.7.366,4.722-.117a8.823,8.823,0,0,0,2.123-.75,3.419,3.419,0,0,0,1.56,1.393c1.647.915,3.877,1.367,4.964,1.023S222.873,720.231,221.225,719.323Z" transform="translate(-179.748 -600.992)"/><path class="k" d="M313.649,656.771a4.849,4.849,0,0,0-1.389-.492,6.542,6.542,0,0,0,1.04-.232c.9-.287,1.36-.67,1.018-.859a3.883,3.883,0,0,0-2.257.183,3.6,3.6,0,0,0-.866.384,1.744,1.744,0,0,0-.743-.646,3.792,3.792,0,0,0-2.411-.5c-.527.167-.3.661.5,1.1a4.8,4.8,0,0,0,1.248.461,7.51,7.51,0,0,0-.858.154c-.983.234-1.552.591-1.27.8a3.966,3.966,0,0,0,2.292-.057,4.356,4.356,0,0,0,1.032-.366,1.644,1.644,0,0,0,.756.675,3.793,3.793,0,0,0,2.411.5C314.678,657.706,314.453,657.212,313.649,656.771Z" transform="translate(-260.51 -551.816)"/><path class="k" d="M152.356,586.368a3.043,3.043,0,0,0-.875-.307,3.81,3.81,0,0,0,.655-.146c.566-.183.851-.419.637-.536a2.451,2.451,0,0,0-1.411.112,2.253,2.253,0,0,0-.549.24,1.071,1.071,0,0,0-.465-.4,2.367,2.367,0,0,0-1.508-.311c-.331.1-.183.412.313.688a2.982,2.982,0,0,0,.782.289,4.518,4.518,0,0,0-.538.1c-.615.146-.972.366-.8.5a2.484,2.484,0,0,0,1.435-.035,2.735,2.735,0,0,0,.646-.229,1.02,1.02,0,0,0,.472.423,2.372,2.372,0,0,0,1.508.311C152.991,586.954,152.858,586.644,152.356,586.368Z" transform="translate(-130.589 -494.975)"/><path class="l" d="M232.166,212.17v13.051H216.535v39.061a15.608,15.608,0,0,1-25.295,12.244,15.61,15.61,0,0,0,27.857-9.681V227.784h15.632V212.17Z" transform="translate(-165.46 -190.404)"/><path class="m" d="M173.87,220.367l.053.4,1.73.245s.141-.106.366-.251a5.376,5.376,0,0,1,1.684-.783c.906-.183,3.787-1.473,2.859-1.558s-.833.108-.833.108a1.528,1.528,0,0,0-2.079-.086,14.446,14.446,0,0,1-3.366,1.768C174.027,220.311,173.87,220.367,173.87,220.367Z" transform="translate(-151.27 -195.212)"/><path class="d" d="M200.212,204.659a2.929,2.929,0,0,1,.829-.212,1.009,1.009,0,0,1,.789.264c.112.115.183.264.293.381.527.564,1.55.143,2.186.58a2.171,2.171,0,0,1,.65,1.237c.139.456.392.955.857,1.052a2.54,2.54,0,0,0,.675-.026.664.664,0,0,1,.608.223c.216.328-.082.875.231,1.109.28.207.787-.082.983.205a.428.428,0,0,1-.068.476,3.312,3.312,0,0,0-.318.4.6.6,0,0,0,.595.882c.2-.02.408-.132.58-.035a.41.41,0,0,1,.183.324.851.851,0,0,1-.765.9,1.893,1.893,0,0,1-.946-.315,1.188,1.188,0,0,0-.965-.156,1.49,1.49,0,0,0-.388.273,4.248,4.248,0,0,1-1.193.707,1.47,1.47,0,0,1-1.19.053c-.412-.21-.624-.723-1.06-.879s-.934.135-1.351.383-.976.454-1.353.15c-.406-.328-.282-.985-.529-1.444a1.419,1.419,0,0,0-.4-.437c-.278-.214-.595-.375-.875-.586a1.464,1.464,0,0,1-.6-.838,1.7,1.7,0,0,1,.34-1.19,3.3,3.3,0,0,0,.56-1.126c.055-.311,0-.635.071-.943a1.162,1.162,0,0,1,.754-.8c.205-.07.242-.051.346-.232a.732.732,0,0,1,.465-.379Z" transform="translate(-170.702 -184.09)"/><g class="i" transform="translate(26.956 24.195)"><path d="M249.457,225.44a1.558,1.558,0,0,1,.033.549A1.485,1.485,0,0,1,249.457,225.44Z" transform="translate(-239.968 -225.44)"/><path d="M253.31,232.911a.6.6,0,0,0-.062.2.619.619,0,0,1,.022-.513,3.255,3.255,0,0,1,.319-.4.675.675,0,0,0,.092-.183l.015.016a.428.428,0,0,1-.066.474,3.271,3.271,0,0,0-.318.4Z" transform="translate(-243.038 -230.816)"/><path d="M198.245,230.877c.28.212.595.366.873.588a1.4,1.4,0,0,1,.4.437c.247.459.123,1.117.529,1.444.377.3.937.1,1.355-.15s.893-.549,1.349-.383.648.668,1.062.879a1.493,1.493,0,0,0,1.19-.053,4.265,4.265,0,0,0,1.192-.707,1.575,1.575,0,0,1,.388-.275,1.185,1.185,0,0,1,.966.157,1.857,1.857,0,0,0,.944.315.86.86,0,0,0,.76-.752.548.548,0,0,1,.04.161.849.849,0,0,1-.76.9,1.9,1.9,0,0,1-.944-.313,1.205,1.205,0,0,0-.966-.157,1.618,1.618,0,0,0-.388.273,4.27,4.27,0,0,1-1.192.708,1.485,1.485,0,0,1-1.19.053c-.414-.21-.624-.723-1.062-.879a1.729,1.729,0,0,0-1.349.383c-.415.249-.977.454-1.354.148-.406-.328-.282-.983-.529-1.444a1.409,1.409,0,0,0-.4-.436c-.276-.214-.593-.375-.873-.588a1.464,1.464,0,0,1-.6-.838.988.988,0,0,1-.018-.22A1.53,1.53,0,0,0,198.245,230.877Z" transform="translate(-197.668 -229.272)"/></g><path class="n" d="M202.068,286.045l-.628.134a1.074,1.074,0,0,0,1.572.35C203.966,285.86,202.068,286.045,202.068,286.045Z" transform="translate(-173.793 -250.738)"/><path class="l" d="M202.068,286.045l-.628.134a1.074,1.074,0,0,0,1.572.35C203.966,285.86,202.068,286.045,202.068,286.045Z" transform="translate(-173.793 -250.738)"/><path class="m" d="M279.32,331.405s.871.45,1.682.972a4.534,4.534,0,0,1,1.312,1.087c.432.732,2.531,1.527,2.531,1.527l2.083,1.585a2.976,2.976,0,0,1,1.164,1.027c.059.081.093.132.093.132l.835-.108.439-.571s.112-1.259-.756-1.245a1.193,1.193,0,0,1-.489-.126,10.322,10.322,0,0,1-2.239-1.711s-2.218-2.771-2.883-2.863a1.1,1.1,0,0,1-.209-.053,6.8,6.8,0,0,1-1.647-1.107Z" transform="translate(-237.418 -286.626)"/><path class="m" d="M232.116,367.251a19.859,19.859,0,0,0,1.554,4.406,7,7,0,0,1,.613,1.973l.119.915a1.062,1.062,0,0,0,.132.355,1.939,1.939,0,0,0,.117.183l1.671-.514s-.1-.384-.243-.826a3.727,3.727,0,0,0-.575-1.2c-.408-.4-.469-1.816-.469-1.816s-.34-2.72-.445-3.062a4.722,4.722,0,0,1-.183-1c-.016-.183-.027-.392-.029-.628a12.827,12.827,0,0,0-.264-2.013l-1.949.353-.051,2.18A1.453,1.453,0,0,0,232.116,367.251Z" transform="translate(-198.819 -314.46)"/><path class="l" d="M327.25,363.2c.059.081.093.132.093.132l.835-.108.439-.571s.112-1.259-.756-1.245a1.193,1.193,0,0,1-.489-.126c-.071.377.351.69.351.69s.183.128.134.719C327.83,363.092,327.473,363.178,327.25,363.2Z" transform="translate(-276.575 -312.221)"/><path class="o" d="M326.75,355.727c.055.2.582.5.948.688.183.092.32.156.348.17.084.042.527-.45.588-.848a7.373,7.373,0,0,1,1.117-1.633,4.43,4.43,0,0,0,.392-1.547c.04-.54-.183-.584-.448-.461a1.774,1.774,0,0,0-.5.394,1.34,1.34,0,0,1-.65.337,3.179,3.179,0,0,0-.935.4c-.256.165-.505.366-.549.549-.1.39.346.719.346.719s.183.128.134.719S326.744,355.709,326.75,355.727Z" transform="translate(-276.166 -304.673)"/><path class="l" d="M331.93,356.415c.183.092.32.156.348.17.084.042.527-.45.588-.848a7.373,7.373,0,0,1,1.117-1.633,4.43,4.43,0,0,0,.392-1.547c.04-.54-.183-.584-.448-.461a6.1,6.1,0,0,1-.366,1.695C333.292,354.308,332.221,355.967,331.93,356.415Z" transform="translate(-280.398 -304.673)"/><path class="l" d="M245.251,418.168l-.016.031a1.933,1.933,0,0,0,.117.183l1.671-.514s-.1-.384-.243-.826c-.661-.183-1.609.972-1.609.972Z" transform="translate(-209.519 -357.76)"/><path class="o" d="M244.784,419.766a6.823,6.823,0,0,0,2.013.414c.478-.057.5-.278.465-.732-.011-.146-.026-.315-.035-.509-.031-.805-.355-.968-.355-.968-.531-1.391-2.059.476-2.059.476l.079.154a1.684,1.684,0,0,0-.156.76A2.217,2.217,0,0,0,244.784,419.766Z" transform="translate(-209.164 -358.114)"/><path class="l" d="M244.788,428.266a6.823,6.823,0,0,0,2.013.414c.478-.057.5-.278.465-.732a1.477,1.477,0,0,1-1.137.326,4.472,4.472,0,0,1-1.389-.414A2.219,2.219,0,0,0,244.788,428.266Z" transform="translate(-209.168 -366.614)"/><path class="m" d="M207.23,234.212l.549,2.38.112.491,1.009.128,1.04.132,1.131-.41a3.82,3.82,0,0,0,.055-1.884,1.194,1.194,0,0,0-.523-.69,1.16,1.16,0,0,1-.218-.168.956.956,0,0,1-.183-.262,1.082,1.082,0,0,1-.1-.379,2.705,2.705,0,0,1,.35-1.345s-2.4-.818-2.211-.289c.123.342-.216.939-.469,1.316-.137.2-.249.344-.249.344Z" transform="translate(-178.523 -206.39)"/><circle class="l" cx="2.083" cy="2.083" r="2.083" transform="translate(28.787 22.739)"/><circle class="m" cx="2.083" cy="2.083" r="2.083" transform="translate(28.778 22.662)"/><path class="e" d="M207.012,251.912a5.1,5.1,0,0,0,.549,1.182l2.909.714,2.078-2.175v-.015c-.064-.2-.857-2.768-.284-3.4.6-.657.366-2.511.366-2.511s-1.038-1.193-1.248-1.483-1.558-.516-1.558-.516c.068.092.13.183.183.262a2.563,2.563,0,0,1,.331.7,1.051,1.051,0,0,1-.027.763.839.839,0,0,0-.071.2c-.227.994-1.263.855-1.675.756-.106-.026-.172-.048-.172-.048l-.99.031-.622.02s.284,4.9.216,5.292A.626.626,0,0,0,207.012,251.912Z" transform="translate(-178.156 -216.171)"/><path class="p" d="M206.813,258.484l1.8-.236h-.033c-.106-.026-.17-.048-.17-.048l-.992.031-.621.02S206.8,258.332,206.813,258.484Z" transform="translate(-178.172 -228.009)"/><path class="p" d="M167.52,208.216l.782.19,1.232-.161.32-.335Z" transform="translate(-136.857 -170.979)"/><path class="p" d="M174.63,211.026l.353.086.145-.152Z" transform="translate(-142.665 -173.471)"/><path class="l" d="M207.029,248.783c.465.048.893.071.893.071l2.4-.09v-2.5a3.548,3.548,0,0,0-.966-.637c-.417-.145-.915-.588-.816-1.755a1.673,1.673,0,0,1,.02-.209,2.688,2.688,0,0,0,.022-.394,2.1,2.1,0,0,0-.664-1.541.316.316,0,0,0-.035-.031l-.39-1.816a.387.387,0,0,0-.079.011c-.137.2-.249.344-.249.344l-.287.63.549,2.38-.622.02s.284,4.9.216,5.292A.626.626,0,0,0,207.029,248.783Z" transform="translate(-178.172 -213.042)"/><path class="o" d="M196.684,248.9l2.4-.088v-2.5a3.571,3.571,0,0,0-.965-.637c-.441-.154-.966-.637-.8-1.964a2.173,2.173,0,0,0-.637-1.946l-.037-.031-.39-1.816a.844.844,0,0,0-.617.353,1.549,1.549,0,0,1-.145.212.366.366,0,0,1-.481.143c-.253-.112-1.34-.571-1.583-.121a16.237,16.237,0,0,0-.289,3.132,2.048,2.048,0,0,1,.7,1.159c.167.767.445.785.445.785l.3,2.2s.273.478.07.741" transform="translate(-167.013 -213.067)"/><path class="o" d="M206,240.516l.408,1.223.78.068-.037-.031-.39-1.816a.844.844,0,0,0-.617.353,1.547,1.547,0,0,1-.145.2Z" transform="translate(-177.519 -213.108)"/><path class="l" d="M173.87,230l.053.4,1.73.245s.141-.106.366-.251c-.183-.042-1.043-.229-1.494-.366-.167-.051-.276-.1-.28-.124s.011-.035.038-.057C174.027,229.947,173.87,230,173.87,230Z" transform="translate(-151.27 -204.848)"/><path class="o" d="M160.694,230.129a11.139,11.139,0,0,0,3.176,1.728,8.4,8.4,0,0,1,2.38,1.1l.732-2.823-.448-.309a1.563,1.563,0,0,1-1,.221c-.461-.11-.972-.183-.972-.183a7.514,7.514,0,0,0-1.243-.34c-.329-.027-.2-.456.134-.683a.717.717,0,0,1,.137-.077.425.425,0,0,0,.549.124,1.253,1.253,0,0,0,.322-.3h0a4.176,4.176,0,0,0,.366-.549s-1.023-.22-1.532-.377c-.167-.051-.276-.1-.28-.124-.015-.117.915-.487.915-.487s-.794-.384-1.117-.1c0,0,.209.156.04.309s-2.2,1.715-2.2,1.715S159.658,229.461,160.694,230.129Z" transform="translate(-140.122 -202.391)"/><path class="l" d="M172,232.727l1.085.156a.716.716,0,0,1,.137-.077.425.425,0,0,0,.549.124,1.254,1.254,0,0,0,.322-.3h0a4.29,4.29,0,0,0,.3-.463s-1.023-.22-1.532-.377Z" transform="translate(-149.742 -206.433)"/><path class="o" d="M172.34,232.239l1.155.167a.425.425,0,0,0,.549.124,2.671,2.671,0,0,0,.688-.853s-1.023-.22-1.532-.377Z" transform="translate(-150.02 -206.033)"/><path class="l" d="M281.244,330l-1.924,1.455s.871.45,1.682.972c.708-.48,1.376-.915,1.884-1.32A7.014,7.014,0,0,1,281.244,330Z" transform="translate(-237.418 -286.667)"/><path class="l" d="M232.116,367.251a6.519,6.519,0,0,0,1.409-.337s.355-.077.882-.253c-.016-.183-.027-.392-.029-.628a12.827,12.827,0,0,0-.264-2.013l-1.949.353-.051,2.18A1.453,1.453,0,0,0,232.116,367.251Z" transform="translate(-198.819 -314.46)"/><path class="o" d="M208.144,293.3c.392.58,1.464,3.048,1.464,3.048a10.492,10.492,0,0,0,.816,1.257,11.183,11.183,0,0,1,1.045,2.707c.324.965-.1.783-.049,1.281s1.878-.146,1.878-.146,3.743-.824,4.887-3.112,5.713-4.36,6.637-5.647-.262-.756-.216-1.453a1.972,1.972,0,0,0-.481-1.281,7.491,7.491,0,0,1-2-.826,12.042,12.042,0,0,0-1.657-1.186,9.214,9.214,0,0,1-1.464-.758,9.47,9.47,0,0,0-2.175-.915c-.47-.112-.932-.787-.932-.787s-.291.038-.721-.379a7.2,7.2,0,0,0-2.235-.776c-3.081,2.27-5.209,1.953-5.209,1.953l-.049.428C206.041,288.846,207.752,292.722,208.144,293.3Z" transform="translate(-178.321 -249.356)"/><path class="l" d="M210.79,286.757s2.663.877,5.261-2.367c-3.082,2.259-5.211,1.942-5.211,1.942Z" transform="translate(-181.432 -249.405)"/><path class="l" d="M235.83,305.588s3.577,5.164,3.8,5.352A54.683,54.683,0,0,0,235.83,305.588Z" transform="translate(-201.888 -266.722)"/><path class="l" d="M226.8,303.43s2.477,3.844,2.427,4.364C229.227,307.794,226.837,304.1,226.8,303.43Z" transform="translate(-194.511 -264.96)"/><path class="l" d="M217.891,309.2a5.939,5.939,0,0,1-.231,3.37Z" transform="translate(-187.044 -269.674)"/><path class="l" d="M212.658,309.88a10.007,10.007,0,0,1-.238,2.244Z" transform="translate(-182.764 -270.229)"/><path class="l" d="M196.46,213.7l3.289,1.289-1.2.157Z" transform="translate(-160.5 -175.71)"/><path class="l" d="M208.442,216.464c.165.11.3.284.5.309a.783.783,0,0,0,.4-.1,1.488,1.488,0,0,1,1.038-.141c.483.159.749.716,1.23.88a.877.877,0,0,0,.461.026.894.894,0,0,0,.26-.106.837.837,0,0,0,.366-.52,1.076,1.076,0,0,0-.366-1.014,2.246,2.246,0,0,0-1.023-.465,10.131,10.131,0,0,0-2.958-.068.431.431,0,0,0-.231.06,1.374,1.374,0,0,0-.353.864C207.841,216.439,208.414,216.256,208.442,216.464Z" transform="translate(-178.957 -192.874)"/><path class="d" d="M208.392,216.04c.165.108.3.284.5.309a.774.774,0,0,0,.4-.1,1.489,1.489,0,0,1,1.038-.141c.483.161.749.718,1.23.88a.86.86,0,0,0,.461.026.842.842,0,0,0,.26-.1.857.857,0,0,0,.377-.52,1.082,1.082,0,0,0-.375-1.016,2.253,2.253,0,0,0-1.023-.463,10.129,10.129,0,0,0-2.958-.07.435.435,0,0,0-.231.062,1.38,1.38,0,0,0-.353.864C207.792,216.022,208.365,215.828,208.392,216.04Z" transform="translate(-178.917 -192.526)"/><path class="m" d="M281,219.708l.315,1.272.408-.247,2.218-1.338s1.68-.062,1.81-1.413-1.867-.013-1.973.09-.348.284-.348.284l-2.065,1.153Z" transform="translate(-238.79 -194.663)"/><path class="l" d="M281,229.191l.315,1.272.408-.247a3.03,3.03,0,0,0-.366-1.226Z" transform="translate(-238.79 -204.146)"/><path class="l" d="M221.18,247.909l.452,2.654,2.676-.555c-.064-.2-.857-2.768-.284-3.4.6-.657.366-2.511.366-2.511s-1.038-1.193-1.248-1.483-1.558-.516-1.558-.516a1.082,1.082,0,0,1-.1-.379,1.522,1.522,0,0,0-.1.284,1.069,1.069,0,0,0,.714,1.06c.046.022.093.042.145.062.081.033.17.064.265.093l.044.013A1.506,1.506,0,0,1,223.6,244a1.975,1.975,0,0,1,.392,1.391C223.909,246.21,221.18,247.909,221.18,247.909Z" transform="translate(-189.92 -214.546)"/><path class="o" d="M222,237.407l.452,2.652,3.026-.63a5.452,5.452,0,0,0-.3-1.408,7.443,7.443,0,0,1-.168-1.993,2.117,2.117,0,0,0,.608-2.5s3.765-.611,3.829-.732a11.136,11.136,0,0,1,1.32-.791,7.064,7.064,0,0,0,1.549-.549,1.647,1.647,0,0,1,.223-.2.587.587,0,0,1,.073-.048l.1.869h.046a1.239,1.239,0,0,0,.593-.234c.311-.238-.082-2.846-.384-2.938a.348.348,0,0,0-.174,0,1.966,1.966,0,0,0-.65.351l-.053.042-.018.016a12.816,12.816,0,0,0-2.045.976,14.059,14.059,0,0,1-2.991.7s-1.188.282-1.342.112-1.968-.448-2.12-.183-.573.218-.573.218c-.3-.344-.505-.211-.632-.013a1.381,1.381,0,0,0-.161.383,1.118,1.118,0,0,0,.858,1.122c.1.037.2.073.309.106a1.5,1.5,0,0,1,1.049.772,1.971,1.971,0,0,1,.394,1.391C224.735,235.708,222,237.407,222,237.407Z" transform="translate(-190.59 -204.064)"/><path class="l" d="M277.879,229a.282.282,0,0,1,.1.011c.3.092.694,2.7.383,2.94a1.226,1.226,0,0,1-.529.229h-.046l-.1-.869a.59.59,0,0,0-.073.048v-.037a2.259,2.259,0,0,0-.43-1.931Z" transform="translate(-235.67 -204.151)"/><path class="o" d="M277.861,231.214l.1.869a1.218,1.218,0,0,0,.646-.247c.311-.238-.082-2.846-.384-2.938-.238-.073-.657.223-.824.35A2.262,2.262,0,0,1,277.861,231.214Z" transform="translate(-235.849 -204.062)"/><path class="o" d="M224.028,242.535l.434-.406-1.131-1.1a1.382,1.382,0,0,0-.161.383A1.122,1.122,0,0,0,224.028,242.535Z" transform="translate(-191.546 -213.982)"/><path class="l" d="M208.386,219.824c.165.108.3.284.5.309a.774.774,0,0,0,.4-.1,1.489,1.489,0,0,1,1.038-.141c.483.161.749.718,1.23.88a.86.86,0,0,0,.461.026.829.829,0,0,0,.657-.857.868.868,0,0,1,0,.388.849.849,0,0,1-.377.52.824.824,0,0,1-.26.1.853.853,0,0,1-.459-.026c-.483-.163-.749-.719-1.232-.88a1.5,1.5,0,0,0-1.038.141.774.774,0,0,1-.4.1c-.2-.026-.333-.2-.5-.309-.027-.212-.6-.018-.672-.273a.3.3,0,0,1,0-.117C207.848,219.786,208.359,219.625,208.386,219.824Z" transform="translate(-178.931 -196.466)"/><path class="l" d="M218.933,253.6s-.24.674.066.9c0,0-.335-.891-.529-.871" transform="translate(-187.706 -224.251)"/><path class="m" d="M298.726,217.76s-1.547,1.338-.428,1.554S298.726,217.76,298.726,217.76Z" transform="translate(-252.59 -194.971)"/><g class="i" transform="translate(79.257 28.538)"><path d="M554.5,420.25h-48.14v42.638c0,9.749-7.459,16.474-16.587,16.474a18.327,18.327,0,0,1-6.374-1.118,17.854,17.854,0,0,0,8.753,2.217c9.128,0,16.587-6.721,16.587-16.474V421.348H554.5Z" transform="translate(-483.4 -388.935)"/><path d="M558.42,224.672h2.38V213.138h45.764v-1.1H558.42Z" transform="translate(-535.463 -202.892)"/><path d="M825.351,249.17v73.949c0,9.749-7.459,16.474-16.587,16.474a18.329,18.329,0,0,1-6.374-1.118,17.855,17.855,0,0,0,8.753,2.217c9.128,0,16.587-6.721,16.587-16.474V249.17Z" transform="translate(-744.001 -249.17)"/></g><path class="k" d="M627.813,126.918c1.181,2.44,3.112,5.215,5.3,4.155s3.815-5.555,2.634-8a4.432,4.432,0,1,0-7.929,3.844Z" transform="translate(-521.679 -115.251)"/><path class="k" d="M650.766,180.959s.426-.071.264-.423a.657.657,0,0,0-.051-.09,1.129,1.129,0,0,1-.163-.454,1.648,1.648,0,0,1,.02-.566l-1.162-.077s.452.384.4.586a.115.115,0,0,1-.053.07.184.184,0,0,1-.077.033l-.088.026c-.306.108-.183.262-.183.262C649.712,180.827,650.766,180.959,650.766,180.959Z" transform="translate(-539.96 -163.592)"/><path class="o" d="M651.68,182.62l.82.113a1.031,1.031,0,0,1-.024-.126c-.209-.009-.536-.037-.743-.057a.115.115,0,0,1-.053.07Z" transform="translate(-541.62 -166.206)"/><path class="k" d="M650.766,184.145s.426-.071.264-.423a1.318,1.318,0,0,1-.5.02,1.115,1.115,0,0,1-.672-.492c-.306.108-.183.262-.183.262C649.712,184.013,650.766,184.145,650.766,184.145Z" transform="translate(-539.96 -166.778)"/><path class="l" d="M650.766,184.145s.426-.071.264-.423a1.318,1.318,0,0,1-.5.02,1.115,1.115,0,0,1-.672-.492c-.306.108-.183.262-.183.262C649.712,184.013,650.766,184.145,650.766,184.145Z" transform="translate(-539.96 -166.778)"/><path class="q" d="M652.37,123.72s1.3-.157,1.667.708a1.045,1.045,0,0,0-.467.027.662.662,0,0,1-.3.059,1.743,1.743,0,0,0-.9-.794Z" transform="translate(-542.184 -118.135)"/><path class="k" d="M657.764,212.912a.461.461,0,0,0,.073-.073.989.989,0,0,1,.278-.22.977.977,0,0,1,.115-.059,1.7,1.7,0,0,1,.366-.11,1.462,1.462,0,0,1,.183-.02l-.165-.787v-.011l-.071-.342a2.482,2.482,0,0,1-.165.287c-.084.128-.183.251-.293.253A.13.13,0,0,1,658,211.8a.251.251,0,0,1-.051-.066c-.018-.029-.033-.055-.049-.079-.183-.264-.3-.1-.3-.1-.209.075-.295.324-.326.575a.357.357,0,0,1-.011.108,2.877,2.877,0,0,0,.018.533S657.475,213.164,657.764,212.912Z" transform="translate(-546.181 -189.686)"/><path class="o" d="M661.542,214.89a.978.978,0,0,1,.115-.059c-.04-.17-.09-.426-.124-.628v-.042a.125.125,0,0,0-.011-.06.13.13,0,0,1-.082-.031l.018.123v.049Z" transform="translate(-549.594 -191.957)"/><path class="k" d="M657.764,213.869a1.318,1.318,0,0,1-.154-.48,1.039,1.039,0,0,1,.035-.3c.009-.029.016-.059.027-.086a.891.891,0,0,1,.231-.388c-.183-.264-.3-.1-.3-.1-.209.075-.295.324-.326.575a.355.355,0,0,1-.011.108,2.872,2.872,0,0,0,.018.533S657.475,214.122,657.764,213.869Z" transform="translate(-546.182 -190.643)"/><path class="l" d="M657.764,213.869a1.318,1.318,0,0,1-.154-.48,1.039,1.039,0,0,1,.035-.3c.009-.029.016-.059.027-.086a.891.891,0,0,1,.231-.388c-.183-.264-.3-.1-.3-.1-.209.075-.295.324-.326.575a.355.355,0,0,1-.011.108,2.872,2.872,0,0,0,.018.533S657.475,214.122,657.764,213.869Z" transform="translate(-546.182 -190.643)"/><path class="k" d="M606.089,142.1a13.411,13.411,0,0,0,3.212,1.576,3.949,3.949,0,0,0,2.3.121,2.107,2.107,0,0,0,.78-.45,2.224,2.224,0,0,0,.394-.469c.774-1.21.76-3.337.146-5.178a5.693,5.693,0,0,0-2.074-3.017,4.431,4.431,0,1,0-4.757,7.417Z" transform="translate(-502.423 -126.41)"/><path class="l" d="M606.089,142.1a13.411,13.411,0,0,0,3.212,1.576,3.949,3.949,0,0,0,2.3.121,2.107,2.107,0,0,0,.78-.45,2.224,2.224,0,0,0,.394-.469c.774-1.21.76-3.337.146-5.178a5.693,5.693,0,0,0-2.074-3.017,4.431,4.431,0,1,0-4.757,7.417Z" transform="translate(-502.423 -126.41)"/><path class="k" d="M645.59,186.291c.291.406,1.256-.029,1.256-.029s.328-.282,0-.5a.778.778,0,0,0-.09-.051,1.021,1.021,0,0,1-.291-.207c-.029-.029-.059-.06-.086-.093a1.714,1.714,0,0,1-.205-.324,1.345,1.345,0,0,1-.071-.17l-1.032.549a2.34,2.34,0,0,1,.324.079c.148.048.295.117.322.212a.116.116,0,0,1,0,.088.219.219,0,0,1-.049.068.906.906,0,0,0-.06.068C645.4,186.227,645.59,186.291,645.59,186.291Z" transform="translate(-536.22 -168.142)"/><path class="o" d="M648.58,188.1l.756-.333c-.029-.029-.059-.06-.086-.093-.183.1-.474.247-.663.339A.115.115,0,0,1,648.58,188.1Z" transform="translate(-539.088 -170.389)"/><path class="k" d="M647.541,190.065c.291.406,1.256-.029,1.256-.029s.328-.282,0-.5a1.264,1.264,0,0,1-.419.278,1.115,1.115,0,0,1-.827-.068C647.348,190,647.541,190.065,647.541,190.065Z" transform="translate(-538.171 -171.917)"/><path class="l" d="M647.541,190.065c.291.406,1.256-.029,1.256-.029s.328-.282,0-.5a1.264,1.264,0,0,1-.419.278,1.115,1.115,0,0,1-.827-.068C647.348,190,647.541,190.065,647.541,190.065Z" transform="translate(-538.171 -171.917)"/><path class="q" d="M618.28,137.093s1.027-.811,1.792-.265a1.054,1.054,0,0,0-.383.267.665.665,0,0,1-.231.209A1.745,1.745,0,0,0,618.28,137.093Z" transform="translate(-514.334 -128.699)"/><g class="i" transform="translate(113.455 15.793)"><path d="M676.763,180.68l-.238-1.14a2.191,2.191,0,0,1-.165.287,2.061,2.061,0,0,0,.22.875A1.284,1.284,0,0,1,676.763,180.68Z" transform="translate(-675.238 -179.54)"/><path d="M670.739,181.164a.551.551,0,0,0,.073-.073,1.024,1.024,0,0,1,.278-.221.976.976,0,0,1,.115-.059,1.57,1.57,0,0,1,.366-.108,1.28,1.28,0,0,1,.183-.022l-.238-1.14a2.19,2.19,0,0,1-.165.287c-.084.128-.192.253-.293.254a.134.134,0,0,1-.081-.033.225.225,0,0,1-.057-.059c-.016-.029-.033-.055-.048-.079-.183-.264-.3-.1-.3-.1-.47.17-.318,1.215-.318,1.215S670.444,181.414,670.739,181.164Z" transform="translate(-670.232 -179.54)"/><path d="M674.43,183.124a.971.971,0,0,1,.115-.059c-.048-.2-.106-.523-.145-.732a.134.134,0,0,1-.081-.033Z" transform="translate(-673.572 -181.795)"/><path d="M670.763,182.125a1.34,1.34,0,0,1-.154-.481,1.124,1.124,0,0,1,.295-.778c-.183-.264-.3-.1-.3-.1-.47.17-.318,1.215-.318,1.215S670.469,182.375,670.763,182.125Z" transform="translate(-670.257 -180.501)"/><path class="l" d="M670.763,182.125a1.34,1.34,0,0,1-.154-.481,1.124,1.124,0,0,1,.295-.778c-.183-.264-.3-.1-.3-.1-.47.17-.318,1.215-.318,1.215S670.469,182.375,670.763,182.125Z" transform="translate(-670.257 -180.501)"/></g><path class="k" d="M669.935,179.932a.458.458,0,0,0,.073-.073,1.026,1.026,0,0,1,.278-.22.978.978,0,0,1,.115-.059,1.568,1.568,0,0,1,.366-.108,1.282,1.282,0,0,1,.183-.022l-.238-1.14a2.333,2.333,0,0,1-.165.287c-.084.128-.183.253-.293.253a.121.121,0,0,1-.081-.031.253.253,0,0,1-.053-.066c-.016-.029-.033-.055-.048-.079-.183-.264-.3-.1-.3-.1-.47.172-.318,1.217-.318,1.217S669.641,180.184,669.935,179.932Z" transform="translate(-556.123 -162.742)"/><path class="o" d="M673.61,181.9a.981.981,0,0,1,.115-.059c-.048-.2-.106-.523-.145-.732a.121.121,0,0,1-.081-.031Z" transform="translate(-559.446 -165.005)"/><path class="k" d="M669.984,180.889a1.318,1.318,0,0,1-.154-.48,1.124,1.124,0,0,1,.3-.778c-.183-.264-.3-.1-.3-.1-.47.172-.318,1.217-.318,1.217S669.689,181.142,669.984,180.889Z" transform="translate(-556.172 -163.7)"/><path class="l" d="M669.984,180.889a1.318,1.318,0,0,1-.154-.48,1.124,1.124,0,0,1,.3-.778c-.183-.264-.3-.1-.3-.1-.47.172-.318,1.217-.318,1.217S669.689,181.142,669.984,180.889Z" transform="translate(-556.172 -163.7)"/><g class="i" transform="translate(112.394 13.565)"><path d="M666.346,167.668a2.088,2.088,0,0,0,.846.313,1.52,1.52,0,0,1,.084-.165l-1.076-.447A2.195,2.195,0,0,1,666.346,167.668Z" transform="translate(-665.877 -167.37)"/><path d="M665.283,169.264s.426.071.386-.315a.6.6,0,0,0-.02-.1,1.011,1.011,0,0,1-.026-.353.985.985,0,0,1,.018-.128,1.761,1.761,0,0,1,.2-.529l-1.076-.447a2.21,2.21,0,0,1,.15.295c.059.143.1.3.044.384a.126.126,0,0,1-.073.049.194.194,0,0,1-.082,0h-.093c-.322,0-.249.183-.249.183C664.329,168.8,665.283,169.264,665.283,169.264Z" transform="translate(-664.447 -167.386)"/><path d="M666.8,171.145l.732.366a.975.975,0,0,1,.018-.128c-.194-.075-.494-.209-.685-.293A.126.126,0,0,1,666.8,171.145Z" transform="translate(-666.367 -170.409)"/><path d="M665.269,172.54s.426.071.386-.315a1.318,1.318,0,0,1-.483-.143,1.127,1.127,0,0,1-.478-.683c-.322,0-.249.183-.249.183C664.316,172.077,665.269,172.54,665.269,172.54Z" transform="translate(-664.434 -170.662)"/><path class="l" d="M665.269,172.54s.426.071.386-.315a1.318,1.318,0,0,1-.483-.143,1.127,1.127,0,0,1-.478-.683c-.322,0-.249.183-.249.183C664.316,172.077,665.269,172.54,665.269,172.54Z" transform="translate(-664.434 -170.662)"/></g><path class="k" d="M664.842,168.626s.427.071.386-.313a.563.563,0,0,0-.02-.1,1.022,1.022,0,0,1-.026-.355.958.958,0,0,1,.018-.126,1.5,1.5,0,0,1,.117-.366,1.522,1.522,0,0,1,.084-.165l-1.076-.448a2.2,2.2,0,0,1,.146.3c.059.145.1.3.044.386a.132.132,0,0,1-.073.048.225.225,0,0,1-.082,0h-.093c-.322,0-.249.183-.249.183C663.892,168.165,664.842,168.626,664.842,168.626Z" transform="translate(-551.691 -153.298)"/><path class="o" d="M666.39,170.533l.732.366a.958.958,0,0,1,.018-.126c-.194-.075-.494-.209-.685-.293A.132.132,0,0,1,666.39,170.533Z" transform="translate(-553.638 -156.345)"/><path class="k" d="M664.842,171.919s.426.071.386-.313a1.361,1.361,0,0,1-.483-.145,1.124,1.124,0,0,1-.478-.681c-.322,0-.249.183-.249.183C663.892,171.457,664.842,171.919,664.842,171.919Z" transform="translate(-551.691 -156.591)"/><path class="l" d="M664.842,171.919s.426.071.386-.313a1.361,1.361,0,0,1-.483-.145,1.124,1.124,0,0,1-.478-.681c-.322,0-.249.183-.249.183C663.892,171.457,664.842,171.919,664.842,171.919Z" transform="translate(-551.691 -156.591)"/><path class="k" d="M644.493,196.808a2.267,2.267,0,0,1,.167-.286c.088-.128.2-.251.295-.251a.115.115,0,0,1,.082.033.237.237,0,0,1,.051.064c.016.031.033.057.048.081.183.267.3.1.3.1.472-.165.33-1.214.33-1.214s-.183-.394-.476-.145a.674.674,0,0,0-.075.071,1.17,1.17,0,0,1-.4.276,1.648,1.648,0,0,1-.366.1,1.165,1.165,0,0,1-.183.02Z" transform="translate(-535.567 -176.466)"/><path class="o" d="M647.4,197.939a.115.115,0,0,1,.082.033l-.1-.822a.962.962,0,0,1-.115.057C647.308,197.408,647.363,197.732,647.4,197.939Z" transform="translate(-538.009 -178.134)"/><path class="k" d="M649,196.449c.183.267.3.1.3.1.472-.165.329-1.214.329-1.214s-.183-.394-.476-.145a1.28,1.28,0,0,1,.146.481,1.109,1.109,0,0,1-.3.776Z" transform="translate(-539.431 -176.466)"/><path class="l" d="M649,196.449c.183.267.3.1.3.1.472-.165.329-1.214.329-1.214s-.183-.394-.476-.145a1.28,1.28,0,0,1,.146.481,1.109,1.109,0,0,1-.3.776Z" transform="translate(-539.431 -176.466)"/><path class="l" d="M636.106,193.652a3.579,3.579,0,0,0,.549-1.83c.088-.128.2-.251.295-.251a.116.116,0,0,1,.082.033.237.237,0,0,1,.051.064c.017.031.033.057.048.081.183.267.3.1.3.1.472-.165.33-1.214.33-1.214s-.183-.394-.476-.145a.677.677,0,0,0-.075.071,1.168,1.168,0,0,1-.4.276,1.647,1.647,0,0,1-.366.1,2.461,2.461,0,0,0-.339-.509,4.175,4.175,0,0,0-1.629-1.074A8.588,8.588,0,0,0,636.106,193.652Z" transform="translate(-527.569 -171.77)"/><path class="l" d="M657.39,166.454a3.178,3.178,0,0,0,.394-.088,3.451,3.451,0,0,0,.35-.121l.075-.031c.1-.042.2-.088.295-.139s.148-.077.223-.119a8.3,8.3,0,0,0,3.35-4.06,5.33,5.33,0,0,0,.328-1.395,3.762,3.762,0,0,0-.011-.76,5.364,5.364,0,0,0-.681-2.052c-.04-.068-.079-.132-.121-.194A4.373,4.373,0,0,0,657.5,155.4a4.454,4.454,0,0,0,1.572,2.358c.059.145.1.3.044.386a.132.132,0,0,1-.073.048.225.225,0,0,1-.082,0h-.093c-.322,0-.249.183-.249.183-.126.485.824.948.824.948s.427.071.386-.313a.558.558,0,0,0-.02-.1,1.026,1.026,0,0,1-.026-.355.959.959,0,0,1,.018-.126,1.5,1.5,0,0,1,.117-.366,2.352,2.352,0,0,0,.611,0,3.247,3.247,0,0,0,.835-.227c-.038.06-.073.121-.106.183a3.591,3.591,0,0,0-.549,1.83c-.084.128-.183.253-.293.253a.121.121,0,0,1-.08-.031.25.25,0,0,1-.053-.066c-.016-.029-.033-.055-.048-.079-.183-.264-.3-.1-.3-.1-.47.172-.318,1.217-.318,1.217s.183.392.478.139a.46.46,0,0,0,.073-.073,1.024,1.024,0,0,1,.278-.22.984.984,0,0,1,.115-.059,1.568,1.568,0,0,1,.366-.108,2.333,2.333,0,0,0,.342.507l.073.079-.026.024a14.454,14.454,0,0,0-1.624,1.728,6.46,6.46,0,0,0-.417.582q-.135.207-.253.412a3.6,3.6,0,0,0-.538,1.83c-.084.128-.183.251-.293.253a.13.13,0,0,1-.082-.031.251.251,0,0,1-.051-.066c-.018-.029-.033-.055-.049-.079-.183-.264-.3-.1-.3-.1A.691.691,0,0,0,657.39,166.454Z" transform="translate(-546.285 -144.01)"/><g class="i" transform="translate(106.756 11.301)"><path d="M666.133,161.212a.659.659,0,0,0,.307.042,1.067,1.067,0,0,1,.45.124c-.07-.937-1.351-1.208-1.351-1.208A1.739,1.739,0,0,1,666.133,161.212Z" transform="translate(-659.7 -159.224)"/><path d="M633.675,160.4c.024.183.049.383.081.577a3.949,3.949,0,0,0,2.3.121c.148.048.295.117.322.212a.116.116,0,0,1,0,.088.221.221,0,0,1-.049.068.9.9,0,0,0-.06.068c-.205.251-.013.315-.013.315.291.406,1.256-.029,1.256-.029s.328-.282,0-.5a.789.789,0,0,0-.09-.051,1.021,1.021,0,0,1-.291-.207c-.029-.029-.059-.06-.086-.093a1.713,1.713,0,0,1-.2-.324,2.225,2.225,0,0,0,.394-.469c.774-1.21.76-3.337.146-5.178A4.692,4.692,0,0,0,633.675,160.4Z" transform="translate(-633.634 -155)"/><path d="M645.33,212.287a2.087,2.087,0,0,0,.844.317,1.344,1.344,0,0,1,.086-.165L645.18,212A2.537,2.537,0,0,1,645.33,212.287Z" transform="translate(-643.066 -201.567)"/><path d="M644.265,213.865s.428.073.386-.313a.546.546,0,0,0-.018-.1,1.026,1.026,0,0,1-.026-.355.916.916,0,0,1,.016-.126,1.652,1.652,0,0,1,.117-.366,1.323,1.323,0,0,1,.086-.165L643.749,212a2.541,2.541,0,0,1,.146.3c.057.145.1.3.042.386a.121.121,0,0,1-.071.049.242.242,0,0,1-.084,0,.825.825,0,0,0-.092,0c-.324,0-.251.183-.251.183C643.315,213.4,644.265,213.865,644.265,213.865Z" transform="translate(-641.636 -201.567)"/><path d="M645.82,215.763l.732.366a.478.478,0,0,1,.016-.126c-.192-.075-.494-.209-.685-.293A.123.123,0,0,1,645.82,215.763Z" transform="translate(-643.589 -204.597)"/><path d="M644.264,217.109s.427.071.386-.315a1.3,1.3,0,0,1-.483-.143,1.116,1.116,0,0,1-.478-.681c-.324,0-.251.183-.251.183C643.312,216.647,644.264,217.109,644.264,217.109Z" transform="translate(-641.634 -204.81)"/><path class="l" d="M644.264,217.109s.427.071.386-.315a1.3,1.3,0,0,1-.483-.143,1.116,1.116,0,0,1-.478-.681c-.324,0-.251.183-.251.183C643.312,216.647,644.264,217.109,644.264,217.109Z" transform="translate(-641.634 -204.81)"/><path class="l" d="M666.133,161.212a.659.659,0,0,0,.307.042,1.067,1.067,0,0,1,.45.124c-.07-.937-1.351-1.208-1.351-1.208A1.739,1.739,0,0,1,666.133,161.212Z" transform="translate(-659.7 -159.224)"/></g><path class="k" d="M635.113,161.043c.331,2.691,1.259,5.938,3.674,5.64s5.4-4.027,5.072-6.719a4.432,4.432,0,1,0-8.746,1.08Z" transform="translate(-528.052 -144.193)"/><path class="k" d="M645.682,214.634s.426.073.386-.313a.811.811,0,0,0-.018-.1.984.984,0,0,1-.027-.355.736.736,0,0,1,.018-.126,1.644,1.644,0,0,1,.2-.529l-1.076-.448s.3.511.183.685a.126.126,0,0,1-.073.049.28.28,0,0,1-.082,0H645.1c-.324,0-.251.183-.251.183C644.732,214.175,645.682,214.634,645.682,214.634Z" transform="translate(-536.034 -190.886)"/><path class="o" d="M647.25,216.543l.732.366a.724.724,0,0,1,.018-.126c-.194-.075-.494-.209-.685-.293A.126.126,0,0,1,647.25,216.543Z" transform="translate(-538.001 -193.934)"/><path class="k" d="M645.7,217.919s.426.073.386-.313a1.282,1.282,0,0,1-.483-.145,1.11,1.11,0,0,1-.476-.681c-.324,0-.251.183-.251.183C644.752,217.459,645.7,217.919,645.7,217.919Z" transform="translate(-536.054 -194.171)"/><path class="l" d="M645.7,217.919s.426.073.386-.313a1.282,1.282,0,0,1-.483-.145,1.11,1.11,0,0,1-.476-.681c-.324,0-.251.183-.251.183C644.752,217.459,645.7,217.919,645.7,217.919Z" transform="translate(-536.054 -194.171)"/><path class="q" d="M667,161s1.281.271,1.351,1.208a1.05,1.05,0,0,0-.452-.123.667.667,0,0,1-.306-.044A1.752,1.752,0,0,0,667,161Z" transform="translate(-554.136 -148.601)"/><path class="r" d="M644.133,218.1a.78.78,0,0,1,.694.959c-.161.54-.824.71-1.256,1.071a2.2,2.2,0,0,0-.692,1.5,3.675,3.675,0,0,0,1.056,2.907c.388.383.857.675,1.239,1.063a6.328,6.328,0,0,1,1.071,1.633,3.824,3.824,0,0,1,.474,1.373,3.236,3.236,0,0,1-.787,2.127,14.56,14.56,0,0,0-1.376,1.863,3.915,3.915,0,0,0-.225,3.07.4.4,0,0,0,.13.205.145.145,0,0,0,.212-.046" transform="translate(-534.42 -195.249)"/><path class="r" d="M645.5,217.36a.366.366,0,0,1,.016.465.566.566,0,0,1-.447.207c-.207,0-.437-.064-.608.057a.525.525,0,0,0-.183.4,2.025,2.025,0,0,1-.046.448.894.894,0,0,1-.2.322.99.99,0,0,1-.366.267c-.306.119-.659.011-.972.11a1.364,1.364,0,0,0-.758.988,2.846,2.846,0,0,0-.09,1.534,5.307,5.307,0,0,0,.415.941,2.129,2.129,0,0,1,.271.981.9.9,0,0,1-.516.824" transform="translate(-533.534 -194.644)"/><path class="r" d="M553.064,276.943c-.492.655-.679,1.7-1.484,1.862a1.845,1.845,0,0,1-1.2-.337,8.55,8.55,0,0,0-2.746-1.129,2.967,2.967,0,0,0-2.727.822c-.441.516-.622,1.208-1.01,1.765a3.621,3.621,0,0,1-2.05,1.347,8.388,8.388,0,0,1-2.486.212,1.351,1.351,0,0,1-.877-.238,2.134,2.134,0,0,1-.366-.558,2.442,2.442,0,0,0-1.957-1.082,5.144,5.144,0,0,0-2.255.478,2.4,2.4,0,0,1-1.124.284,2.06,2.06,0,0,1-1.292-.924,18.3,18.3,0,0,1-2.22-3.613" transform="translate(-441.617 -242.412)"/><path class="s" d="M497.871,332.945c.2-.712.324-1.338.324-1.338a2.8,2.8,0,0,1,.366-1.356l.009-.2h0l.055-1.444a4.861,4.861,0,0,0-.335-.771,5.635,5.635,0,0,1,.082-2.118,9.35,9.35,0,0,0,.877-3.8c-.178-1.5,2.233-6.531,2.233-6.531a6.476,6.476,0,0,0-.152-1.464,1.246,1.246,0,0,1-.016-.307v-.026a11.433,11.433,0,0,1,.915-2.79l.031-3.507a10.31,10.31,0,0,1,.5-4.831c.318-.957.529-1.724.666-2.317.016-.068.031-.132.044-.194-1.647-.318-2.914-.578-2.914-.578s1.118-4,1.8-4.677a9.27,9.27,0,0,0,1.281-2.881s.448-2.835-.068-3.688a5.5,5.5,0,0,1-.531-2.3s-1.215-.956-1.356-1.366a6.685,6.685,0,0,1-.348-1.807c.018-.48.183-.9.148-1.155s.412-1.2.22-1.658a1.28,1.28,0,0,1-.066-.441v-.013a6.133,6.133,0,0,1,.156-1.179,3.338,3.338,0,0,1,1.263-.613l.031-.108.081-.28c.044-.027.086-.049.126-.07v-.1l.027-.41-.161-.928c-.322-1.614,1.83-1.772,1.83-1.772a1.124,1.124,0,0,1,.626-.507c.436-.135-.022,2.411-.229,2.563a9.942,9.942,0,0,0-.893,1.281h0l-.04.064a.892.892,0,0,1,.1.106l-.1.549-.016.084a2.311,2.311,0,0,1,.318.595,1.24,1.24,0,0,0-.348.9,2.83,2.83,0,0,1-.172,1.1c.024-.024.311-.311.582-.229s1.031.342,1.031.342.569.124.512.247.366.7.366.7l1.6-1.376c.016-.044.035-.086.049-.132a3.6,3.6,0,0,0,.159-.633,3.51,3.51,0,0,1-.487-.183,1.058,1.058,0,0,1-.416-.289,1.647,1.647,0,0,1-.221-.674,9.5,9.5,0,0,0-.523-1.3,4.153,4.153,0,0,1-.22-2.3,1.512,1.512,0,0,1,.264-.661c.264-.337.732-.459,1.067-.721s.573-.677.966-.869a1.846,1.846,0,0,1,1.173-.055,6.278,6.278,0,0,1,2.153.877,1.111,1.111,0,0,0,.719.267.969.969,0,0,0,.549-.366v-.02l.016-.02a2.717,2.717,0,0,1,.2,1.162.772.772,0,0,1-.015.183v.064a.266.266,0,0,0,0,.053h0a.321.321,0,0,0,0,.082.592.592,0,0,0,.135.214,1.094,1.094,0,0,1,.119.183.211.211,0,0,0-.018-.064.915.915,0,0,1,.141.492.491.491,0,0,1-.128.342,1.589,1.589,0,0,1-.26.192,2.929,2.929,0,0,1-1.523,3c-.018.042-.038.086-.057.13a3.68,3.68,0,0,0-.344,1.669.358.358,0,0,0,.015.123.8.8,0,0,1,.051.066h0s2.541.123,3.161-.4,1.464,1.384,1.464,1.384.906.21,1.1.042,1.252.022,1.252.022a2.293,2.293,0,0,1,1.611-.518,4.706,4.706,0,0,1,1.192-.6h.029a1.316,1.316,0,0,1,.575-.051,11.719,11.719,0,0,0,1.677-1.525c.386-.54,2.2-2.533,2.211-2.541l.009-.1.031-.3a1.113,1.113,0,0,0,.156.02c.011-.029.024-.064.04-.1a5.454,5.454,0,0,1,.4-.833s.015-.379-.093-.478a6.415,6.415,0,0,1,.1-1.481s1.226-2.59,2.162-.586c0,0,1.858,1.347.2,2.768,0,0-.65.284-.75.525-.066.157-.3.595-.456.884-.027.048-.051.092-.071.13l.018.016-.033.245-.015.1c.3.183.494.366.439.489a2.813,2.813,0,0,0-.209.674s-2.321,2.687-2.654,3.862c0,0-6.075,3.295-8.037,3.478l.271,1.777s.062,1.063.022,1.441.154,2.1.154,2.1a13.977,13.977,0,0,0,.514,2.9,4.844,4.844,0,0,1,.163,1.874,12.644,12.644,0,0,0,.309,2.158,5.523,5.523,0,0,1,0,2.147s.9,2.308-1.408.677c0,0-1.162-.117-2.5-.214v.135c0,.172,0,.366-.015.549-.031,1.3-.093,3.093-.2,4.446-.2,2.391-1.109,7.1-1.109,7.1l-.092,2.38a3.1,3.1,0,0,1,.042.683,4.423,4.423,0,0,1-.732,2.359l-.28,1.572a6.224,6.224,0,0,0-.5,1.647.788.788,0,0,0,.013.152,1.114,1.114,0,0,1,.011.245,13.435,13.435,0,0,1-.5,2.431s-.093,1.739-.366,1.83c-.225.079.26,1.014.4,1.281a.481.481,0,0,0,.011-.049l.031.055a1.231,1.231,0,0,1,.064.443.633.633,0,0,1-.313.6c-.507.282-.782.525-.366.641.159.046.329.062.456.115,0-.02.016-.04.024-.059a.278.278,0,0,1,.159.313,1.282,1.282,0,0,1-.183.584,6.248,6.248,0,0,1-.754,1.257l-.2-.029a.975.975,0,0,0,.108.22.847.847,0,0,0,.284.273.915.915,0,0,0,.351.135,1,1,0,0,1,.732.388.768.768,0,0,1-.137,1.192l-1.887.571s-3.222.293-3.024-.419.326-1.338.326-1.338a2.844,2.844,0,0,1,.319-1.252,1.317,1.317,0,0,1,.121-.183l-.114-.018a5.864,5.864,0,0,0-.474-1.911c-.07-.073-.084-.128-.064-.168-.029-.088.053-.135.159-.159a.275.275,0,0,0,.02.062,1.667,1.667,0,0,1,.313-.022s.137-.827-.183-1.144a.32.32,0,0,1-.057-.249,1.356,1.356,0,0,1,.049-.339l.011.02a12.259,12.259,0,0,1,.822-1.926,2.376,2.376,0,0,0-.141-1.065,26.66,26.66,0,0,1,.183-4.109,13.007,13.007,0,0,1,.26-2.693,3.078,3.078,0,0,0-.216-1.876v-.055a.037.037,0,0,0,0-.013l.042-.289v.018c.071-.485.205-1.364.293-1.77.126-.575.1-3.353.1-3.353l-.425-1.2-.915,2.013-.985,2.678a2.327,2.327,0,0,0-.494,1.14v.086a1.5,1.5,0,0,1,0,.183,1.618,1.618,0,0,1-.307.961,4.2,4.2,0,0,1-.661,1.591,1.444,1.444,0,0,0-.4.943,16.858,16.858,0,0,1-.732,2.169,3.325,3.325,0,0,0-.232,1.261h0v.068s-.088.664-.106,1.226v.185a2.037,2.037,0,0,0,.037.456v-.068a4.735,4.735,0,0,1,.09,1.168,2.985,2.985,0,0,1-.571,1.911c-.732.78-1.173.663-1.173.663s.3,1.021.708,1.239a.181.181,0,0,1,.044.029.1.1,0,0,1,.013-.059.492.492,0,0,1,.108.381,2.686,2.686,0,0,1-.575,1.475.825.825,0,0,1-.366.192l.064.044c.051.029.1.053.141.073a.67.67,0,0,0,.21.062.994.994,0,0,1,.732.388.767.767,0,0,1-.135,1.192l-1.889.571S497.673,333.657,497.871,332.945Z" transform="translate(-415.958 -239.564)"/><path class="t" d="M551.428,596.487l1.83-.573a.789.789,0,0,0,.134-1.193.955.955,0,0,0-.7-.386.867.867,0,0,1-.34-.135.814.814,0,0,1-.275-.273,1.331,1.331,0,0,1-.183-.7s-1.958-.655-2.522-.1a1.494,1.494,0,0,0-.253.342,2.93,2.93,0,0,0-.3,1.267s-.125.624-.315,1.338S551.428,596.487,551.428,596.487Z" transform="translate(-457.322 -501.444)"/><path class="t" d="M503.365,589.818l1.83-.573a.787.787,0,0,0,.134-1.192.948.948,0,0,0-.7-.386.716.716,0,0,1-.2-.064.915.915,0,0,1-.135-.073,1.144,1.144,0,0,1-.465-.968s-1.957-.655-2.521-.1a1.447,1.447,0,0,0-.2.251,2.861,2.861,0,0,0-.355,1.358s-.126.626-.317,1.338S503.365,589.818,503.365,589.818Z" transform="translate(-418.051 -496.003)"/><path class="l" d="M552.163,593.123a1.491,1.491,0,0,0-.253.342h0l2.954.458a1.331,1.331,0,0,1-.183-.7S552.726,592.565,552.163,593.123Z" transform="translate(-460.112 -501.443)"/><path class="l" d="M504.082,586.706l-.022.549c.432.78,2.671.7,3.333.342a.906.906,0,0,1-.135-.073,1.133,1.133,0,0,1-.463-.963s-1.957-.655-2.52-.1A1.444,1.444,0,0,0,504.082,586.706Z" transform="translate(-421.021 -496.003)"/><path class="d" d="M502.372,444.778a4.872,4.872,0,0,1,.324.771l-.077,1.992c.472.851,3.112.675,3.478.234s.794-1.611.4-1.83-.685-1.239-.685-1.239.425.117,1.137-.663.578-2.579.469-3.013a8.917,8.917,0,0,1,.073-1.865,3.733,3.733,0,0,1,.227-1.329,16.578,16.578,0,0,0,.716-2.171,1.485,1.485,0,0,1,.39-.945,4.305,4.305,0,0,0,.641-1.591,1.648,1.648,0,0,0,.295-1.074,2.2,2.2,0,0,1,.48-1.294l.961-2.691.886-2.013.4,1.217s.018,2.779-.1,3.355-.333,2.109-.333,2.109a3.111,3.111,0,0,1,.2,1.876A12.865,12.865,0,0,0,512,437.3a28.638,28.638,0,0,0-.183,4.109,2.583,2.583,0,0,1,.135,1.065s-1.12,2.18-.8,2.495.183,1.144.183,1.144-.7-.027-.414.287a6.1,6.1,0,0,1,.47,1.9l3.035.47a6.372,6.372,0,0,0,.732-1.259c.439-.915-.042-.836-.445-.952s-.135-.366.355-.642.24-.976.24-.976-.685-1.265-.428-1.356.35-1.83.35-1.83a11.3,11.3,0,0,0,.478-2.608,5.067,5.067,0,0,1,.476-1.876l.238-1.582a4.365,4.365,0,0,0,.67-2.978l.1-2.445s.888-4.713,1.082-7.106c.123-1.53.183-3.626.214-4.933.016-.732.022-1.219.022-1.219l-10.849-1.554a8.887,8.887,0,0,1-.26,1.611c-.134.595-.339,1.362-.648,2.319a10.624,10.624,0,0,0-.489,4.83l-.035,3.507s-1.049,2.308-.879,3.123a6.656,6.656,0,0,1,.146,1.464s-2.341,5.036-2.171,6.531a9.617,9.617,0,0,1-.853,3.805A5.847,5.847,0,0,0,502.372,444.778Z" transform="translate(-419.573 -356.484)"/><path class="h" d="M524.835,502.639l-3.295-.569S523.341,504.058,524.835,502.639Z" transform="translate(-435.301 -427.241)"/><path class="l" d="M523.8,484.47s-.159,1.168.549,1.636C524.343,486.106,523.065,485.848,523.8,484.47Z" transform="translate(-436.962 -412.862)"/><path class="l" d="M526.71,464.12s2.685,2.389,3.7,2.239S526.71,464.12,526.71,464.12Z" transform="translate(-439.525 -396.237)"/><path class="l" d="M561.77,511.89s2.087.56,2.116,1.408S561.77,511.89,561.77,511.89Z" transform="translate(-468.168 -435.263)"/><path class="h" d="M554.583,569.24s2.953.668,2.094,1.014a14.363,14.363,0,0,1-2.251.589S553.465,570.864,554.583,569.24Z" transform="translate(-461.854 -482.116)"/><g class="u" transform="translate(82.711 60.452)"><path d="M569.18,576.311a.585.585,0,0,0,.287-.421l.029.055s.251.69-.24.974l-.159.1c-.088-.02-.183-.037-.273-.062C568.422,576.836,568.7,576.595,569.18,576.311Z" transform="translate(-556.483 -548)"/><path d="M550.48,573.96c-.079-.079-.068-.273-.009-.52a1.4,1.4,0,0,1,.141.732A.6.6,0,0,0,550.48,573.96Z" transform="translate(-541.609 -545.998)"/><path d="M555.69,507.85a3.382,3.382,0,0,1,.165.934,3.793,3.793,0,0,0-.205-.646S555.665,508.026,555.69,507.85Z" transform="translate(-545.879 -492.414)"/><path d="M518.848,497.946a1.182,1.182,0,0,1-.016-.276c.029.183.049.366.062.52C518.881,498.109,518.86,498.029,518.848,497.946Z" transform="translate(-515.797 -484.097)"/><path d="M554.113,554.314a1.629,1.629,0,0,1-.055-.564,1.893,1.893,0,0,1,.119.714A.708.708,0,0,0,554.113,554.314Z" transform="translate(-544.574 -529.912)"/><path d="M549.257,582.68a9.819,9.819,0,0,1,.289,1.561l3.035.47a6.369,6.369,0,0,0,.732-1.259c.038-.081.07-.154.1-.22.183.092.243.284-.018.827a6.354,6.354,0,0,1-.732,1.261l-3.035-.47a6.061,6.061,0,0,0-.458-1.913C549.016,582.784,549.114,582.713,549.257,582.68Z" transform="translate(-540.52 -553.547)"/><path d="M570.79,448.28s-.091,1.739-.348,1.83h0c-.115-.293-.183-.569-.075-.61.256-.092.348-1.83.348-1.83a11.28,11.28,0,0,0,.48-2.608,5.056,5.056,0,0,1,.476-1.874l.238-1.581a4.371,4.371,0,0,0,.67-2.98l.093-2.445s.89-4.713,1.082-7.1c.125-1.532.183-3.626.216-4.933,0-.236.009-.447.011-.624l.088.013s0,.487-.022,1.219c-.029,1.307-.092,3.4-.214,4.933-.194,2.392-1.082,7.106-1.082,7.106l-.1,2.445a4.365,4.365,0,0,1-.67,2.978l-.238,1.581a5.067,5.067,0,0,0-.476,1.876A11.262,11.262,0,0,1,570.79,448.28Z" transform="translate(-557.858 -423.52)"/><path d="M507.5,583.041a2.959,2.959,0,0,0,.529-1.181c.3.293-.1,1.371-.452,1.788s-3,.617-3.478-.234l.018-.48C504.777,583.635,507.15,583.456,507.5,583.041Z" transform="translate(-503.764 -552.877)"/><path d="M502.28,571.848a5.108,5.108,0,0,1,.324.771l-.015.353c-.051-.13-.126-.306-.232-.514a1.507,1.507,0,0,1-.086-.628Z" transform="translate(-502.266 -544.683)"/><path d="M521.345,558.475a4.759,4.759,0,0,1-.225-.609s.425.117,1.135-.663a3.59,3.59,0,0,0,.549-2.4c.11.434.243,2.231-.469,3.013A1.813,1.813,0,0,1,521.345,558.475Z" transform="translate(-517.669 -530.77)"/><path d="M529.875,483.387a13.214,13.214,0,0,0-.108,1.492,2.35,2.35,0,0,0-.044-.236,8.921,8.921,0,0,1,.073-1.865,3.752,3.752,0,0,1,.229-1.329,16.589,16.589,0,0,0,.714-2.169,1.482,1.482,0,0,1,.39-.945,4.31,4.31,0,0,0,.642-1.592,1.66,1.66,0,0,0,.293-1.074,2.2,2.2,0,0,1,.48-1.294l.963-2.691.884-2.013.408,1.2v.384l-.329-.977-.88,2.013-.961,2.691a2.2,2.2,0,0,0-.48,1.294,1.647,1.647,0,0,1-.295,1.074,4.3,4.3,0,0,1-.641,1.591,1.486,1.486,0,0,0-.39.944,16.569,16.569,0,0,1-.716,2.169A3.779,3.779,0,0,0,529.875,483.387Z" transform="translate(-524.669 -461.223)"/></g><path class="v" d="M528.748,280.575l.154.928-.026.41-.02.3,1.047.148.126-.214h0a9.054,9.054,0,0,1,.868-1.281c.2-.157.646-2.7.223-2.563a1.1,1.1,0,0,0-.606.509S528.437,278.96,528.748,280.575Z" transform="translate(-441.164 -244.429)"/><path class="l" d="M529.48,297.86l1.047.148.126-.214h0a.924.924,0,0,0-1.153-.236Z" transform="translate(-441.788 -260.074)"/><path class="w" d="M527.92,298.784l1.375.366.038-.205.1-.549a.955.955,0,0,0-1.336-.236l-.079.282Z" transform="translate(-440.514 -260.511)"/><path class="v" d="M651.12,276.537l1.452.851.145-.275c.152-.289.379-.732.443-.884.1-.242.732-.527.732-.527,1.607-1.422-.183-2.766-.183-2.766-.9-2-2.094.588-2.094.588a6.742,6.742,0,0,0-.1,1.481c.1.1.09.476.09.476a5.509,5.509,0,0,0-.39.835A1.715,1.715,0,0,0,651.12,276.537Z" transform="translate(-541.163 -239.427)"/><path class="l" d="M651.12,295.026l1.452.851.145-.275c-.2-.183-.915-.813-1.164-.794a1.738,1.738,0,0,1-.351,0C651.147,294.938,651.12,295.026,651.12,295.026Z" transform="translate(-541.163 -257.916)"/><path class="w" d="M650.2,295.769l1.633.884.048-.366.033-.245s-.934-.864-1.219-.844a1.5,1.5,0,0,1-.434-.018l-.031.3Z" transform="translate(-540.411 -258.22)"/><path class="v" d="M549.65,300.158s7.225,1.1,5.885.6a1.825,1.825,0,0,1-1.338-1.627,3.794,3.794,0,0,1,.335-1.668,7.192,7.192,0,0,1,.7-1.281s-5.429-3.265-4.426-.448a4.461,4.461,0,0,1,.264,1.327,3.71,3.71,0,0,1-.194,1.323A3.977,3.977,0,0,1,549.65,300.158Z" transform="translate(-458.266 -257.74)"/><path class="l" d="M555.441,295.7a4.457,4.457,0,0,1,.264,1.327,2.558,2.558,0,0,0,1.814.48,3.274,3.274,0,0,0,1.647-.071,7.183,7.183,0,0,1,.7-1.281S554.431,292.886,555.441,295.7Z" transform="translate(-462.895 -257.712)"/><circle class="v" cx="3.002" cy="3.002" r="3.002" transform="translate(91.821 33.989)"/><path class="l" d="M549.65,315.86s7.225,1.1,5.885.6a1.825,1.825,0,0,1-1.338-1.627,4,4,0,0,0-1.521-.884,2.18,2.18,0,0,0-1.314-.071,1.852,1.852,0,0,0-.487.2A3.977,3.977,0,0,1,549.65,315.86Z" transform="translate(-458.266 -273.442)"/><path class="l" d="M527.92,300.642l1.375.366.038-.205a1.226,1.226,0,0,0-1.316-.507Z" transform="translate(-440.514 -262.37)"/><path class="l" d="M650.2,297.109l1.633.884.048-.366a12.3,12.3,0,0,0-1.647-.807Z" transform="translate(-540.411 -259.56)"/><path class="l" d="M530.12,417.081c2.793.549,6.773,1.281,7.411,1.115a18.518,18.518,0,0,1,3.675.048c.017-.732.022-1.219.022-1.219L530.38,415.47A8.884,8.884,0,0,1,530.12,417.081Z" transform="translate(-442.311 -356.492)"/><path class="d" d="M515,319.9s9.192,1.944,10.2,1.68,6.09.26,6.09.26c2.235,1.625,1.365-.681,1.365-.681a5.556,5.556,0,0,0,0-2.145,13.161,13.161,0,0,1-.295-2.158,5,5,0,0,0-.156-1.874,14.389,14.389,0,0,1-.494-2.9s-.183-1.724-.146-2.1-.02-1.441-.02-1.441l-.26-1.777c1.9-.183,7.785-3.489,7.785-3.489.324-1.173,2.574-3.866,2.574-3.866a2.856,2.856,0,0,1,.2-.674c.168-.4-2.07-1.281-2.07-1.281s-1.77,2-2.143,2.542A11.528,11.528,0,0,1,536,301.531a1.236,1.236,0,0,0-.549.051h-.029a4.492,4.492,0,0,0-1.155.606,2.2,2.2,0,0,0-1.56.52s-1.029-.183-1.212-.022-1.058-.04-1.058-.04-.811-1.9-1.411-1.38-3.062.4-3.062.4a3.628,3.628,0,0,0-1.589-.972,2.18,2.18,0,0,0-1.314-.073,1.675,1.675,0,0,0-.529.232l-1.549,1.4s-.408-.571-.353-.7-.494-.247-.494-.247-.732-.254-1-.34-.54.2-.564.229a2.942,2.942,0,0,0,.168-1.1,1.266,1.266,0,0,1,.337-.9c-.8-2.2-2.861-.465-2.861-.465a4.146,4.146,0,0,0-.088,1.638c.185.461-.256,1.4-.216,1.658s-.126.677-.145,1.157a6.866,6.866,0,0,0,.335,1.8c.135.408,1.311,1.364,1.311,1.364a5.7,5.7,0,0,0,.518,2.294c.5.853.06,3.688.06,3.688a9.5,9.5,0,0,1-1.248,2.881C516.089,315.914,515,319.9,515,319.9Z" transform="translate(-429.959 -260.083)"/><path class="l" d="M591.927,325.565s.309-.822.564-.888a5.84,5.84,0,0,0,.745-.3l-.15-.317s-.957.223-1.12.5A2.164,2.164,0,0,0,591.927,325.565Z" transform="translate(-492.768 -281.814)"/><path class="l" d="M620.2,320.545c.042.253,2.277.567,2.277.567l-1.1-1.182h-.027A4.494,4.494,0,0,0,620.2,320.545Z" transform="translate(-515.903 -278.44)"/><path class="l" d="M545.148,369.6c.026-.027-5.934,6.93-10.188,2.614C534.967,372.213,541.9,373.427,545.148,369.6Z" transform="translate(-446.265 -319.018)"/><path class="l" d="M583.249,349.94a10.972,10.972,0,0,1-1.406,2.207,8.867,8.867,0,0,1-2.143,1.915S583.174,350.4,583.249,349.94Z" transform="translate(-482.816 -302.957)"/><path class="l" d="M596.376,328.58s-.663,2.427-2.156,3.2Z" transform="translate(-494.678 -285.507)"/><path class="l" d="M601.763,330.117c.016-.046.43,1.957-2,2.962C599.76,333.078,600.789,332.772,601.763,330.117Z" transform="translate(-499.204 -286.761)"/><path class="l" d="M522.974,317.984a17.568,17.568,0,0,0-1.554,1.076S522.258,317.909,522.974,317.984Z" transform="translate(-435.203 -276.847)"/><path class="d" d="M551.6,279.832a.627.627,0,0,1-.249.4.607.607,0,0,1-.286.053,5.971,5.971,0,0,1-2.7-.366,1.021,1.021,0,0,1-.4-.289,1.678,1.678,0,0,1-.214-.672,9.875,9.875,0,0,0-.505-1.3,4.284,4.284,0,0,1-.209-2.29,1.551,1.551,0,0,1,.254-.663c.256-.337.7-.459,1.034-.723s.549-.677.937-.87a1.675,1.675,0,0,1,1.135-.057,5.928,5.928,0,0,1,2.083.875,1.065,1.065,0,0,0,.7.267.97.97,0,0,0,.533-.379,2.759,2.759,0,0,1,.183,1.316.6.6,0,0,0,0,.2.615.615,0,0,0,.132.212.763.763,0,0,1,.108.946c-.1.113-.253.17-.352.284-.183.2-.134.509-.139.78a.4.4,0,0,1-.077.264.39.39,0,0,1-.366.073,1.04,1.04,0,0,0-.394-.053.668.668,0,0,0-.353.251A4.464,4.464,0,0,0,551.6,279.832Z" transform="translate(-456.075 -240.088)"/><g class="i" transform="translate(91.77 33.693)"><path d="M551.787,291.326a1.016,1.016,0,0,0,.4.289,6.175,6.175,0,0,0,2.7.366.655.655,0,0,0,.286-.053.628.628,0,0,0,.249-.4,4.718,4.718,0,0,1,.833-1.744.661.661,0,0,1,.353-.251,1.039,1.039,0,0,1,.394.053.386.386,0,0,0,.366-.075.4.4,0,0,0,.077-.264,1.161,1.161,0,0,1,.137-.778c.1-.115.251-.172.353-.284a.588.588,0,0,0,.081-.6.687.687,0,0,1,.013.8c-.1.112-.254.17-.353.284-.183.2-.132.509-.137.78a.4.4,0,0,1-.077.264.39.39,0,0,1-.366.073,1.049,1.049,0,0,0-.394-.053.661.661,0,0,0-.353.251,4.63,4.63,0,0,0-.833,1.746.628.628,0,0,1-.249.4.608.608,0,0,1-.286.053,5.972,5.972,0,0,1-2.7-.366,1.016,1.016,0,0,1-.4-.289.817.817,0,0,1-.121-.247Z" transform="translate(-551.76 -285.712)"/><path d="M583.9,278.8a.434.434,0,0,1-.086-.156.55.55,0,0,1,0-.2,2.791,2.791,0,0,0-.1-1.1l.016-.018a2.78,2.78,0,0,1,.174,1.316A.972.972,0,0,0,583.9,278.8Z" transform="translate(-577.87 -277.33)"/></g><path class="l" d="M556.624,319.435s-3.769.351-4.084-.225" transform="translate(-460.627 -277.852)"/><path class="l" d="M523.923,310.42s-2.083-.077-2.563.686" transform="translate(-435.154 -270.669)"/></svg>