<svg xmlns="http://www.w3.org/2000/svg" viewBox="0 0 554.06 74.32" style=""><defs><style>.cls-1{fill:none;stroke:#221f20;stroke-miterlimit:10;stroke-width:3px;}.cls-2{fill:#00abe9;}</style></defs><title>Fichier 8</title><g id="Calque_2" data-name="Calque 2"><g id="Calque_1-2" data-name="Calque 1"><path class="cls-1 lWTRdvjI_0" d="M42.49,4.83a23.84,23.84,0,0,1,9.34,9.29,27.55,27.55,0,0,1,3.38,13.79,27.86,27.86,0,0,1-3.38,13.85,23.83,23.83,0,0,1-9.34,9.34A27.23,27.23,0,0,1,29,54.42a23.9,23.9,0,0,1-10.22-2.15A21.19,21.19,0,0,1,10.89,46V72.82H1.5V2h9v8.22A20,20,0,0,1,18.42,3.7,25,25,0,0,1,29,1.5,27.24,27.24,0,0,1,42.49,4.83ZM37.16,43.91a16.56,16.56,0,0,0,6.26-6.46,19.41,19.41,0,0,0,2.3-9.54,19.39,19.39,0,0,0-2.3-9.53A16.16,16.16,0,0,0,37.16,12a17.81,17.81,0,0,0-8.95-2.25A17.27,17.27,0,0,0,19.35,12a16.67,16.67,0,0,0-6.26,6.4,19.16,19.16,0,0,0-2.3,9.49A19.72,19.72,0,0,0,13,37.45a16.16,16.16,0,0,0,6.26,6.46,17.63,17.63,0,0,0,8.91,2.3A17.54,17.54,0,0,0,37.16,43.91Z"></path><path class="cls-1 lWTRdvjI_1" d="M84.46,3.85A26.17,26.17,0,0,1,96.1,1.5v9.1A17.24,17.24,0,0,0,94,10.5q-7.64,0-12,4.55T77.61,28V53.84H68.22V2h9V10.7A16,16,0,0,1,84.46,3.85Z"></path><path class="cls-1 lWTRdvjI_2" d="M153.82,31H111.75a16.27,16.27,0,0,0,6,11,19.63,19.63,0,0,0,12.76,4.16q9.3,0,15-6.26L150.69,46a22.68,22.68,0,0,1-8.76,6.26,33.06,33.06,0,0,1-26.27-1.22,24.11,24.11,0,0,1-9.83-9.44,27.12,27.12,0,0,1-3.47-13.7,27.45,27.45,0,0,1,3.37-13.59A24.15,24.15,0,0,1,115,4.87,26.43,26.43,0,0,1,128.38,1.5a25.94,25.94,0,0,1,13.26,3.37,23.64,23.64,0,0,1,9.09,9.45A28.68,28.68,0,0,1,154,28.21,26.56,26.56,0,0,1,153.82,31ZM117.08,13.53a16.58,16.58,0,0,0-5.33,10.76H145a16.69,16.69,0,0,0-5.33-10.71,17.51,17.51,0,0,0-22.6-.05Z"></path><path class="cls-1 lWTRdvjI_3" d="M208,4.83a23.86,23.86,0,0,1,9.35,9.29,27.54,27.54,0,0,1,3.37,13.79,27.85,27.85,0,0,1-3.37,13.85A23.86,23.86,0,0,1,208,51.1a27.23,27.23,0,0,1-13.5,3.32,24,24,0,0,1-10.22-2.15A21.15,21.15,0,0,1,176.42,46V72.82H167V2h9v8.22A20,20,0,0,1,184,3.7a24.93,24.93,0,0,1,10.56-2.2A27.24,27.24,0,0,1,208,4.83Zm-5.33,39.08a16.56,16.56,0,0,0,6.26-6.46,19.3,19.3,0,0,0,2.3-9.54,19.29,19.29,0,0,0-2.3-9.53A16.16,16.16,0,0,0,202.68,12a17.79,17.79,0,0,0-9-2.25,17.23,17.23,0,0,0-8.85,2.3,16.67,16.67,0,0,0-6.26,6.4,19.05,19.05,0,0,0-2.3,9.49,19.72,19.72,0,0,0,2.25,9.54,16.09,16.09,0,0,0,6.26,6.46,18.47,18.47,0,0,0,17.85,0Z"></path><path class="cls-1 lWTRdvjI_4" d="M268.62,6.78q5.72,5.28,5.72,15.75V53.84h-8.9V47a14.89,14.89,0,0,1-6.7,5.53,25.66,25.66,0,0,1-10.32,1.9q-8.71,0-13.94-4.2a13.51,13.51,0,0,1-5.24-11.06,13.63,13.63,0,0,1,5-11q5-4.15,15.85-4.16H265V22.14q0-6.06-3.52-9.29T251.06,9.62a27.44,27.44,0,0,0-9,1.52,23,23,0,0,0-7.44,4.06l-3.91-7a28.36,28.36,0,0,1,9.59-4.94A40.09,40.09,0,0,1,252.13,1.5Q262.9,1.5,268.62,6.78Zm-9.34,38A13.76,13.76,0,0,0,265,38V30.75H250.47q-11.94,0-11.94,8a7.28,7.28,0,0,0,3,6.17q3,2.25,8.41,2.25A17.45,17.45,0,0,0,259.28,44.79Z"></path><path class="cls-1 lWTRdvjI_5" d="M300.51,51a25,25,0,0,1-9.74-9.44,26.49,26.49,0,0,1-3.52-13.65,26.48,26.48,0,0,1,3.52-13.64,24.74,24.74,0,0,1,9.74-9.4A29.11,29.11,0,0,1,314.64,1.5a27.12,27.12,0,0,1,12.57,2.84,20.26,20.26,0,0,1,8.57,8.21l-7.15,4.6a15.94,15.94,0,0,0-6.06-5.57,17.33,17.33,0,0,0-8-1.86A18.51,18.51,0,0,0,305.4,12,16,16,0,0,0,299,18.38a19.39,19.39,0,0,0-2.3,9.53,19.61,19.61,0,0,0,2.3,9.64A16,16,0,0,0,305.4,44a18.51,18.51,0,0,0,9.14,2.25,17.33,17.33,0,0,0,8-1.86,16,16,0,0,0,6.06-5.58l7.15,4.5a20.52,20.52,0,0,1-8.57,8.27,26.77,26.77,0,0,1-12.57,2.88A28.8,28.8,0,0,1,300.51,51Z"></path><path class="cls-1 lWTRdvjI_6" d="M355.44,51a24.85,24.85,0,0,1-9.64-9.44,26.85,26.85,0,0,1-3.47-13.65,26.84,26.84,0,0,1,3.47-13.64,24.55,24.55,0,0,1,9.64-9.4A28.44,28.44,0,0,1,369.33,1.5a28.14,28.14,0,0,1,13.84,3.37,24.55,24.55,0,0,1,9.59,9.4,26.74,26.74,0,0,1,3.47,13.64,26.75,26.75,0,0,1-3.47,13.65A24.86,24.86,0,0,1,383.17,51a27.85,27.85,0,0,1-13.84,3.42A28.14,28.14,0,0,1,355.44,51Zm22.84-7.09a16.23,16.23,0,0,0,6.21-6.46,19.72,19.72,0,0,0,2.25-9.54,19.7,19.7,0,0,0-2.25-9.53A15.85,15.85,0,0,0,378.28,12a18.93,18.93,0,0,0-17.9,0,16.16,16.16,0,0,0-6.26,6.41,19.39,19.39,0,0,0-2.3,9.53,19.41,19.41,0,0,0,2.3,9.54,16.56,16.56,0,0,0,6.26,6.46,18.56,18.56,0,0,0,17.9,0Z"></path><path class="cls-1 lWTRdvjI_7" d="M457.57,2V53.84h-8.9V46a18.76,18.76,0,0,1-7.49,6.21,23.27,23.27,0,0,1-10.12,2.2q-10.37,0-16.34-5.72t-6-16.87V2h9.4V30.75q0,7.53,3.61,11.4T432.14,46c4.95,0,8.87-1.5,11.73-4.5s4.31-7.24,4.31-12.72V2Z"></path><path class="cls-1 lWTRdvjI_8" d="M491.71,3.85A26.2,26.2,0,0,1,503.35,1.5v9.1a17.24,17.24,0,0,0-2.15-.1q-7.63,0-12,4.55t-4.36,13V53.84h-9.39V2h9V10.7A16,16,0,0,1,491.71,3.85Z"></path><path class="cls-1 lWTRdvjI_9" d="M517.93,52.71a26.92,26.92,0,0,1-9.2-4.35l3.92-7.44A27.85,27.85,0,0,0,521,44.84a34.18,34.18,0,0,0,9.88,1.47q12.33,0,12.33-7.05a4.61,4.61,0,0,0-1.66-3.72,10.55,10.55,0,0,0-4.16-2c-1.66-.42-4-.9-7.09-1.42A68.85,68.85,0,0,1,520,29.87a15.79,15.79,0,0,1-6.8-4.3c-1.89-2-2.83-4.86-2.83-8.52a13.26,13.26,0,0,1,5.87-11.29Q522.14,1.5,532,1.5a43.34,43.34,0,0,1,10.37,1.27A27.9,27.9,0,0,1,550.9,6.2l-4,7.43a27,27,0,0,0-15-4.11q-6,0-9.1,2a5.89,5.89,0,0,0-3.13,5.18,4.94,4.94,0,0,0,1.76,4,11.18,11.18,0,0,0,4.35,2.16q2.6.68,7.29,1.56a80.45,80.45,0,0,1,10.13,2.3,15.18,15.18,0,0,1,6.6,4.16q2.74,2.92,2.74,8.22a13,13,0,0,1-6,11.2q-6,4.15-16.38,4.15A43.49,43.49,0,0,1,517.93,52.71Z"></path><path class="cls-2 lWTRdvjI_10" d="M29,3.16A25.51,25.51,0,0,0,18.41,5.31a19.81,19.81,0,0,0-7.92,6.35v-8h-9V72.82h9.38V46.64a21.16,21.16,0,0,0,7.87,6.11A24.47,24.47,0,0,0,29,54.85,27.7,27.7,0,0,0,42.45,51.6a23.45,23.45,0,0,0,9.33-9.12A26.65,26.65,0,0,0,55.15,29a26.42,26.42,0,0,0-3.37-13.48,23.6,23.6,0,0,0-9.33-9.07A27.7,27.7,0,0,0,29,3.16Zm-.78,43.67a17.83,17.83,0,0,1-8.89-2.25A15.9,15.9,0,0,1,13,38.27,18.87,18.87,0,0,1,10.78,29a18.37,18.37,0,0,1,2.3-9.27,16.44,16.44,0,0,1,6.26-6.26,17.56,17.56,0,0,1,8.84-2.25,18.17,18.17,0,0,1,8.94,2.2,16,16,0,0,1,6.26,6.26A18.64,18.64,0,0,1,45.68,29a18.57,18.57,0,0,1-2.3,9.31,16.36,16.36,0,0,1-6.26,6.31,17.77,17.77,0,0,1-8.94,2.25Z"></path><path class="cls-2 lWTRdvjI_11" d="M96,3.16A26.71,26.71,0,0,0,84.38,5.45a15.86,15.86,0,0,0-7.24,6.69V3.64h-9V54.28h9.39V29.05q0-8.21,4.34-12.66t12-4.44a17.35,17.35,0,0,1,2.15.1V3.16Z"></path><path class="cls-2 lWTRdvjI_12" d="M128.26,3.16a26.87,26.87,0,0,0-13.34,3.3,23.8,23.8,0,0,0-9.29,9.22A26.33,26.33,0,0,0,102.26,29a26,26,0,0,0,3.47,13.38,23.83,23.83,0,0,0,9.82,9.22,33.72,33.72,0,0,0,26.24,1.19,22.73,22.73,0,0,0,8.75-6.11l-5.18-5.93q-5.67,6.12-15,6.12a20,20,0,0,1-12.76-4.06,15.83,15.83,0,0,1-6-10.75h42a25.6,25.6,0,0,0,.19-2.78,27.6,27.6,0,0,0-3.27-13.56,23.37,23.37,0,0,0-9.09-9.22,26.36,26.36,0,0,0-13.24-3.3ZM111.64,25.42A16.06,16.06,0,0,1,117,14.91a16.46,16.46,0,0,1,11.29-4,16.11,16.11,0,0,1,16.61,14.52Z"></path><path class="cls-2 lWTRdvjI_13" d="M194.32,3.16a25.51,25.51,0,0,0-10.55,2.15,19.88,19.88,0,0,0-7.92,6.35v-8h-9V72.82h9.38V46.64a21.24,21.24,0,0,0,7.87,6.11,24.51,24.51,0,0,0,10.21,2.1,27.67,27.67,0,0,0,13.49-3.25,23.45,23.45,0,0,0,9.33-9.12A26.66,26.66,0,0,0,220.52,29a26.43,26.43,0,0,0-3.38-13.48,23.6,23.6,0,0,0-9.33-9.07,27.67,27.67,0,0,0-13.49-3.25Zm-.78,43.67a17.83,17.83,0,0,1-8.89-2.25,16,16,0,0,1-6.26-6.31A19,19,0,0,1,176.15,29a18.36,18.36,0,0,1,2.29-9.27,16.44,16.44,0,0,1,6.26-6.26,17.56,17.56,0,0,1,8.84-2.25,18.18,18.18,0,0,1,9,2.2,16.07,16.07,0,0,1,6.25,6.26A18.64,18.64,0,0,1,211,29a18.57,18.57,0,0,1-2.3,9.31,16.41,16.41,0,0,1-6.25,6.31,17.79,17.79,0,0,1-9,2.25Z"></path><path class="cls-2 lWTRdvjI_14" d="M251.89,3.16a41.15,41.15,0,0,0-11.83,1.67,28.69,28.69,0,0,0-9.58,4.83l3.91,6.88a23.34,23.34,0,0,1,7.43-4,27.91,27.91,0,0,1,9-1.48q6.84,0,10.36,3.15t3.52,9.08v1.82H249.84Q239,25.14,234,29.2A13.18,13.18,0,0,0,229,40a13,13,0,0,0,5.23,10.79q5.22,4.11,13.92,4.11A26.13,26.13,0,0,0,258.49,53a14.74,14.74,0,0,0,6.69-5.4v6.69h8.89V23.7q0-10.21-5.71-15.38T251.89,3.16Zm-2.15,44.62q-5.38,0-8.41-2.2a7,7,0,0,1-3-6q0-7.83,11.93-7.83h14.46V38.8A13.43,13.43,0,0,1,259,45.44a17.72,17.72,0,0,1-9.28,2.34Z"></path><path class="cls-2 lWTRdvjI_15" d="M314.34,3.16a29.65,29.65,0,0,0-14.13,3.3,24.47,24.47,0,0,0-9.72,9.17A25.41,25.41,0,0,0,287,29a25.41,25.41,0,0,0,3.52,13.33,24.94,24.94,0,0,0,9.72,9.22,29.32,29.32,0,0,0,14.13,3.34A27.26,27.26,0,0,0,326.9,52,20.25,20.25,0,0,0,335.45,44l-7.14-4.4A15.76,15.76,0,0,1,322.25,45a17.6,17.6,0,0,1-8,1.82,18.92,18.92,0,0,1-9.14-2.2,15.87,15.87,0,0,1-6.35-6.26,18.8,18.8,0,0,1-2.3-9.41,18.64,18.64,0,0,1,2.3-9.32,15.87,15.87,0,0,1,6.35-6.26,18.92,18.92,0,0,1,9.14-2.2,17.6,17.6,0,0,1,8,1.82,15.84,15.84,0,0,1,6.06,5.45L335.45,14a20,20,0,0,0-8.55-8,27.62,27.62,0,0,0-12.56-2.77Z"></path><path class="cls-2 lWTRdvjI_16" d="M369,3.16a28.92,28.92,0,0,0-13.88,3.3,24.14,24.14,0,0,0-9.62,9.17A25.66,25.66,0,0,0,342,29a25.66,25.66,0,0,0,3.47,13.33,24.6,24.6,0,0,0,9.62,9.22A28.61,28.61,0,0,0,369,54.85a28.3,28.3,0,0,0,13.83-3.34,24.7,24.7,0,0,0,9.58-9.22A25.75,25.75,0,0,0,395.85,29a25.75,25.75,0,0,0-3.47-13.33,24.23,24.23,0,0,0-9.58-9.17A28.61,28.61,0,0,0,369,3.16Zm0,43.67A17.77,17.77,0,0,1,360,44.58a16.27,16.27,0,0,1-6.25-6.31,18.47,18.47,0,0,1-2.3-9.31,18.53,18.53,0,0,1,2.3-9.32A15.94,15.94,0,0,1,360,13.38a19.26,19.26,0,0,1,17.88,0,15.72,15.72,0,0,1,6.21,6.26A18.93,18.93,0,0,1,386.37,29a18.87,18.87,0,0,1-2.25,9.31,16,16,0,0,1-6.21,6.31A17.77,17.77,0,0,1,369,46.83Z"></path><path class="cls-2 lWTRdvjI_17" d="M457.13,3.64h-9.39V29.82q0,8-4.3,12.42t-11.73,4.4q-6.73,0-10.36-3.78t-3.61-11.13V3.64h-9.38V32.78q0,10.89,6,16.48t16.32,5.59a23.63,23.63,0,0,0,10.11-2.15,18.71,18.71,0,0,0,7.48-6.06v7.64h8.9V3.64Z"></path><path class="cls-2 lWTRdvjI_18" d="M502.86,3.16a26.74,26.74,0,0,0-11.63,2.29A15.88,15.88,0,0,0,484,12.14V3.64h-9V54.28h9.38V29.05q0-8.21,4.35-12.66t12-4.44a17.24,17.24,0,0,1,2.15.1V3.16Z"></path><path class="cls-2 lWTRdvjI_19" d="M531.5,3.16q-9.87,0-15.74,4.16a12.89,12.89,0,0,0-5.86,11q0,5.36,2.83,8.31a15.79,15.79,0,0,0,6.8,4.21,70.59,70.59,0,0,0,10.21,2.2q4.59.76,7.08,1.38a10.72,10.72,0,0,1,4.16,2A4.4,4.4,0,0,1,542.64,40q0,6.89-12.31,6.88a35.14,35.14,0,0,1-9.88-1.43,28.57,28.57,0,0,1-8.3-3.82l-3.91,7.26a27,27,0,0,0,9.18,4.25,44.57,44.57,0,0,0,12.22,1.67q10.36,0,16.37-4.06a12.56,12.56,0,0,0,6-10.94c0-3.44-.91-6.11-2.73-8a15.26,15.26,0,0,0-6.6-4.06,82.05,82.05,0,0,0-10.12-2.24c-3.13-.58-5.55-1.08-7.28-1.53a11.46,11.46,0,0,1-4.35-2.1A4.8,4.8,0,0,1,519.18,18a5.73,5.73,0,0,1,3.13-5.06c2.09-1.28,5.11-1.92,9.09-1.92a27.35,27.35,0,0,1,15,4l4-7.26a28.37,28.37,0,0,0-8.5-3.35A44.25,44.25,0,0,0,531.5,3.16Z"></path></g></g><style data-made-with="vivus-instant">.lWTRdvjI_0{stroke-dasharray:364 366;stroke-dashoffset:365;animation:lWTRdvjI_draw 2000ms linear 0ms forwards;}.lWTRdvjI_1{stroke-dasharray:166 168;stroke-dashoffset:167;animation:lWTRdvjI_draw 2000ms linear 52ms forwards;}.lWTRdvjI_2{stroke-dasharray:328 330;stroke-dashoffset:329;animation:lWTRdvjI_draw 2000ms linear 105ms forwards;}.lWTRdvjI_3{stroke-dasharray:364 366;stroke-dashoffset:365;animation:lWTRdvjI_draw 2000ms linear 157ms forwards;}.lWTRdvjI_4{stroke-dasharray:318 320;stroke-dashoffset:319;animation:lWTRdvjI_draw 2000ms linear 210ms forwards;}.lWTRdvjI_5{stroke-dasharray:244 246;stroke-dashoffset:245;animation:lWTRdvjI_draw 2000ms linear 263ms forwards;}.lWTRdvjI_6{stroke-dasharray:283 285;stroke-dashoffset:284;animation:lWTRdvjI_draw 2000ms linear 315ms forwards;}.lWTRdvjI_7{stroke-dasharray:280 282;stroke-dashoffset:281;animation:lWTRdvjI_draw 2000ms linear 368ms forwards;}.lWTRdvjI_8{stroke-dasharray:166 168;stroke-dashoffset:167;animation:lWTRdvjI_draw 2000ms linear 421ms forwards;}.lWTRdvjI_9{stroke-dasharray:275 277;stroke-dashoffset:276;animation:lWTRdvjI_draw 2000ms linear 473ms forwards;}.lWTRdvjI_10{stroke-dasharray:358 360;stroke-dashoffset:359;animation:lWTRdvjI_draw 2000ms linear 526ms forwards;}.lWTRdvjI_11{stroke-dasharray:163 165;stroke-dashoffset:164;animation:lWTRdvjI_draw 2000ms linear 578ms forwards;}.lWTRdvjI_12{stroke-dasharray:326 328;stroke-dashoffset:327;animation:lWTRdvjI_draw 2000ms linear 631ms forwards;}.lWTRdvjI_13{stroke-dasharray:358 360;stroke-dashoffset:359;animation:lWTRdvjI_draw 2000ms linear 684ms forwards;}.lWTRdvjI_14{stroke-dasharray:315 317;stroke-dashoffset:316;animation:lWTRdvjI_draw 2000ms linear 736ms forwards;}.lWTRdvjI_15{stroke-dasharray:241 243;stroke-dashoffset:242;animation:lWTRdvjI_draw 2000ms linear 789ms forwards;}.lWTRdvjI_16{stroke-dasharray:280 282;stroke-dashoffset:281;animation:lWTRdvjI_draw 2000ms linear 842ms forwards;}.lWTRdvjI_17{stroke-dasharray:276 278;stroke-dashoffset:277;animation:lWTRdvjI_draw 2000ms linear 894ms forwards;}.lWTRdvjI_18{stroke-dasharray:163 165;stroke-dashoffset:164;animation:lWTRdvjI_draw 2000ms linear 947ms forwards;}.lWTRdvjI_19{stroke-dasharray:272 274;stroke-dashoffset:273;animation:lWTRdvjI_draw 2000ms linear 999ms forwards;}@keyframes lWTRdvjI_draw{100%{stroke-dashoffset:0;}}@keyframes lWTRdvjI_fade{0%{stroke-opacity:1;}94.44444444444444%{stroke-opacity:1;}100%{stroke-opacity:0;}}</style></svg>