<svg xmlns="http://www.w3.org/2000/svg" width="36.79" height="36.791" viewBox="0 0 36.79 36.791"><defs><style>.a{fill:#f0f0f0;}</style></defs><path class="a" d="M12.265,18.4A6.132,6.132,0,1,1,18.4,24.528,6.132,6.132,0,0,1,12.265,18.4m-3.315,0A9.446,9.446,0,1,0,18.4,8.95,9.446,9.446,0,0,0,8.95,18.4m17.058-9.82a2.207,2.207,0,1,0,2.208-2.207h0a2.209,2.209,0,0,0-2.207,2.207M10.964,33.369a10.167,10.167,0,0,1-3.416-.633A5.717,5.717,0,0,1,5.432,31.36a5.676,5.676,0,0,1-1.376-2.114,10.158,10.158,0,0,1-.633-3.416c-.089-1.939-.107-2.522-.107-7.434s.019-5.493.107-7.434a10.234,10.234,0,0,1,.633-3.416A5.717,5.717,0,0,1,5.432,5.43,5.669,5.669,0,0,1,7.548,4.054a10.158,10.158,0,0,1,3.416-.633c1.939-.089,2.522-.107,7.432-.107s5.493.019,7.434.107a10.234,10.234,0,0,1,3.416.633A5.7,5.7,0,0,1,31.362,5.43a5.7,5.7,0,0,1,1.376,2.116,10.158,10.158,0,0,1,.633,3.416c.089,1.941.107,2.522.107,7.434s-.018,5.493-.107,7.434a10.205,10.205,0,0,1-.633,3.416,6.091,6.091,0,0,1-3.492,3.49,10.158,10.158,0,0,1-3.416.633c-1.939.089-2.522.107-7.434.107s-5.493-.018-7.432-.107M10.811.111A13.489,13.489,0,0,0,6.346.966,9.023,9.023,0,0,0,3.088,3.088,8.988,8.988,0,0,0,.966,6.346a13.493,13.493,0,0,0-.854,4.465C.021,12.773,0,13.4,0,18.4s.021,5.623.111,7.584a13.492,13.492,0,0,0,.854,4.465A8.992,8.992,0,0,0,3.088,33.7a9.045,9.045,0,0,0,3.259,2.122,13.5,13.5,0,0,0,4.465.854c1.962.089,2.588.111,7.584.111s5.623-.021,7.584-.111a13.492,13.492,0,0,0,4.465-.854,9.405,9.405,0,0,0,5.38-5.38,13.455,13.455,0,0,0,.854-4.465c.089-1.963.11-2.588.11-7.584s-.021-5.623-.11-7.584a13.488,13.488,0,0,0-.854-4.465A9.046,9.046,0,0,0,33.7,3.088,9,9,0,0,0,30.446.966,13.471,13.471,0,0,0,25.981.111C24.02.022,23.393,0,18.4,0s-5.623.021-7.586.111" transform="translate(0)"/><path class="a" d="M12.265,18.4A6.132,6.132,0,1,1,18.4,24.528,6.132,6.132,0,0,1,12.265,18.4m-3.315,0A9.446,9.446,0,1,0,18.4,8.95,9.446,9.446,0,0,0,8.95,18.4m17.058-9.82a2.207,2.207,0,1,0,2.208-2.207h0a2.209,2.209,0,0,0-2.207,2.207M10.964,33.369a10.167,10.167,0,0,1-3.416-.633A5.717,5.717,0,0,1,5.432,31.36a5.676,5.676,0,0,1-1.376-2.114,10.158,10.158,0,0,1-.633-3.416c-.089-1.939-.107-2.522-.107-7.434s.019-5.493.107-7.434a10.234,10.234,0,0,1,.633-3.416A5.717,5.717,0,0,1,5.432,5.43,5.669,5.669,0,0,1,7.548,4.054a10.158,10.158,0,0,1,3.416-.633c1.939-.089,2.522-.107,7.432-.107s5.493.019,7.434.107a10.234,10.234,0,0,1,3.416.633A5.7,5.7,0,0,1,31.362,5.43a5.7,5.7,0,0,1,1.376,2.116,10.158,10.158,0,0,1,.633,3.416c.089,1.941.107,2.522.107,7.434s-.018,5.493-.107,7.434a10.205,10.205,0,0,1-.633,3.416,6.091,6.091,0,0,1-3.492,3.49,10.158,10.158,0,0,1-3.416.633c-1.939.089-2.522.107-7.434.107s-5.493-.018-7.432-.107M10.811.111A13.489,13.489,0,0,0,6.346.966,9.023,9.023,0,0,0,3.088,3.088,8.988,8.988,0,0,0,.966,6.346a13.493,13.493,0,0,0-.854,4.465C.021,12.773,0,13.4,0,18.4s.021,5.623.111,7.584a13.492,13.492,0,0,0,.854,4.465A8.992,8.992,0,0,0,3.088,33.7a9.045,9.045,0,0,0,3.259,2.122,13.5,13.5,0,0,0,4.465.854c1.962.089,2.588.111,7.584.111s5.623-.021,7.584-.111a13.492,13.492,0,0,0,4.465-.854,9.405,9.405,0,0,0,5.38-5.38,13.455,13.455,0,0,0,.854-4.465c.089-1.963.11-2.588.11-7.584s-.021-5.623-.11-7.584a13.488,13.488,0,0,0-.854-4.465A9.046,9.046,0,0,0,33.7,3.088,9,9,0,0,0,30.446.966,13.471,13.471,0,0,0,25.981.111C24.02.022,23.393,0,18.4,0s-5.623.021-7.586.111" transform="translate(0)"/></svg>