<svg xmlns="http://www.w3.org/2000/svg" width="33" height="26.811" viewBox="0 0 33 26.811"><defs><style>.a{fill:#f0f0f0;}</style></defs><path class="a" d="M22.05.006V0H23.6l.565.113A6.048,6.048,0,0,1,25.189.4a7.3,7.3,0,0,1,.893.417,8.489,8.489,0,0,1,.783.485,4.817,4.817,0,0,1,.625.518.867.867,0,0,0,.854.143,11.423,11.423,0,0,0,1.25-.372q.67-.238,1.324-.536t.8-.378l.149-.089L31.869.58,31.9.565l.03-.015.03-.015.03-.015.006-.009L32,.506,32.012.5l.006-.009.03-.009.03-.006-.006.045-.009.045L32.048.61l-.015.045-.015.03L32,.714l-.015.045a1.035,1.035,0,0,0-.03.119,4.991,4.991,0,0,1-.283.6,7.443,7.443,0,0,1-.67,1.056,5.194,5.194,0,0,1-.72.809q-.321.277-.426.387a1.277,1.277,0,0,1-.253.208l-.149.1-.03.015-.03.015-.006.009-.009.006-.009.006-.006.009-.03.015-.03.015L29.3,4.13l-.009.006-.009.006-.006.009-.006.009-.009.006-.009.006-.006.009H29.4L30.233,4a14.91,14.91,0,0,0,1.592-.431l.8-.268.089-.03.045-.015.03-.015.03-.015.03-.015.03-.015.06-.009L33,3.184v.06l-.015.006-.015.009-.006.009-.009.006-.009.006-.006.009-.006.009-.009.006-.009.006-.006.009-.006.009-.009.006-.015.03-.015.03-.009.006-.378.506a4.183,4.183,0,0,1-.4.506q-.03.009-.083.089a8.527,8.527,0,0,1-.631.664A14.977,14.977,0,0,1,30.227,6.2a1.409,1.409,0,0,0-.565,1.119q-.009.661-.068,1.494t-.223,1.8a21.463,21.463,0,0,1-.506,2.187,19.884,19.884,0,0,1-.833,2.381A18.547,18.547,0,0,1,27,17.259q-.536.922-.982,1.562t-.908,1.205q-.461.565-1.166,1.274t-.774.774q-.068.065-.583.488t-1.1.851a12.735,12.735,0,0,1-1.077.705q-.491.283-1.184.646a14.091,14.091,0,0,1-1.494.678q-.8.312-1.7.58a15.493,15.493,0,0,1-1.726.417q-.833.149-1.89.253l-1.056.1v.015H9.433V26.8l-.253-.015q-.253-.015-.417-.03t-1.235-.164q-1.071-.149-1.681-.3t-1.815-.565a17.662,17.662,0,0,1-2.062-.842Q1.116,24.46.9,24.347t-.482-.274l-.268-.164L.143,23.9l-.009-.006-.009-.006L.119,23.88l-.03-.015L.06,23.85l-.006-.009-.009-.006-.009-.006L.03,23.82l-.006-.009-.009-.006H0v-.06l.03.006.03.009.134.015q.134.015.729.045t1.265,0a13.3,13.3,0,0,0,1.369-.134,15.421,15.421,0,0,0,1.651-.357,12.2,12.2,0,0,0,1.75-.6q.794-.351,1.131-.524a11.009,11.009,0,0,0,1.018-.631l.684-.461L9.8,21.1,9.8,21.1l.009-.006.006-.009.006-.009.009-.006.009-.006.006-.009.03-.009.03-.006.006-.03.009-.03.009-.006.006-.009L9.7,20.949l-.461-.03a4.473,4.473,0,0,1-.7-.134,6.712,6.712,0,0,1-1.027-.357,7.914,7.914,0,0,1-1.071-.565,5.272,5.272,0,0,1-.753-.545q-.229-.214-.6-.607a6.021,6.021,0,0,1-.631-.812,7.3,7.3,0,0,1-.512-.961L3.7,16.4l-.015-.045-.015-.045-.009-.03-.006-.03.045.006.045.009.327.045a7.273,7.273,0,0,0,1.027.03,7.948,7.948,0,0,0,.967-.06q.268-.045.327-.06l.06-.015.074-.015.074-.015.006-.009.009-.006.009-.006.006-.009-.06-.015-.06-.015-.06-.015-.06-.015-.06-.015q-.059-.015-.208-.06t-.8-.327a6.144,6.144,0,0,1-1.041-.55,7.192,7.192,0,0,1-.738-.586,8.421,8.421,0,0,1-.765-.827,5.952,5.952,0,0,1-.744-1.175,7.148,7.148,0,0,1-.491-1.28,6.908,6.908,0,0,1-.214-1.235L1.28,9.4l.03.006.03.009.03.015.03.015.03.015.03.015.461.208a5.819,5.819,0,0,0,1.146.357q.684.149.818.164l.134.015h.268l-.006-.009-.009-.006L4.261,10.2l-.006-.009-.006-.009-.009-.006-.009-.006-.006-.009-.03-.015-.03-.015-.006-.009-.009-.006-.009-.006L4.136,10.1l-.03-.015-.03-.015-.006-.009-.256-.19A3.9,3.9,0,0,1,3.3,9.388q-.268-.3-.536-.625a4.825,4.825,0,0,1-.476-.7,8.477,8.477,0,0,1-.44-.946A6.717,6.717,0,0,1,1.5,5.966a6.555,6.555,0,0,1-.134-1.146,7.214,7.214,0,0,1,.03-.967,6.32,6.32,0,0,1,.179-.908,7.072,7.072,0,0,1,.387-1.071l.253-.565.015-.045.015-.045.009-.006.006-.009L2.267,1.2l.009-.006.009.006.006.009.006.009.009.006.009.006.006.009.006.009.009.006.015.03.015.03.009.006.006.009.4.446q.4.446.952,1a5.6,5.6,0,0,0,.61.571.436.436,0,0,1,.149.137,6.074,6.074,0,0,0,.6.527q.506.417,1.324.967T8.228,6.055a17.711,17.711,0,0,0,2.142.967q1.146.431,1.607.565t1.577.342q1.116.208,1.681.268t.774.068l.208.006-.006-.045L16.2,8.183l-.06-.372a6.992,6.992,0,0,1-.06-1.041,6.829,6.829,0,0,1,.1-1.235A7.315,7.315,0,0,1,16.5,4.389a6.12,6.12,0,0,1,.408-.931,9.162,9.162,0,0,1,.53-.794,6.416,6.416,0,0,1,.848-.922,6.258,6.258,0,0,1,1.19-.848A7.737,7.737,0,0,1,20.711.327a5.754,5.754,0,0,1,.952-.253A3.309,3.309,0,0,0,22.05.006Z"/></svg>