<svg id="Play_button" data-name="Play button" xmlns="http://www.w3.org/2000/svg" width="32" height="32" viewBox="0 0 32 32">
  <circle id="Ellipse_9" data-name="Ellipse 9" cx="16" cy="16" r="16" fill="#8e8e8e" opacity="0.815"/>
  <rect id="Rectangle_8" data-name="Rectangle 8" width="4.267" height="12.089" rx="2" transform="translate(10.667 9.956)" fill="#f0f0f0" opacity="0"/>
  <rect id="Rectangle_9" data-name="Rectangle 9" width="4.267" height="12.089" rx="2" transform="translate(17.067 9.956)" fill="#f0f0f0" opacity="0"/>
  <g id="np_play_3234664_000000" transform="translate(11.429 9.032)">
    <path id="Tracé_11" data-name="Tracé 11" d="M19.082,24.2V12.155a.658.658,0,0,1,1.011-.555l9.416,6.023a.657.657,0,0,1,0,1.108l-9.416,6.023a.658.658,0,0,1-1.012-.554Z" transform="translate(-18.827 -11.243)" fill="#f0f0f0"/>
    <path id="Tracé_12" data-name="Tracé 12" d="M18.123,23V10.928a.33.33,0,0,1,0-.044c0,.054,0,.008,0-.007.008-.031.017-.061.026-.089-.017.051-.005.008,0-.005s.022-.041.035-.061.015-.022.022-.033c-.031.042-.01.014,0,.005.024-.024.046-.046.071-.068-.041.035-.01.007,0,0l.042-.026.035-.019c.049-.027-.037.01.012-.005.033-.008.062-.019.095-.026.058-.015-.034-.005,0,0,.015,0,.034,0,.049,0h.041s.066.012.027,0l.027.007c.02.005.041.012.06.019.044.014.008,0,0,0l.058.031.019.012.005,0,.073.046.38.243,1.481.948q1.042.669,2.087,1.336l2.213,1.415L26.9,15.828q.567.364,1.136.725c.037.024.073.047.11.069l.026.015h0l.037.026c-.039-.031,0,0,.007.008s.034.035.051.053.02.037,0,0c.007.012.015.022.022.034s.019.035.028.054.012.042,0-.005c.01.033.02.062.028.1a.271.271,0,0,1,.007.039c-.01-.064,0,0,0,.012s-.008.119,0,.051a.712.712,0,0,1-.022.1.2.2,0,0,1-.014.037c.017-.053.005-.01,0,0a.288.288,0,0,1-.026.044c-.005.007-.044.061-.008.015a.856.856,0,0,1-.073.076c-.007.007-.037.031,0,0l-.037.026h0a.127.127,0,0,1-.022.014l-.864.553-1.744,1.115q-1.1.7-2.19,1.4L21.19,21.763,19.508,22.84c-.251.161-.5.324-.752.481-.027.017-.054.033-.083.047.042-.022.012-.005,0,0l-.051.015c-.017.005-.034.007-.051.012.046-.014.026,0,.007,0s-.066,0-.1,0,0,0,.008,0a.581.581,0,0,1-.058-.012c-.017,0-.089-.031-.062-.019s-.044-.024-.058-.033-.027-.02-.041-.027c-.033-.015.039.039,0,0-.024-.024-.047-.046-.069-.071.035.039-.007-.012-.019-.028s-.019-.035-.028-.053-.01-.041,0,.005c-.008-.034-.02-.066-.028-.1,0-.014,0-.046,0,0a.263.263,0,0,0,0-.059.254.254,0,1,0-.508,0,.913.913,0,0,0,1.4.773c.062-.039.125-.08.186-.121.412-.263.824-.527,1.236-.79l1.988-1.271q1.127-.722,2.254-1.443l2.054-1.314q.691-.442,1.384-.887l.29-.184a1,1,0,0,0,.245-.214.924.924,0,0,0,.112-.975,1.094,1.094,0,0,0-.435-.437l-.408-.261-1.549-.991-2.137-1.368q-1.124-.717-2.245-1.436l-1.876-1.2-1.025-.656a.988.988,0,0,0-.767-.163.928.928,0,0,0-.7.919V23a.257.257,0,0,0,.254.254A.262.262,0,0,0,18.123,23Z" transform="translate(-17.614 -10.039)" fill="#f0f0f0"/>
  </g>
</svg>
