<svg xmlns="http://www.w3.org/2000/svg" width="63.828" height="19.144" viewBox="0 0 63.828 19.144"><defs><style>.a{fill:#fff;}</style></defs><path class="a" d="M84,1369.145a9.572,9.572,0,1,0,9.572,9.572A9.572,9.572,0,0,0,84,1369.145Zm4.39,13.805a.6.6,0,0,1-.82.2c-2.248-1.374-5.077-1.684-8.409-.923a.6.6,0,1,1-.266-1.163c3.646-.834,6.774-.475,9.3,1.067a.6.6,0,0,1,.2.821Zm1.172-2.606a.747.747,0,0,1-1.027.246A12.564,12.564,0,0,0,79,1379.474a.746.746,0,1,1-.434-1.428,13.964,13.964,0,0,1,10.752,1.272.746.746,0,0,1,.246,1.026Zm.1-2.714c-3.085-1.833-8.175-2-11.12-1.107a.9.9,0,0,1-.52-1.713c3.381-1.026,9-.828,12.554,1.28a.9.9,0,0,1-.914,1.54Zm10.808.351c-1.653-.394-1.947-.671-1.947-1.252,0-.549.517-.919,1.286-.919a3.756,3.756,0,0,1,2.259.858.108.108,0,0,0,.082.02.106.106,0,0,0,.071-.044l.807-1.138a.108.108,0,0,0-.021-.147,4.883,4.883,0,0,0-3.174-1.1c-1.784,0-3.031,1.071-3.031,2.6,0,1.643,1.075,2.225,2.933,2.674,1.581.364,1.848.669,1.848,1.215,0,.6-.54.98-1.408.98a3.8,3.8,0,0,1-2.632-1.087.114.114,0,0,0-.079-.026.107.107,0,0,0-.074.038l-.9,1.077a.107.107,0,0,0,.011.15,5.394,5.394,0,0,0,3.643,1.4c1.923,0,3.165-1.051,3.165-2.677,0-1.373-.818-2.133-2.831-2.623Zm7.185-1.63a2.593,2.593,0,0,0-2.081,1v-.757a.108.108,0,0,0-.108-.109h-1.48a.108.108,0,0,0-.108.109v8.413a.108.108,0,0,0,.108.108h1.48a.108.108,0,0,0,.108-.108v-2.656a2.658,2.658,0,0,0,2.081.942,3.492,3.492,0,0,0,0-6.943Zm1.4,3.472a1.784,1.784,0,0,1-1.738,1.97,1.981,1.981,0,0,1,0-3.941,1.8,1.8,0,0,1,1.739,1.97h0Zm5.739-3.472a3.479,3.479,0,1,0,3.544,3.472,3.49,3.49,0,0,0-3.544-3.472Zm0,5.454a1.882,1.882,0,0,1-1.861-1.982,1.838,1.838,0,0,1,1.836-1.958,1.888,1.888,0,0,1,1.873,1.983,1.842,1.842,0,0,1-1.848,1.958Zm7.8-5.318h-1.628v-1.665a.108.108,0,0,0-.108-.108h-1.48a.108.108,0,0,0-.108.108v1.665h-.712a.108.108,0,0,0-.108.109v1.272a.108.108,0,0,0,.108.108h.712v3.291a1.76,1.76,0,0,0,1.967,2,2.7,2.7,0,0,0,1.386-.345.108.108,0,0,0,.055-.094v-1.211a.109.109,0,0,0-.157-.1,1.864,1.864,0,0,1-.869.21c-.475,0-.687-.216-.687-.7v-3.058h1.628a.108.108,0,0,0,.108-.108V1376.6a.1.1,0,0,0-.106-.109Zm5.674.007v-.2c0-.6.231-.87.748-.87a2.5,2.5,0,0,1,.834.154.108.108,0,0,0,.142-.1v-1.247a.108.108,0,0,0-.077-.1,4.059,4.059,0,0,0-1.23-.177c-1.367,0-2.089.77-2.089,2.225v.313h-.711a.109.109,0,0,0-.109.108v1.278a.109.109,0,0,0,.109.108h.711v5.076a.108.108,0,0,0,.108.108h1.48a.109.109,0,0,0,.108-.108v-5.076h1.382l2.117,5.075c-.24.533-.477.639-.8.639a1.707,1.707,0,0,1-.816-.231.107.107,0,0,0-.15.05l-.5,1.1a.108.108,0,0,0,.047.14,3.116,3.116,0,0,0,1.58.4c1.093,0,1.7-.509,2.229-1.878l2.567-6.634a.108.108,0,0,0-.1-.148H134.3a.109.109,0,0,0-.1.073l-1.578,4.508-1.729-4.511a.108.108,0,0,0-.1-.07h-2.528Zm-3.29-.007H123.5a.109.109,0,0,0-.108.109v6.456a.109.109,0,0,0,.108.108h1.48a.109.109,0,0,0,.108-.108V1376.6a.108.108,0,0,0-.109-.108Zm-.732-2.94a1.061,1.061,0,1,0,1.061,1.061,1.061,1.061,0,0,0-1.061-1.061Zm12.964,5.016a1.044,1.044,0,1,1,1.047-1.048,1.037,1.037,0,0,1-1.047,1.048Zm.006-1.985a.94.94,0,1,0,.932.937.931.931,0,0,0-.932-.937h0Zm.231,1.044.295.412h-.248l-.265-.378H137v.378h-.208v-1.093h.487c.254,0,.421.13.421.349a.324.324,0,0,1-.253.332Zm-.176-.493H137v.346h.271c.135,0,.216-.066.216-.173s-.081-.173-.216-.173Z" transform="translate(-74.428 -1369.145)"/></svg>