<svg xmlns="http://www.w3.org/2000/svg" xmlns:xlink="http://www.w3.org/1999/xlink" width="247.032" height="183.337" viewBox="0 0 247.032 183.337"><defs><style>.a{opacity:0.2;}.b{fill:#3f3d56;}.c,.e,.h{fill:#ed7e83;}.d,.e,.n{opacity:0.1;}.f{fill:#464353;}.g{fill:#fff;}.h{opacity:0.5;}.i{fill:#f86d70;}.j{fill:url(#a);}.k{fill:#db8b8b;}.l{fill:#35323e;}.m{opacity:0.05;}.o{fill:#6a5c99;}</style><linearGradient id="a" x1="0.5" y1="1" x2="0.5" gradientUnits="objectBoundingBox"><stop offset="0" stop-color="gray" stop-opacity="0.251"/><stop offset="0.54" stop-color="gray" stop-opacity="0.122"/><stop offset="1" stop-color="gray" stop-opacity="0.102"/></linearGradient></defs><g transform="translate(-0.032)"><g class="a" transform="translate(146.01 56.609)"><path class="b" d="M701.61,584.918a5.434,5.434,0,0,1-.493.76q-2.454-1.718-5-3.382l.11-.217a4.8,4.8,0,0,1,1.7-1.851,2.839,2.839,0,0,1,2.856-.234,2.871,2.871,0,0,1,1.4,2.494A4.814,4.814,0,0,1,701.61,584.918Z" transform="translate(-696.12 -514.333)"/><ellipse class="b" cx="3.985" cy="3.043" rx="3.985" ry="3.043" transform="translate(0.527 66.975) rotate(-62.09)"/><ellipse class="b" cx="3.985" cy="3.043" rx="3.985" ry="3.043" transform="translate(2.807 62.672) rotate(-62.09)"/><ellipse class="b" cx="3.985" cy="3.043" rx="3.985" ry="3.043" transform="translate(5.087 58.37) rotate(-62.09)"/><ellipse class="b" cx="3.985" cy="3.043" rx="3.985" ry="3.043" transform="translate(7.365 54.067) rotate(-62.09)"/><path class="c" d="M714.7,317.17a14.422,14.422,0,0,1-.234-2.005l7.694,2.59-7.673-3.992a14.6,14.6,0,0,1,5.16-10.337l7.435,10.751L721.3,302.21a14.577,14.577,0,1,1,13.64,25.683,14.581,14.581,0,0,1,.234,3.129l-11.686-.093,11.518,1.9a14.577,14.577,0,0,1-8.482,11A14.577,14.577,0,1,1,706.27,333.1a14.582,14.582,0,0,1,8.437-15.928Z" transform="translate(-697.253 -299.989)"/><path class="d" d="M733.445,442.943a14.523,14.523,0,0,1-6.974,6.5,14.577,14.577,0,1,1-20.252-10.725C705.654,435.616,734.212,441.5,733.445,442.943Z" transform="translate(-697.214 -405.614)"/></g><g class="a" transform="translate(0.032 8.97)"><path class="b" d="M287.536,687.209a10.116,10.116,0,0,0,.559,1.648q5.4-2.068,10.926-3.973c-.033-.15-.065-.3-.1-.467a9.239,9.239,0,0,0-2.3-4.258,5.091,5.091,0,0,0-9.007,2.19A9.244,9.244,0,0,0,287.536,687.209Z" transform="translate(-236.831 -542.184)"/><ellipse class="b" cx="5.859" cy="7.668" rx="5.859" ry="7.668" transform="translate(46.676 128.457) rotate(-13.72)"/><ellipse class="b" cx="5.859" cy="7.668" rx="5.859" ry="7.668" transform="translate(44.451 119.351) rotate(-13.72)"/><ellipse class="b" cx="5.859" cy="7.668" rx="5.859" ry="7.668" transform="translate(42.229 110.245) rotate(-13.72)"/><ellipse class="b" cx="5.859" cy="7.668" rx="5.859" ry="7.668" transform="translate(40.006 101.141) rotate(-13.72)"/><path class="c" d="M125.135,135.853a27.732,27.732,0,0,0,1.358-3.637l-15.554,1.194,16.2-3.828a28.121,28.121,0,0,0-4.751-21.736L103.439,124.4l16.421-19.593a28.062,28.062,0,1,0-37.579,41.5,27.89,27.89,0,0,0-1.9,5.731l21.874,5.347-22.395-1.9a28.079,28.079,0,0,0,10.644,24.54,28.062,28.062,0,1,0,42.857-10.459,28.065,28.065,0,0,0-8.229-33.714Z" transform="translate(-71.532 -96.158)"/><path class="d" d="M110.136,384.609a27.932,27.932,0,0,0,9.947,15.425,28.062,28.062,0,1,0,42.857-10.459C165.462,384.05,109.4,381.549,110.136,384.609Z" transform="translate(-101.108 -316.181)"/></g><ellipse class="e" cx="122.702" cy="17.061" rx="122.702" ry="17.061" transform="translate(1.661 149.215)"/><rect class="f" width="132.752" height="159.863" rx="19.8" transform="translate(32.278)"/><rect class="e" width="109.847" height="127.61" transform="translate(43.73 16.127)"/><circle class="g" cx="4.674" cy="4.674" r="4.674" transform="translate(93.979 147.476)"/><circle class="g" cx="2.22" cy="2.22" r="2.22" transform="translate(96.433 7.128)"/><path class="g" d="M485.837,88.014a2.1,2.1,0,1,1-2.1,2.1,2.1,2.1,0,0,1,2.1-2.1m0-.234a2.337,2.337,0,1,0,2.337,2.337A2.337,2.337,0,0,0,485.837,87.78Z" transform="translate(-387.183 -80.768)"/><path class="g" d="M393.5,503.823V499.6h.481v2.026l2.141-1.982a.185.185,0,0,1,.122-.044.2.2,0,0,1,.2.2v3.817a.2.2,0,0,1-.2.2.187.187,0,0,1-.126-.049l-2.136-1.966v2.015Z" transform="translate(-318.218 -396.339)"/><path class="g" d="M395.853,499.324a.084.084,0,0,1,.086.086v3.819a.086.086,0,0,1-.136.068l-1.94-1.783-.2-.189.206-.187,1.938-1.795a.086.086,0,0,1,.049-.019m-2.379,0v3.99h-.248v-3.99h.25m2.379-.234a.311.311,0,0,0-.2.075l-1.945,1.8v-1.755a.119.119,0,0,0-.119-.119h-.481a.119.119,0,0,0-.119.119v4.207a.119.119,0,0,0,.119.119h.479a.119.119,0,0,0,.119-.119v-1.743l1.945,1.79a.308.308,0,0,0,.2.072.316.316,0,0,0,.32-.318V499.41a.318.318,0,0,0-.32-.32Z" transform="translate(-317.827 -395.948)"/><path class="g" d="M583.368,503.819v-2.026l-2.141,1.982a.192.192,0,0,1-.124.044.2.2,0,0,1-.14-.058.191.191,0,0,1-.063-.145V499.8a.2.2,0,0,1,.332-.157l2.136,1.968V499.6h.467v4.221h0Z" transform="translate(-461.819 -396.334)"/><path class="g" d="M580.695,499.324a.075.075,0,0,1,.049.019l1.94,1.783.2.187-.2.189-1.94,1.795a.072.072,0,0,1-.049.016.084.084,0,0,1-.086-.084V499.41a.086.086,0,0,1,.086-.086m2.632,0v3.99h-.238v-3.99h.234m-2.632-.234a.318.318,0,0,0-.32.32v3.819a.318.318,0,0,0,.32.318.311.311,0,0,0,.2-.072l1.944-1.8v1.755a.119.119,0,0,0,.119.119h.467a.119.119,0,0,0,.122-.119v-4.207a.119.119,0,0,0-.122-.119h-.467a.119.119,0,0,0-.119.119v1.746l-1.944-1.79a.313.313,0,0,0-.2-.075Z" transform="translate(-461.413 -395.948)"/><path class="g" d="M487.367,504.207a.36.36,0,0,1-.36-.36v-3.5a.36.36,0,0,1,.36-.351h.958a.36.36,0,0,1,.36.36v3.489a.36.36,0,0,1-.36.358Zm-2.548,0a.36.36,0,0,1-.36-.36v-3.5a.36.36,0,0,1,.36-.351h.951a.36.36,0,0,1,.36.36v3.489a.36.36,0,0,1-.36.36Z" transform="translate(-387.919 -396.645)"/><path class="g" d="M487.973,499.717a.234.234,0,0,1,.234.234v3.492a.234.234,0,0,1-.234.234h-.958a.234.234,0,0,1-.234-.234v-3.485a.234.234,0,0,1,.234-.234h.958m-2.538,0a.234.234,0,0,1,.234.234v3.492a.234.234,0,0,1-.234.234h-.968a.234.234,0,0,1-.234-.234v-3.492a.234.234,0,0,1,.234-.234h.951m2.538-.234h-.942a.467.467,0,0,0-.467.467v3.492a.467.467,0,0,0,.467.467h.958a.467.467,0,0,0,.467-.467v-3.492a.467.467,0,0,0-.467-.467Zm-2.538,0h-.951a.467.467,0,0,0-.467.467v3.492a.467.467,0,0,0,.467.467h.951a.467.467,0,0,0,.467-.467v-3.492A.467.467,0,0,0,485.419,499.49Z" transform="translate(-387.567 -396.255)"/><rect class="h" width="56.092" height="0.624" transform="translate(70.608 97.575)"/><path class="g" d="M443.127,473.49a1.365,1.365,0,1,1,1.363-1.365A1.365,1.365,0,0,1,443.127,473.49Z" transform="translate(-355.199 -374.239)"/><path class="g" d="M442.744,470.5a1.248,1.248,0,1,1-1.246,1.246,1.248,1.248,0,0,1,1.246-1.246m0-.234a1.482,1.482,0,1,0,1.479,1.479A1.482,1.482,0,0,0,442.744,470.27Z" transform="translate(-354.816 -373.864)"/><rect class="g" width="17.087" height="0.39" transform="translate(70.724 97.692)"/><path class="g" d="M390.587,475.5v.157H373.734V475.5h16.853m.234-.234H373.5v.624h17.321Z" transform="translate(-302.892 -377.695)"/><circle class="c" cx="10.751" cy="10.751" r="10.751" transform="translate(61.96 38.433)"/><circle class="c" cx="10.751" cy="10.751" r="10.751" transform="translate(113.845 38.433)"/><circle class="g" cx="1.636" cy="1.636" r="1.636" transform="translate(75.048 42.639)"/><circle class="g" cx="1.636" cy="1.636" r="1.636" transform="translate(128.336 42.639)"/><path class="g" d="M429.06,358.209c0,2.064-12.66,7.479-28.28,7.479s-28.28-5.415-28.28-7.479,12.66,0,28.28,0S429.06,356.143,429.06,358.209Z" transform="translate(-302.126 -287.29)"/><path class="i" d="M813.362,215.15h-.04a4.458,4.458,0,0,1-7.512,0h-.04a4.469,4.469,0,0,0-4.441,4.469,9.62,9.62,0,0,0,1.891,5.247,33.1,33.1,0,0,0,6.334,6.1,33.1,33.1,0,0,0,6.334-6.1,9.619,9.619,0,0,0,1.891-5.247A4.471,4.471,0,0,0,813.362,215.15Z" transform="translate(-630.731 -178.37)"/><path class="i" d="M880.833,148.42h-.03a3.421,3.421,0,0,1-5.763,0h-.03a3.431,3.431,0,0,0-3.4,3.429,7.384,7.384,0,0,0,1.451,4.025,25.273,25.273,0,0,0,4.859,4.674,25.377,25.377,0,0,0,4.859-4.674,7.379,7.379,0,0,0,1.449-4.025,3.431,3.431,0,0,0-3.4-3.429Z" transform="translate(-684.585 -127.236)"/><path class="i" d="M948.74,223.34h-.03a3.419,3.419,0,0,1-5.761,0h-.03a3.431,3.431,0,0,0-3.408,3.426,7.386,7.386,0,0,0,1.449,4.025,25.325,25.325,0,0,0,4.861,4.674,25.375,25.375,0,0,0,4.859-4.674,7.386,7.386,0,0,0,1.449-4.025,3.431,3.431,0,0,0-3.389-3.426Z" transform="translate(-736.616 -184.646)"/><path class="j" d="M793.178,474.626l.185-.126a9.484,9.484,0,0,1-2.632.4,11.526,11.526,0,0,1-4.4-.958,16.2,16.2,0,0,1-5.857-4.546c-2.22-2.641-3.9-5.894-6.86-7.659a5.33,5.33,0,0,0-2-.757,9.363,9.363,0,0,0-3.7.664c-5.252,1.51-11.471.4-15.094-3.693-.767-.865-1.4-1.842-2.253-2.632-2.8-2.618-7.283-2.55-10.831-1.1-.215.086-.428.182-.636.285a1.459,1.459,0,0,1,.035-.145,4.078,4.078,0,0,0-1.669,1.2,3.937,3.937,0,0,0-.484,3.064,3.254,3.254,0,0,0,.266.97,2.863,2.863,0,0,0-.675,1.849,1.755,1.755,0,0,0,.012.248,10.312,10.312,0,0,0-7.991,8.907v-.068a10.5,10.5,0,0,0-.058,1.091v.138a10.284,10.284,0,0,0,3.181,7.451,7.668,7.668,0,0,0,3.038,3.826c-.028.117-.056.234-.089.353a6.705,6.705,0,0,1-4.548,4.861c-.117.04-.234.075-.36.11l-.575.161-.234.07c-5.745,1.666-7.388,3.013-7.909,5.233-.43,1.828-.935,5.1-1.143,6.4-.416.963-3.244,7.654-3.02,11.522.037.666.056,1.332.044,2-.026,1.353.362,3.534,3.232,2.959,1.636-.327,4.207-1.11,6.74-1.935q-.222.68-.5,1.339a19.839,19.839,0,0,0-1.068,2.753h0v.026l-.028.115v.068a.861.861,0,0,1-.026.119c-.009.04,0,.021,0,.033a.3.3,0,0,1,0,.044,1.145,1.145,0,0,1-.023.152c-.007.051-.019.133-.026.2h0v.126a.56.56,0,0,1,0,.061v.3a.627.627,0,0,1,0,.068.953.953,0,0,0,.012.182v.023a.417.417,0,0,0,.014.115c.014.037,0,.061,0,.091v.042l.021.108a.14.14,0,0,0,.016.079l.028.11h0a.343.343,0,0,0,.03.1,3.806,3.806,0,0,1,.248.869,1.522,1.522,0,0,1-.054.493h0l-.035.126a.13.13,0,0,1,0,.028c-.026.089-.056.178-.086.266-.016.049-.033.1-.047.147a.053.053,0,0,1-.016.044h0l-.014.047-.014.049v.021l-.035.143v.042h0a.416.416,0,0,0,0,.054v.035a.66.66,0,0,0,0,.068h0a.257.257,0,0,1,0,.044v.021a1.1,1.1,0,0,0,0,.124,2.39,2.39,0,0,0,.39,1.063c.044.077.093.152.138.234L716,524.8a8.46,8.46,0,0,0-5.668,2.015c-2.821,2.431-1.734,4.8.5,6.738a29.262,29.262,0,0,0,7.82,4.319c.467.185.753.281.753.281h24.073l.358.082a16.592,16.592,0,0,0,3.335.287,34.84,34.84,0,0,0,4.071-.234c.407-.047.818-.1,1.229-.145h2.571l.234.044c1.194.255,2.442.911,3.562.423a1.286,1.286,0,0,0,.57-.467h2.872c5.322,0,8.376-1.76,9.865-4.177a8.645,8.645,0,0,0,1.045-5.8c-.58-4.06-14.82-4.181-19.106-4.125-.061-.056-.124-.108-.187-.157h0c-.493-.388-1.089-.792-1.152-1.421-.035-.376.138-.753.08-1.126-.105-.65-.823-.965-1.381-1.309-1.909-1.169-2.65-3.648-2.463-5.878.014-.143.028-.287.047-.43h0c.014-.112.033-.222.049-.332a.444.444,0,0,1,0-.058v-.021a65.409,65.409,0,0,0,6.652,1.746c8.456,1.776,6.273-2.461,6.273-2.461s-.954-6.011-1.5-8.334a80.892,80.892,0,0,0-3.272-8.47l-.07-.161c-.021-.755-.316-6-4.361-7.012-1.206-.3-2.505-.556-3.756-.879l-.089-.026c-.418-.108-.83-.234-1.229-.355-2.216-.718-4.057-1.811-4.555-4.018-.026-.119-.049-.234-.068-.367A7.661,7.661,0,0,0,746.147,479a10.283,10.283,0,0,0,2.978-7.245.628.628,0,0,0,0-.068v-.07a9.88,9.88,0,0,0-.058-1.091v.068a10.287,10.287,0,0,0-.523-2.283,10.75,10.75,0,0,0,2.608,1.739,8.413,8.413,0,0,0,3.62.75,8.3,8.3,0,0,0,2.384-.309c1.9-.54,3.6-1.746,5.558-2.019a6.7,6.7,0,0,1,.746-.056,12.651,12.651,0,0,1,5.593,1.87,64.521,64.521,0,0,1,6.558,4.057c2.073,1.461,4.162,3.09,6.654,3.557a8.477,8.477,0,0,0,1.683.138,13.064,13.064,0,0,0,4.588-.879,21.794,21.794,0,0,0,5.093-2.646C793.484,474.547,793.334,474.589,793.178,474.626ZM742.695,462.2c-.147-.061-.3-.119-.451-.173a1.842,1.842,0,0,0,.028-.182c.143.115.283.234.421.355Zm-19.146,47.952s1.723-4.817,1.732-6.016l1.066-3.059.4.631c-.035.21-.068.421-.1.631s-.061.393-.087.589h0c-.028.2-.051.4-.068.6h0a.813.813,0,0,1-.012.168v.6a.519.519,0,0,0,0,.058v.082c0,.077.012.154.019.234v.047a.227.227,0,0,1,0,.04,1.038,1.038,0,0,0,.04.234c.016.07.037.171.058.257v.026c.206.76.657,1.428.9,2.176h0c.021.068.042.138.061.206l.021.084.035.145.021.105.028.154v.063a1.751,1.751,0,0,0,.03.222h0a9.177,9.177,0,0,1,.047,1.292,3.758,3.758,0,0,1-.014.4C725.879,510.427,724.154,510.535,723.549,510.154Zm28-8.944c.428,1.779,2.954,7.577,2.954,7.577-.467.353-2.216.276-4.062.075.035-.089.068-.175.1-.264l.051-.14.091-.234c.056-.157.115-.311.171-.467l.105-.309v-.04c.035-.108.068-.215.1-.325.014-.042.026-.086.037-.131v-.014l.054-.208a.412.412,0,0,1,.026-.1l.042-.178a.144.144,0,0,1,.016-.079.452.452,0,0,0,0-.056.54.54,0,0,1,.019-.089c.016-.072.03-.147.042-.22a.65.65,0,0,0,0-.065.24.24,0,0,0,0-.04,1.33,1.33,0,0,1,.026-.159q.035-.234.063-.456v-.094a1.278,1.278,0,0,0,.014-.136v-.222a.817.817,0,0,1,.012-.168.357.357,0,0,0,0-.112.225.225,0,0,0,0-.037h0v-.727h0V503.6a.056.056,0,0,0,0-.019v-.21c0-.112-.014-.234-.023-.339v-.112a10.449,10.449,0,0,0-.15-1.038Z" transform="translate(-559.709 -360.796)"/><path class="k" d="M793.1,580.525l-5.415,5.009-.4,1.049-.273.7-22.881,1.084-1.229-1.949-.395-.624-1.082,3.113L756,585.534s.675-4.6,1.218-6.9c.517-2.2,2.148-3.534,7.853-5.184l.234-.072.57-.159c.121-.033.234-.068.358-.108a6.65,6.65,0,0,0,4.513-4.817,11.156,11.156,0,0,0,.273-4.282s8.327-2.639,8.056,2.641a5.955,5.955,0,0,0,.122,1.608c.5,2.185,2.323,3.272,4.522,3.973q.6.192,1.22.353l.089.023c1.241.32,2.531.573,3.74.872C793.1,574.568,793.1,580.525,793.1,580.525Z" transform="translate(-595.995 -445.188)"/><path class="l" d="M830.322,458.889a4.5,4.5,0,0,1,1.98-1.328c3.524-1.44,7.967-1.508,10.751,1.087.839.781,1.475,1.751,2.237,2.608,3.6,4.06,9.769,5.153,14.984,3.658a9.273,9.273,0,0,1,3.674-.657,5.259,5.259,0,0,1,1.987.75c2.94,1.748,4.607,4.971,6.811,7.589a16.1,16.1,0,0,0,5.815,4.5,10.678,10.678,0,0,0,7.245.556,21.7,21.7,0,0,1-5.051,2.618,11.483,11.483,0,0,1-5.953.732c-2.475-.467-4.548-2.078-6.607-3.524a63.893,63.893,0,0,0-6.509-4.018c-2.031-1.094-4.277-2.1-6.563-1.786-1.942.269-3.63,1.465-5.518,2a8.413,8.413,0,0,1-5.71-.414c-4.831-2.2-7.042-8.676-12.214-9.87-1.323-.3-1.566.164-1.837-1.456A3.9,3.9,0,0,1,830.322,458.889Z" transform="translate(-652.504 -363.364)"/><path class="d" d="M881.7,481.9a11.483,11.483,0,0,1-5.953.732c-2.475-.467-4.548-2.075-6.607-3.524a63.9,63.9,0,0,0-6.509-4.018c-2.031-1.094-4.277-2.1-6.563-1.786-1.942.269-3.63,1.465-5.518,2a8.414,8.414,0,0,1-5.71-.416c-4.831-2.2-7.042-8.676-12.214-9.868-1.323-.306-1.566.161-1.839-1.458a4.944,4.944,0,0,1,.037-2.127,4.05,4.05,0,0,0-1.655,1.192,3.83,3.83,0,0,0-.467,3.038c.273,1.62.514,1.152,1.837,1.456,5.172,1.194,7.383,7.673,12.214,9.87a8.414,8.414,0,0,0,5.71.43c1.888-.533,3.576-1.729,5.518-2,2.286-.318,4.532.7,6.563,1.786a64.192,64.192,0,0,1,6.511,4.018c2.059,1.447,4.132,3.062,6.6,3.524a11.472,11.472,0,0,0,5.953-.732,21.7,21.7,0,0,0,5.058-2.622,9.468,9.468,0,0,1-2.618.393Z" transform="translate(-651.625 -367.098)"/><circle class="l" cx="10.22" cy="10.22" r="10.22" transform="translate(168.673 101.356)"/><path class="d" d="M803.31,539.131A10.222,10.222,0,0,1,793.149,530a10.326,10.326,0,0,0-.059,1.08,10.222,10.222,0,1,0,20.444,0,10.356,10.356,0,0,0-.06-1.082,10.223,10.223,0,0,1-10.164,9.131Z" transform="translate(-624.417 -419.634)"/><path class="d" d="M827.591,568.257a7.589,7.589,0,0,1-8.451.033,11.156,11.156,0,0,0,.273-4.282s8.327-2.639,8.056,2.641A5.955,5.955,0,0,0,827.591,568.257Z" transform="translate(-644.378 -445.188)"/><circle class="k" cx="7.582" cy="7.582" r="7.582" transform="translate(171.38 108.8)"/><path class="m" d="M832.59,641a5.844,5.844,0,0,1,.935,1.323,3,3,0,0,1,.259,2.517,3.581,3.581,0,0,1,.509-2.938,5.486,5.486,0,0,1,2.365-1.9" transform="translate(-654.685 -503.925)"/><path class="l" d="M771.39,766.706c-1.477,2.393-4.508,4.139-9.79,4.139H718.955s-.278-.1-.745-.278a29.053,29.053,0,0,1-7.764-4.282c-2.22-1.919-3.3-4.265-.5-6.677a8.414,8.414,0,0,1,5.626-1.994l14.35.234,22.336-.958s19.494-.678,20.172,4.06A8.592,8.592,0,0,1,771.39,766.706Z" transform="translate(-559.418 -593.47)"/><path class="c" d="M807.994,639.131c-.234.509-.865.631-1.4.788-2.211.647-3.576,2.8-5.338,4.279a10.207,10.207,0,0,1-2.985,1.741,13.451,13.451,0,0,1-7.783.25c-2.564-.6-5.481-1.1-7.409-2.9a21.267,21.267,0,0,1-3.919-4.908,2.338,2.338,0,0,1-.388-1.054,1.062,1.062,0,0,1,0-.122.354.354,0,0,1,0-.07.331.331,0,0,1,0-.068.168.168,0,0,1,.016-.089.7.7,0,0,1,.023-.1.409.409,0,0,1,.026-.1c.009-.035.021-.065.03-.1.047-.154.1-.3.15-.467.016-.051.03-.1.042-.152h0a1.5,1.5,0,0,0,.054-.488,3.934,3.934,0,0,0-.245-.862.412.412,0,0,0-.03-.1c-.009-.033-.021-.077-.03-.115-.016-.075-.033-.15-.047-.234s-.021-.152-.028-.234a3.37,3.37,0,0,1-.016-.341V633.5a.033.033,0,0,1,0-.021.965.965,0,0,1,.012-.185c.014-.131.033-.264.058-.395a1.049,1.049,0,0,1,.042-.217q.014-.051.028-.112a.106.106,0,0,1,0-.026h0a19.285,19.285,0,0,1,1.061-2.73,17.379,17.379,0,0,0,1.363-6.31,8.988,8.988,0,0,0-.047-1.278h0c0-.047-.012-.091-.016-.138s-.021-.15-.037-.234-.03-.164-.049-.234-.026-.1-.042-.154-.037-.136-.058-.2c-.234-.743-.7-1.4-.9-2.164q-.035-.14-.063-.28c-.016-.082-.03-.161-.04-.234V618.5a3.624,3.624,0,0,1-.023-.367v-.344a1.972,1.972,0,0,1,.012-.25.8.8,0,0,0,0-.168,2.13,2.13,0,0,1,.033-.3c.014-.1.023-.2.037-.3.026-.194.056-.39.086-.584s.065-.418.1-.626a7.935,7.935,0,0,1,.872-2.739c.72-1.213,2.008-2.15,2.23-3.543a4.565,4.565,0,0,0-.129-1.664c-.028-.122-.054-.234-.079-.362a35.483,35.483,0,0,1-.715-4.674l.234-.073.57-.159c.122-.033.234-.068.358-.107a29.587,29.587,0,0,0,.619,4.674,10.959,10.959,0,0,0,1.239,3.459,4.89,4.89,0,0,0,2.8,2.255,7.093,7.093,0,0,0,2.435.089q2.454-.214,4.871-.668a11.828,11.828,0,0,0,3.4-1.061,2.337,2.337,0,0,0,.727-.559,2.774,2.774,0,0,0,.456-1.068,29.414,29.414,0,0,0,.935-8q.6.192,1.22.353l.089.023c0,.442-.021.881-.042,1.321-.012.266-.028.533-.044.8,0,.15-.021.3-.035.451,0,.107-.021.217-.03.325a.282.282,0,0,1-.012.1c-.014.131-.028.262-.044.39-.021.175-.047.351-.073.526l-.035.234c-.049.337-.1.676-.143,1.014h0a9.74,9.74,0,0,0-.086,1.519,5.81,5.81,0,0,0,1.323,3.09,9.212,9.212,0,0,1,1.325,3.55c.051.213.1.428.138.643.065.341.115.685.147,1.028a.8.8,0,0,0,.016.2.427.427,0,0,1,0,.145v1.461a.986.986,0,0,1-.016.21.3.3,0,0,0,0,.124l-.014.136a1.548,1.548,0,0,1-.026.206c-.009.068-.021.166-.033.248s-.026.166-.04.248c-.026.154-.056.311-.091.467-.042.194-.089.386-.143.577-.014.058-.03.115-.047.171-.061.21-.129.418-.2.626-.264.732-.549,1.463-.818,2.2-.044.122-.089.234-.131.367s-.086.234-.126.362h0c-.042.124-.082.248-.124.369s-.077.234-.115.369c-.077.252-.147.5-.213.76-.019.075-.04.15-.056.234a.543.543,0,0,1-.023.1c-.007.033-.016.068-.023.1-.035.159-.068.318-.1.479l-.035.2c-.021.133-.04.264-.058.395h0c-.019.14-.033.285-.047.428-.187,2.209.549,4.674,2.445,5.824.556.339,1.267.652,1.372,1.295.058.372-.115.743-.077,1.117.061.622.652,1.024,1.143,1.4h0C807.761,637.939,808.228,638.56,807.994,639.131Z" transform="translate(-613.4 -474.308)"/><g class="n" transform="translate(165.339 127.397)"><path d="M879.907,676.17a7.879,7.879,0,0,0,.044,1.739,28.944,28.944,0,0,1,1.823-5.936,11.076,11.076,0,0,0,.591-4.812,10.941,10.941,0,0,1-.591,2.646A24.637,24.637,0,0,0,879.907,676.17Z" transform="translate(-856.26 -652.134)"/><path d="M878.452,602.9c0,.442-.021.881-.042,1.32-.012.266-.026.533-.044.8,0,.15-.021.3-.035.451,0,.107-.021.217-.03.325a.283.283,0,0,1-.012.1c-.014.131-.028.262-.044.39-.021.175-.047.351-.072.526l-.035.234c-.049.337-.1.675-.143,1.014a3.4,3.4,0,0,1-.086-.647,21.016,21.016,0,0,1,.337-3.3c.051-.411.091-.827.119-1.243Z" transform="translate(-854.746 -602.87)"/><path d="M785.334,671.786a4.909,4.909,0,0,1,.2.97c.023-.294.04-.591.047-.886a6.684,6.684,0,0,0-.25-2.251c-.234-.743-.7-1.4-.9-2.162-.014-.061-.03-.119-.042-.178a5.891,5.891,0,0,0,.042,2.337C784.64,670.377,785.091,671.043,785.334,671.786Z" transform="translate(-783.016 -652.226)"/><path d="M807.453,751.417h0c-.217.079-.451.138-.666.2-2.211.647-3.576,2.8-5.338,4.279a10.211,10.211,0,0,1-2.985,1.744,13.569,13.569,0,0,1-7.783.248c-2.564-.6-5.481-1.1-7.409-2.9a21.4,21.4,0,0,1-3.919-4.908l-.082-.145a4.722,4.722,0,0,0-.3,1.257,2.311,2.311,0,0,0,.386,1.054,21.335,21.335,0,0,0,3.919,4.908c1.928,1.795,4.845,2.3,7.409,2.9a13.549,13.549,0,0,0,7.783-.25,10.155,10.155,0,0,0,2.985-1.741c1.762-1.484,3.127-3.632,5.338-4.279.533-.157,1.169-.278,1.4-.788C808.423,752.422,807.956,751.8,807.453,751.417Z" transform="translate(-778.933 -715.567)"/><path d="M779.21,735.751a3.7,3.7,0,0,0-.234-.851,3.93,3.93,0,0,0-.033,2.054A3.814,3.814,0,0,0,779.21,735.751Z" transform="translate(-778.823 -704.042)"/><path d="M795.753,610.9a2.928,2.928,0,0,1-.129.5c-.028-.122-.054-.234-.079-.362a35.492,35.492,0,0,1-.715-4.674l.234-.072q.189,1.3.467,2.571A5.244,5.244,0,0,1,795.753,610.9Z" transform="translate(-791.089 -605.491)"/></g><path class="k" d="M748.115,650.45l-1.557,1.152s-3.291,7.39-3.05,11.534c.037.659.056,1.32.044,1.982-.026,1.341.36,3.506,3.209,2.933,4.06-.813,14.079-4.469,14.079-4.469l-.678-3.249s-8.528,2.164-10.005,1.229c0,0,1.963-5.483,1.692-6.158S748.115,650.45,748.115,650.45Z" transform="translate(-586.414 -511.933)"/><path class="k" d="M870.1,627.86l.935,2.167a79.57,79.57,0,0,1,3.249,8.393c.54,2.3,1.491,8.26,1.491,8.26s2.164,4.207-6.229,2.435-11.92-3.924-11.92-3.924l1.636-2.98s7.986,1.489,9.071.678c0,0-3.249-7.446-2.98-7.989S870.1,627.86,870.1,627.86Z" transform="translate(-673.873 -494.622)"/><path class="k" d="M809,658.924l1.353-1.218s2.571-11.92,4.875-10.153-.949,11.92-.949,11.92l-3.249,1.76Z" transform="translate(-636.608 -509.577)"/><path class="k" d="M845.937,657.483l-.811-.949s-2.844-11.777-5.28-9.746,2.562,11.789,2.562,11.789l1.084.949,2.164-.542Z" transform="translate(-659.733 -508.946)"/><path class="k" d="M854.024,786.58s-10.169,1.061-11.041,1.68-.33,4.41-.33,4.41l13.4-.811Z" transform="translate(-662.269 -616.247)"/><path class="d" d="M854.024,786.58s-10.169,1.061-11.041,1.68-.33,4.41-.33,4.41l13.4-.811Z" transform="translate(-662.269 -616.247)"/><path class="d" d="M904.367,779.359c-1.477,2.393-1.961,3.723-7.245,3.723H885.48v-7.04l1.489-.813a27.865,27.865,0,0,1,13.4-1.9Z" transform="translate(-695.214 -605.98)"/><path class="l" d="M908.074,780.105c-1.477,2.393-4.508,4.139-9.79,4.139H886.64V777.2l1.486-.813a27.864,27.864,0,0,1,13.4-1.9Z" transform="translate(-696.103 -606.869)"/><path class="k" d="M812,788.026a3.64,3.64,0,0,1,1.456-.187,2.067,2.067,0,0,1,1.4,1.01,1.8,1.8,0,0,0,.407.556,1.294,1.294,0,0,0,.664.189,29.808,29.808,0,0,1,4.789.559,5.577,5.577,0,0,1,3.761,2.774,1.233,1.233,0,0,1,.14.535,1.061,1.061,0,0,1-.7.853c-1.11.484-2.351-.166-3.536-.421a12.676,12.676,0,0,0-4.081.1,34.828,34.828,0,0,1-4.041.234,16.54,16.54,0,0,1-3.307-.306c-.61-.129-1.211-.309-1.828-.39a12.454,12.454,0,0,0-1.772-.065q-4.106.047-8.2-.124a7.786,7.786,0,0,1-2.557-.4.809.809,0,0,1-.435-.313.82.82,0,0,1-.086-.381,7.738,7.738,0,0,1,.776-3.833c.189-.39.561-1.3.982-1.489s1.528.273,2,.379a42.673,42.673,0,0,0,9.115,1.281A20.212,20.212,0,0,0,812,788.026Z" transform="translate(-625.159 -616.479)"/><path class="d" d="M754.189,770.633l-1.809,7.049-11.12-.278c-1.587-.61,2.414-2.307,0-4.391l-2.91-6.712a34.72,34.72,0,0,1,6.093,1.491,9.556,9.556,0,0,0,3.927.811S753.649,769.955,754.189,770.633Z" transform="translate(-582.471 -600.706)"/><path class="l" d="M738.273,772.342l-1.809,7.04-11.12-.278a29.057,29.057,0,0,1-7.764-4.282L722.434,768a34.852,34.852,0,0,1,6.093,1.489,9.639,9.639,0,0,0,3.926.813S737.733,771.665,738.273,772.342Z" transform="translate(-566.555 -602.009)"/><ellipse class="l" cx="3.926" cy="8.11" rx="3.926" ry="8.11" transform="matrix(0.118, -0.993, 0.993, 0.118, 170.396, 112.591)"/><circle class="l" cx="2.842" cy="2.842" r="2.842" transform="translate(176.662 98.514)"/><path class="d" d="M827.27,490.785s3.564-.687,5.3.467S827.27,490.785,827.27,490.785Z" transform="translate(-650.608 -389.428)"/><path class="c" d="M813.833,506.215c0,.234-.157.507-.7.03-1.374-1.2-4.536-4.359-8.881-4.359-4.529,0-8.2,3.242-9.816,4.359-.547.379-.935.173-.935-.03,0-.8,4.674-7.215,10.751-7.215S813.833,505.418,813.833,506.215Z" transform="translate(-624.731 -395.879)"/><path class="d" d="M813.567,511.847c-.07.152-.262.217-.668-.138-1.374-1.2-4.536-4.359-8.881-4.359-4.529,0-8.2,3.242-9.816,4.359a1.227,1.227,0,0,1-.381.185,1.94,1.94,0,0,0-.32.72c0,.2.388.409.935.03,1.615-1.117,5.287-4.359,9.816-4.359,4.345,0,7.507,3.16,8.881,4.359.545.467.7.2.7-.03A2.378,2.378,0,0,0,813.567,511.847Z" transform="translate(-624.731 -402.278)"/><rect class="o" width="0.764" height="4.326" transform="translate(188.427 110.305)"/><path class="c" d="M801.75,483.93h0a2.629,2.629,0,0,1,2.629,2.629v.171a2.629,2.629,0,0,1-2.629,2.629h0Z" transform="translate(-614.342 -370.827)"/><rect class="o" width="1.187" height="5.936" rx="0.594" transform="translate(186.898 112.848)"/><rect class="o" width="0.764" height="4.326" transform="translate(169.536 114.716) rotate(180)"/><path class="c" d="M0,0H0A2.629,2.629,0,0,1,2.629,2.629V2.8A2.629,2.629,0,0,1,0,5.429H0Z" transform="translate(170.555 118.616) rotate(180)"/><rect class="o" width="1.187" height="5.936" rx="0.594" transform="translate(171.062 118.871) rotate(180)"/><ellipse class="c" cx="7.9" cy="1.519" rx="7.9" ry="1.519" transform="translate(219.813 164.275)"/><ellipse class="b" cx="0.921" cy="1.204" rx="0.921" ry="1.204" transform="translate(226.659 163.946)"/><ellipse class="b" cx="0.921" cy="1.204" rx="0.921" ry="1.204" transform="translate(226.659 162.473)"/><ellipse class="b" cx="0.921" cy="1.204" rx="0.921" ry="1.204" transform="translate(226.659 161.003)"/><ellipse class="b" cx="0.921" cy="1.204" rx="0.921" ry="1.204" transform="translate(226.659 159.531)"/><ellipse class="b" cx="0.921" cy="1.204" rx="0.921" ry="1.204" transform="translate(226.659 158.059)"/><ellipse class="b" cx="0.921" cy="1.204" rx="0.921" ry="1.204" transform="translate(226.659 156.588)"/><ellipse class="b" cx="0.921" cy="1.204" rx="0.921" ry="1.204" transform="translate(226.659 155.116)"/><path class="c" d="M1034.038,660.178a4.632,4.632,0,0,0,.341-.5l-2.417-.4,2.613.019a4.4,4.4,0,0,0,.084-3.489l-3.506,1.818,3.235-2.377a4.406,4.406,0,1,0-7.278,4.929,4.594,4.594,0,0,0-.5.8l3.139,1.636L1026.4,661.5a57.56,57.56,0,0,1,1.176,10.1,8.92,8.92,0,0,0,6.453-11.407Z" transform="translate(-803.014 -513.929)"/><path class="d" d="M1026.177,694.977a17.691,17.691,0,0,1,1.41,8.682,4.406,4.406,0,0,0,6.453-5.959C1034.635,696.951,1026.177,694.481,1026.177,694.977Z" transform="translate(-803.022 -546.003)"/></g></svg>