<svg id="Logo_eye" data-name="Logo eye" xmlns="http://www.w3.org/2000/svg" width="20.004" height="12.944" viewBox="0 0 20.004 12.944">
  <path id="Tracé_359" data-name="Tracé 359" d="M24.584,27.082c-5.883,0-10,6.472-10,6.472s3,6.472,10,6.472c7.06,0,10-6.472,10-6.472S30.527,27.082,24.584,27.082Zm0,10.59A4.118,4.118,0,1,1,28.7,33.554,4.092,4.092,0,0,1,24.584,37.672Z" transform="translate(-14.582 -27.082)" fill="#868686"/>
  <path id="Tracé_360" data-name="Tracé 360" d="M47.28,45.515a1.765,1.765,0,1,1-1.765-1.765,1.765,1.765,0,0,1,1.765,1.765" transform="translate(-35.513 -39.043)" fill="#868686"/>
</svg>
