<svg xmlns="http://www.w3.org/2000/svg" width="291.441" height="47" viewBox="0 0 291.441 47">
  <g id="Groupe_72" data-name="Groupe 72" transform="translate(-62 -182)">
    <g id="Groupe_31" data-name="Groupe 31" transform="translate(7684.292 -1754.121)">
      <g id="Groupe_15" data-name="Groupe 15" transform="translate(-7622.555 1946.16)">
        <circle id="Ellipse_1" data-name="Ellipse 1" cx="7" cy="7" r="7" transform="translate(0.263 -0.039)" fill="#fff"/>
        <circle id="Ellipse_2" data-name="Ellipse 2" cx="4" cy="4" r="4" transform="translate(28.263 2.961)" fill="#fff"/>
        <ellipse id="Ellipse_4" data-name="Ellipse 4" cx="7" cy="6.5" rx="7" ry="6.5" transform="translate(14.263 13.961)" fill="#fff"/>
      </g>
      <text id="oveo" transform="translate(-7585.292 1973.121)" fill="#fff" font-size="38" font-family="Montserrat-Medium, Montserrat" font-weight="500"><tspan x="0" y="0">oveo</tspan></text>
    </g>
    <path id="spotify-1" d="M92.79,1369.145a18.362,18.362,0,1,0,18.362,18.361,18.362,18.362,0,0,0-18.362-18.361Zm8.42,26.482a1.144,1.144,0,0,1-1.574.381c-4.312-2.635-9.739-3.231-16.13-1.771a1.144,1.144,0,1,1-.509-2.231c6.994-1.6,12.994-.911,17.834,2.047a1.144,1.144,0,0,1,.379,1.574Zm2.247-5a1.432,1.432,0,0,1-1.969.471c-4.934-3.033-12.459-3.912-18.3-2.14a1.431,1.431,0,1,1-.832-2.739,26.787,26.787,0,0,1,20.626,2.44,1.431,1.431,0,0,1,.471,1.968Zm.193-5.206c-5.919-3.515-15.682-3.838-21.332-2.123a1.717,1.717,0,1,1-1-3.287c6.486-1.969,17.268-1.589,24.081,2.456a1.717,1.717,0,0,1-1.753,2.954Zm20.733.674c-3.17-.756-3.735-1.287-3.735-2.4,0-1.053.992-1.762,2.466-1.762a7.207,7.207,0,0,1,4.333,1.646.208.208,0,0,0,.157.038.2.2,0,0,0,.137-.085l1.548-2.182a.208.208,0,0,0-.039-.282,9.366,9.366,0,0,0-6.089-2.109c-3.423,0-5.814,2.054-5.814,4.993,0,3.152,2.063,4.268,5.627,5.129,3.034.7,3.546,1.284,3.546,2.331,0,1.16-1.035,1.88-2.7,1.88a7.281,7.281,0,0,1-5.048-2.086.218.218,0,0,0-.152-.05.206.206,0,0,0-.143.073l-1.736,2.066a.206.206,0,0,0,.021.288,10.348,10.348,0,0,0,6.988,2.68c3.689,0,6.072-2.016,6.072-5.135.007-2.633-1.57-4.091-5.431-5.031Zm13.783-3.127a4.974,4.974,0,0,0-3.992,1.92v-1.452a.208.208,0,0,0-.207-.208h-2.839a.208.208,0,0,0-.207.208v16.138a.208.208,0,0,0,.207.208h2.839a.208.208,0,0,0,.207-.208v-5.094a5.1,5.1,0,0,0,3.992,1.807c2.971,0,5.978-2.287,5.978-6.659s-3-6.66-5.975-6.66Zm2.677,6.66c0,2.226-1.371,3.78-3.335,3.78a3.8,3.8,0,0,1,0-7.559c1.932,0,3.335,1.589,3.335,3.779h0Zm11.009-6.66a6.673,6.673,0,1,0,6.8,6.66,6.694,6.694,0,0,0-6.8-6.66Zm0,10.462a3.61,3.61,0,0,1-3.569-3.8,3.525,3.525,0,0,1,3.522-3.757,3.621,3.621,0,0,1,3.593,3.8,3.534,3.534,0,0,1-3.545,3.755Zm14.969-10.2H163.7v-3.194a.208.208,0,0,0-.207-.208h-2.838a.208.208,0,0,0-.208.208v3.194h-1.365a.208.208,0,0,0-.207.208v2.44a.208.208,0,0,0,.207.208h1.365v6.313c0,2.551,1.27,3.845,3.774,3.845a5.178,5.178,0,0,0,2.659-.662.207.207,0,0,0,.1-.18v-2.323a.208.208,0,0,0-.3-.186,3.578,3.578,0,0,1-1.666.4c-.911,0-1.317-.414-1.317-1.34v-5.867h3.124a.207.207,0,0,0,.207-.208v-2.439a.2.2,0,0,0-.2-.208Zm10.884.012v-.392c0-1.154.442-1.669,1.435-1.669a4.789,4.789,0,0,1,1.6.3.208.208,0,0,0,.273-.2v-2.392a.208.208,0,0,0-.147-.2,7.794,7.794,0,0,0-2.359-.339c-2.622,0-4.008,1.476-4.008,4.268v.6h-1.364a.209.209,0,0,0-.208.208v2.452a.209.209,0,0,0,.208.208H174.5v9.737a.208.208,0,0,0,.207.208h2.839a.208.208,0,0,0,.208-.208v-9.736h2.65l4.06,9.735c-.461,1.023-.914,1.226-1.533,1.226a3.274,3.274,0,0,1-1.565-.444.213.213,0,0,0-.165-.016.21.21,0,0,0-.123.112l-.962,2.111a.207.207,0,0,0,.089.269,5.978,5.978,0,0,0,3.032.776c2.1,0,3.255-.976,4.276-3.6l4.925-12.726a.208.208,0,0,0-.193-.283h-2.955a.209.209,0,0,0-.2.139l-3.027,8.647-3.316-8.653a.207.207,0,0,0-.194-.134h-4.849Zm-6.31-.012h-2.839a.208.208,0,0,0-.208.208v12.385a.208.208,0,0,0,.208.208H171.4a.208.208,0,0,0,.208-.208v-12.384a.208.208,0,0,0-.208-.208Zm-1.4-5.639a2.036,2.036,0,1,0,2.036,2.035,2.036,2.036,0,0,0-2.036-2.035Zm24.869,9.621a2,2,0,1,1,2.008-2.009,1.99,1.99,0,0,1-2.008,2.009Zm.011-3.807a1.8,1.8,0,1,0,1.788,1.8,1.786,1.786,0,0,0-1.788-1.8h0Zm.443,2,.565.791H195.4l-.509-.726h-.437v.726h-.4v-2.1h.935c.487,0,.808.249.808.669a.622.622,0,0,1-.485.637h0Zm-.338-.946h-.52v.663h.52c.26,0,.415-.127.415-.332s-.156-.331-.414-.331Z" transform="translate(156.572 -1181.998)" fill="#fff"/>
    <line id="Ligne_10" data-name="Ligne 10" y2="36" transform="translate(211.5 187.5)" fill="none" stroke="#fff" stroke-width="3"/>
  </g>
</svg>
