<svg id="Play_button" data-name="Play button" xmlns="http://www.w3.org/2000/svg" width="42" height="42" viewBox="0 0 42 42">
  <circle id="Ellipse_9" data-name="Ellipse 9" cx="21" cy="21" r="21" fill="#8e8e8e" opacity="0.815"/>
  <rect id="Rectangle_8" data-name="Rectangle 8" width="5.6" height="15.867" rx="2" transform="translate(14 13.067)" fill="#f0f0f0"/>
  <rect id="Rectangle_9" data-name="Rectangle 9" width="5.6" height="15.867" rx="2" transform="translate(22.4 13.067)" fill="#f0f0f0"/>
  <g id="np_play_3234664_000000" transform="translate(-3.614 1.816)" opacity="0">
    <path id="Tracé_11" data-name="Tracé 11" d="M19.082,28.172V12.361a.863.863,0,0,1,1.328-.728l12.359,7.906a.862.862,0,0,1,0,1.455L20.41,28.9a.863.863,0,0,1-1.328-.727Z" transform="translate(-1.133 -1.125)" fill="#f0f0f0"/>
    <path id="Tracé_12" data-name="Tracé 12" d="M18.282,27.047V11.206a.433.433,0,0,1,0-.058c0,.071,0,.011,0-.009.011-.04.022-.08.034-.117-.022.067-.007.011,0-.007s.028-.053.046-.08.02-.028.028-.043c-.04.055-.013.018,0,.007.031-.031.061-.061.093-.089-.053.046-.013.009,0,0l.055-.034.046-.025c.064-.036-.049.013.016-.007.043-.011.082-.025.125-.034.076-.02-.044-.007,0,0,.02,0,.044,0,.064,0s.036,0,.053,0,.087.016.036,0l.036.009c.027.007.053.016.078.025.058.018.011,0,0,0l.076.04a.171.171,0,0,1,.025.016s0,0,.007,0l.1.061.5.319,1.944,1.244q1.368.878,2.739,1.753L27.3,16.037l2.5,1.6q.745.478,1.49.952c.049.031.1.062.144.091l.034.02,0,0c.016.011.034.022.049.034-.051-.04,0,0,.009.011s.044.046.067.069.027.049,0,0c.009.016.02.028.028.044s.025.046.037.071.016.055,0-.007c.013.043.027.082.037.126a.357.357,0,0,1,.009.051c-.013-.085,0,0,0,.016s-.011.156,0,.067a.935.935,0,0,1-.028.126.265.265,0,0,1-.018.049c.022-.069.007-.013,0,0a.378.378,0,0,1-.034.058c-.007.009-.058.08-.011.02a1.122,1.122,0,0,1-.1.1c-.009.009-.049.04,0,0-.018.013-.028.02-.049.034,0,0,0,0,0,0a.166.166,0,0,1-.028.018c-.378.242-.756.482-1.134.725q-1.144.731-2.289,1.464-1.439.918-2.874,1.837l-2.825,1.808L20.1,26.84c-.329.212-.657.425-.988.632-.036.022-.071.043-.109.062.055-.028.016-.007,0,0l-.067.02c-.022.007-.044.009-.067.016.061-.018.034,0,.009,0-.044,0-.087,0-.132,0-.062,0,0,0,.011,0a.763.763,0,0,1-.076-.016c-.022,0-.117-.04-.082-.025s-.058-.031-.076-.043-.036-.027-.053-.036c-.043-.02.051.051,0,0-.031-.031-.062-.061-.091-.093.046.051-.009-.016-.025-.037s-.025-.046-.037-.069-.013-.053,0,.007c-.011-.044-.027-.087-.037-.132,0-.018,0-.061,0,0a.344.344,0,0,0,0-.077.334.334,0,0,0-.667,0,1.2,1.2,0,0,0,1.833,1.014c.082-.051.165-.1.245-.158.541-.345,1.081-.692,1.622-1.037L23.924,25.2Q25.4,24.25,26.882,23.3l2.7-1.724Q30.486,21,31.4,20.416l.381-.242a1.312,1.312,0,0,0,.322-.28,1.212,1.212,0,0,0,.147-1.279,1.436,1.436,0,0,0-.571-.574l-.536-.343L29.1,16.4l-2.8-1.8q-1.475-.941-2.947-1.885L20.89,11.142c-.449-.287-.9-.574-1.345-.861a1.3,1.3,0,0,0-1.007-.214,1.218,1.218,0,0,0-.924,1.206V27.049a.337.337,0,0,0,.334.334.343.343,0,0,0,.335-.335Z" fill="#f0f0f0"/>
  </g>
</svg>
