<svg xmlns="http://www.w3.org/2000/svg" width="15.879" height="15.884" viewBox="0 0 15.879 15.884"><defs><style>.a{fill:#868686;}</style></defs><g transform="translate(-7.95 -7.963)"><path class="a" d="M18.856,10.749q.216.219.413.454l.094.118c.041.052-.083-.109-.028-.035l.05.066c.059.081.117.162.173.245a6.177,6.177,0,0,1,.559,1.039l-.055-.133a6.424,6.424,0,0,1,.441,1.621c-.007-.05-.013-.1-.021-.148a6.446,6.446,0,0,1,0,1.669c.007-.05.013-.1.021-.148a6.322,6.322,0,0,1-.443,1.621l.055-.133a6.4,6.4,0,0,1-.38.751c-.074.124-.151.245-.235.365-.046.066-.094.133-.142.2-.013.016-.026.035-.041.052.006-.007.083-.1.026-.033-.028.035-.055.068-.083.1a6.612,6.612,0,0,1-.738.756c-.063.055-.127.107-.192.16-.015.013-.037.026-.052.041.085-.089.066-.05.033-.026l-.118.089c-.119.087-.242.168-.365.245a6.177,6.177,0,0,1-.856.443l.133-.055a6.428,6.428,0,0,1-1.621.443l.148-.021a6.446,6.446,0,0,1-1.669,0l.148.021a6.38,6.38,0,0,1-1.621-.441l.133.055a6.323,6.323,0,0,1-.832-.428c-.134-.083-.267-.172-.395-.264-.03-.022-.059-.042-.089-.065l-.055-.041s.114.091.046.035-.129-.1-.192-.156a6.325,6.325,0,0,1-.685-.679l-.139-.164-.066-.083c.119.146.018.022-.009-.015-.092-.124-.179-.251-.26-.382a6.214,6.214,0,0,1-.474-.909l.055.133a6.383,6.383,0,0,1-.435-1.6c.007.05.013.1.021.148a6.393,6.393,0,0,1,0-1.7c-.007.05-.013.1-.021.148a6.374,6.374,0,0,1,.435-1.6l-.055.133a6.311,6.311,0,0,1,.419-.82c.08-.131.164-.26.254-.385.024-.033.046-.065.07-.1s.119-.149,0,0c.052-.063.1-.125.151-.186a6.457,6.457,0,0,1,.675-.687c.058-.05.117-.1.176-.148l.083-.066c.066-.053-.048.037-.048.037.021-.016.042-.033.065-.048.127-.094.258-.184.391-.269a6.242,6.242,0,0,1,.921-.481l-.133.055a6.383,6.383,0,0,1,1.6-.435l-.148.021a6.393,6.393,0,0,1,1.7,0L15.5,9.118a6.374,6.374,0,0,1,1.6.435L16.963,9.5A6.321,6.321,0,0,1,18,10.059c.081.053.16.109.238.168l.065.048c.072.053-.015-.015-.038-.03.044.03.085.066.125.1a3.848,3.848,0,0,1,.462.4.553.553,0,0,0,.782-.782A6.843,6.843,0,0,0,14.087,8a7.151,7.151,0,0,0-2.051.544A6.84,6.84,0,0,0,9.253,18.822a6.843,6.843,0,0,0,11.241-.22,6.847,6.847,0,0,0-.138-7.789,7.636,7.636,0,0,0-.717-.848.554.554,0,0,0-.783.784Z" transform="translate(0)"/><path class="a" d="M65.693,64.031l3.013,3.013a1.175,1.175,0,0,1-1.661,1.661l-3.014-3.012a6.809,6.809,0,0,0,.906-.756,6.289,6.289,0,0,0,.756-.906Z" transform="translate(-45.491 -45.481)"/><path class="a" d="M64.3,63.048l1.357,1.357,1.615,1.615c.013.013.028.026.041.041l.021.021.044.05c.007.009.041.055.015.016a.973.973,0,0,1,.07.109.444.444,0,0,1,.024.046c.006.011.033.072.015.028a1.115,1.115,0,0,1,.068.242c.015.08,0-.035,0,.013,0,.021,0,.042,0,.063,0,.046,0,.092,0,.139,0,.015-.007.07,0,.013,0,.016-.006.033-.009.05a.979.979,0,0,1-.031.122c-.007.024-.016.048-.024.072,0,.009-.022.048,0,0a1.361,1.361,0,0,1-.074.136.509.509,0,0,1-.03.044c-.044.068.018-.021-.013.016a1.021,1.021,0,0,1-.081.089c-.026.026-.052.048-.08.072-.06.053.041-.022-.028.021a.675.675,0,0,1-.066.042.986.986,0,0,1-.114.059c.048-.022-.05.018-.065.022a.92.92,0,0,1-.122.031l-.063.011c.063-.009-.021,0-.026,0-.042,0-.083,0-.125,0a.392.392,0,0,1-.05,0c-.08,0,.052.013-.026,0a1.37,1.37,0,0,1-.242-.068c.055.022-.022-.013-.028-.015s-.03-.016-.046-.024c-.037-.022-.074-.044-.109-.07.035.026,0,0-.006-.006s-.041-.035-.059-.053a.273.273,0,0,1-.021-.021c-.474-.465-.938-.938-1.407-1.407l-1.6-1.6c-.018.146-.037.289-.055.435a7.137,7.137,0,0,0,1.761-1.761.276.276,0,1,0-.477-.278,6.441,6.441,0,0,1-1.562,1.562.281.281,0,0,0-.055.435l1.409,1.409q.794.794,1.59,1.59a1.451,1.451,0,0,0,2.164-1.93,6.085,6.085,0,0,0-.481-.494l-2.627-2.627a.275.275,0,1,0-.389.389Z" transform="translate(-44.291 -44.302)"/></g></svg>