<svg xmlns="http://www.w3.org/2000/svg" width="242.962" height="240.51" viewBox="0 0 242.962 240.51">
  <g id="Tracé_14" data-name="Tracé 14" transform="matrix(-0.695, 0.719, -0.719, -0.695, 242.962, 153.277)" fill="none" opacity="0.387">
    <path d="M7.915,220.65c62.6,0,113.353-49.394,113.353-110.325S70.518,0,7.915,0C-21.571,0,56.32,110.325,56.32,110.325S-25.2,220.65,7.915,220.65Z" stroke="none"/>
    <path d="M 7.914598941802979 220.650390625 L 7.914598941802979 219.650390625 C 15.54004287719727 219.650390625 23.16037750244141 218.9027252197266 30.56390380859375 217.4281921386719 C 37.77854156494141 215.9913024902344 44.8749885559082 213.8472747802734 51.65615463256836 211.0556945800781 C 58.31398773193359 208.3148803710938 64.73543548583984 204.9225463867188 70.74212646484375 200.9729156494141 C 76.69151306152344 197.0609741210938 82.28595733642578 192.5684356689453 87.37007141113281 187.6201324462891 C 92.4537353515625 182.6723022460938 97.06896209716797 177.2280578613281 101.0875396728516 171.4386901855469 C 105.1441268920898 165.5945587158203 108.6282119750977 159.3471374511719 111.4430160522461 152.8699951171875 C 114.3095703125 146.2738037109375 116.5111236572266 139.3711090087891 117.9865188598633 132.3536376953125 C 119.5004577636719 125.1529159545898 120.2680969238281 117.7414169311523 120.2680969238281 110.3249969482422 C 120.2680969238281 102.9085845947266 119.50048828125 95.49707794189453 117.9865951538086 88.29638671875 C 116.5112075805664 81.27891540527344 114.309684753418 74.37625122070312 111.4431533813477 67.78005218505859 C 108.6283798217773 61.30291366577148 105.1442947387695 55.05552673339844 101.0877380371094 49.2114143371582 C 97.06915283203125 43.42202758789062 92.45395660400391 37.97783279418945 87.37032318115234 33.02999877929688 C 82.28620910644531 28.08172035217285 76.69176483154297 23.58919334411621 70.74240112304688 19.67727661132812 C 64.73574066162109 15.72766494750977 58.31429290771484 12.33533191680908 51.65648651123047 9.59455394744873 C 44.87532043457031 6.802998065948486 37.77887725830078 4.658998012542725 30.56423759460449 3.222109317779541 C 23.16070938110352 1.747609257698059 15.54037666320801 0.999998152256012 7.914932250976562 0.999998152256012 C 5.491071224212646 0.999998152256012 3.896626710891724 1.803303718566895 3.040459871292114 3.45577597618103 C 2.058404445648193 5.35122013092041 1.988709926605225 8.384664535522461 2.833265542984009 12.47183132171631 C 3.63090443611145 16.3319149017334 5.260210037231445 21.15813636779785 7.67593240737915 26.81638717651367 C 11.77109909057617 36.40838623046875 18.15837669372559 48.50116348266602 26.66037750244141 62.75885772705078 C 41.1578483581543 87.07086181640625 56.97929382324219 109.5243835449219 57.13740539550781 109.7483596801758 L 57.55401611328125 110.3384399414062 L 57.12473678588867 110.9193878173828 C 56.96271133422852 111.1386642456055 40.75082015991211 133.1236877441406 25.91054344177246 157.1357727050781 C 17.20684814453125 171.2186584472656 10.67573738098145 183.2250213623047 6.498626708984375 192.8213806152344 C 4.03495979309082 198.4813385009766 2.378848791122437 203.3414154052734 1.576348900794983 207.2666625976562 C 0.7244321703910828 211.4335021972656 0.8169044256210327 214.5858001708984 1.851154446601868 216.6360473632812 C 2.874376535415649 218.6643829345703 4.85773754119873 219.650390625 7.914598941802979 219.650390625 L 7.914598941802979 220.650390625 M 7.914598941802979 220.650390625 C -25.20270729064941 220.6504364013672 56.32048797607422 110.3251113891602 56.32048797607422 110.3251113891602 C 56.32048797607422 110.3251113891602 -21.57106781005859 5.368381243897602e-05 7.914932250976562 -1.871744757409033e-06 C 70.51823425292969 -8.520507981302217e-05 121.268180847168 49.39410781860352 121.2680969238281 110.3249969482422 C 121.2680130004883 171.2559356689453 70.51787567138672 220.6502685546875 7.914598941802979 220.650390625 Z" stroke="none" fill="#ed7e83"/>
  </g>
</svg>
